<svg width="43" height="52" viewBox="0 0 43 52" fill="none" xmlns="http://www.w3.org/2000/svg">
<path d="M21.5 8.60535C28.8375 8.60535 34.7723 14.5401 34.7723 21.8776C34.7723 31.3463 26.7874 31.3463 26.7874 38.6298C26.7874 40.4912 25.5195 38.3331 25.5195 40.8958V41.2735H17.4806V40.8958C17.4806 38.3601 16.2127 40.5181 16.2127 38.6298C16.2127 31.3463 8.22775 31.3463 8.22775 21.8776C8.20078 14.5401 14.1625 8.60535 21.5 8.60535Z" fill="#D9F2A5"/>
<path d="M30.4561 23.1725C31.0765 24.4943 30.7528 25.9241 29.6198 26.8412C29.458 26.9761 29.404 27.111 29.377 27.3268C29.2961 28.7566 28.6217 29.7816 27.2999 30.3751C27.165 30.4291 27.0571 30.537 26.9762 30.6719C25.6273 32.4523 23.0916 32.5062 21.6888 30.7798C21.527 30.5909 21.446 30.5909 21.2842 30.7798C19.8544 32.5062 17.3457 32.4523 15.9969 30.6719C15.9159 30.564 15.808 30.456 15.6731 30.4021C14.3513 29.8086 13.6769 28.7835 13.596 27.3538C13.596 27.138 13.515 27.0031 13.3532 26.8682C12.2202 25.951 11.8965 24.4943 12.5169 23.1995C12.5979 23.0106 12.5979 22.8757 12.5169 22.6869C12.0314 21.5809 12.1123 20.5288 12.8406 19.5307C12.9485 19.3688 12.9755 19.234 12.9486 19.0721C12.7327 17.6424 13.4071 16.4284 14.702 15.835C14.9718 15.7271 15.0527 15.6192 15.0257 15.2954C14.9448 14.4052 15.2685 13.6499 16.0508 13.1643C16.8061 12.6788 17.5345 12.1123 18.3977 11.7616C18.9373 11.5458 19.4768 11.3839 20.2321 11.3839C20.5289 11.3569 20.9335 11.5188 21.3112 11.7885C21.446 11.8695 21.5539 11.9504 21.6888 11.8425C22.3093 11.3299 23.0376 11.3299 23.766 11.4918C24.4674 11.6537 25.1148 11.9504 25.7353 12.355C26.1938 12.6248 26.6255 12.9215 27.0571 13.2183C27.7854 13.7578 28.1092 14.4862 27.9743 15.4033C27.9473 15.6192 27.9743 15.7271 28.1901 15.781C29.6738 16.3475 30.3482 17.9391 30.0514 19.0991C30.0245 19.2609 30.0784 19.3958 30.1863 19.5307C30.9147 20.5288 30.9956 21.5809 30.51 22.6869C30.3752 22.8757 30.3752 23.0106 30.4561 23.1725Z" fill="white"/>
<path d="M23.4693 50.7691H19.1801C18.6405 50.7691 18.1819 50.3375 18.1819 49.771V48.9617H24.4404V49.771C24.4674 50.3105 24.0088 50.7691 23.4693 50.7691Z" fill="#D9F2A5"/>
<path d="M20.2051 11.384C20.5019 11.357 20.9065 11.5189 21.2842 11.7886C21.4191 11.8695 21.527 11.9505 21.6619 11.8156C22.2823 11.303 23.0107 11.303 23.739 11.4649C24.4404 11.6268 25.0878 11.9235 25.7083 12.3281C26.1669 12.5979 26.5985 12.8946 27.0301 13.2183C27.7585 13.7579 28.0822 14.4862 27.9473 15.4034C27.9203 15.6192 27.9473 15.7271 28.1631 15.7811C29.6468 16.3476 30.3212 17.9392 30.0245 19.0992C29.9975 19.261 30.0514 19.3959 30.1593 19.5308C30.8877 20.5019 30.9686 21.581 30.4831 22.687C30.4021 22.8758 30.4021 23.0107 30.4831 23.1995C31.1035 24.5214 30.7798 25.9511 29.6468 26.8683C29.4849 27.0032 29.404 27.138 29.404 27.3539C29.3231 28.7836 28.6487 29.8087 27.3268 30.4022C27.192 30.4561 27.0841 30.564 27.0031 30.6719C25.6543 32.4524 23.1455 32.5333 21.7158 30.7798C21.5539 30.591 21.473 30.591 21.3112 30.7798C19.8814 32.5063 17.3726 32.4524 16.0238 30.6719C15.9429 30.564 15.835 30.4561 15.7001 30.4022C14.3783 29.8087 13.7039 28.7836 13.623 27.3539C13.623 27.138 13.542 27.0032 13.3802 26.8683C12.2472 25.9511 11.9235 24.5214 12.5439 23.1995C12.6248 23.0107 12.6248 22.8758 12.5439 22.687C12.0583 21.581 12.1393 20.5289 12.8676 19.5308C12.9755 19.3689 13.0025 19.234 12.9755 19.0722C12.7597 17.6424 13.4071 16.4285 14.729 15.835C14.9987 15.7271 15.0797 15.5923 15.0527 15.2955C14.9718 14.4053 15.2955 13.65 16.0778 13.1644C16.8331 12.6788 17.5615 12.1123 18.4247 11.7616C18.9103 11.5458 19.4768 11.384 20.2051 11.384ZM18.2898 13.0025C18.7484 13.2723 19.0721 13.569 19.288 14.0007C19.4498 14.2974 19.3689 14.6211 19.1261 14.756C18.8563 14.9178 18.5596 14.8099 18.3708 14.5402C18.3438 14.4862 18.3168 14.4323 18.2898 14.4053C17.7773 13.65 16.6173 13.7309 16.1857 14.5402C15.889 15.1067 16.0778 15.5383 16.6982 15.7271C17.9391 16.0778 18.8833 17.2917 18.8833 18.5057C18.8833 18.8833 18.6675 19.1261 18.3438 19.1261C18.074 19.1261 17.8582 18.9103 17.8312 18.5866C17.8043 18.3438 17.7773 18.0741 17.6694 17.8313C17.2647 16.8871 16.2127 16.4555 15.2415 16.8062C14.2704 17.1569 13.7848 18.182 14.0816 19.1801C14.1895 19.5038 14.1625 19.7196 13.9197 19.9624C13.3262 20.5289 13.1104 21.2303 13.4071 22.0126C13.7039 22.8219 14.2974 23.2265 15.1336 23.2805C15.5383 23.3074 15.7541 23.5502 15.7001 23.8739C15.6731 24.1976 15.4034 24.3595 15.0527 24.3325C14.5401 24.3056 14.0816 24.1707 13.6499 23.9009C13.4611 23.766 13.3802 23.847 13.3262 24.0358C13.1104 24.8451 13.4611 25.7353 14.2434 26.1669C14.6211 26.3827 14.729 26.6255 14.702 27.0301C14.5941 28.1631 15.1336 29.0534 16.1587 29.431C16.4285 29.5389 16.6173 29.7008 16.7792 29.9436C17.3457 30.8338 18.4247 31.1845 19.4228 30.8608C20.4209 30.5101 20.9335 29.7008 20.9335 28.4869C20.9335 24.926 20.9335 21.3651 20.9335 17.8313C20.9335 16.968 20.8256 16.8332 19.9893 16.6443C19.6926 16.5634 19.5577 16.3746 19.5577 16.0778C19.5847 15.7811 19.7735 15.6462 20.0433 15.5923C20.2591 15.5653 20.4479 15.6192 20.6368 15.6732C20.8795 15.7541 20.9335 15.7002 20.9335 15.4574C20.9335 14.756 20.9335 14.0546 20.9335 13.3532C20.9335 12.7598 20.5289 12.3821 19.9354 12.436C19.3689 12.49 18.8563 12.6788 18.2898 13.0025ZM22.0935 26.1399C22.2284 26.1399 22.2823 26.032 22.3902 25.9781C22.6869 25.7623 23.0376 25.6004 23.3883 25.4925C23.712 25.4116 23.9818 25.5465 24.0897 25.8162C24.1976 26.113 24.0358 26.3827 23.739 26.5176C23.6581 26.5446 23.5772 26.5715 23.4962 26.5985C22.4442 27.0301 21.8507 28.2171 22.1744 29.2692C22.4442 30.1864 23.0376 30.7529 23.9548 30.9147C24.926 31.0766 25.7083 30.7259 26.2478 29.9166C26.3827 29.7278 26.4906 29.5659 26.7334 29.458C27.9203 28.9994 28.4598 28.1901 28.325 26.9222C28.298 26.5446 28.4059 26.3288 28.7296 26.1669C29.5389 25.7353 29.9166 24.7911 29.7007 23.9818C29.6468 23.793 29.5928 23.7391 29.404 23.847C28.9994 24.1167 28.5408 24.2516 28.0822 24.2786C27.6236 24.3056 27.3538 24.1437 27.3538 23.793C27.3268 23.4423 27.5696 23.2535 27.9743 23.1995C28.7836 23.1456 29.377 22.714 29.6468 21.9586C29.9166 21.2033 29.7547 20.5019 29.1882 19.9354C28.9184 19.6657 28.8645 19.4229 28.9724 19.0722C29.2422 18.2359 28.9184 17.3997 28.244 16.9411C27.5696 16.4825 26.6524 16.4825 26.005 16.995C25.4925 17.3727 25.2767 17.9122 25.2227 18.5327C25.1957 18.8833 24.9529 19.0722 24.6832 19.0452C24.3864 19.0182 24.1976 18.8024 24.1706 18.4787C24.1706 18.3438 24.1706 18.2359 24.1976 18.101C24.4674 16.7522 25.2497 15.889 26.5985 15.5923C26.7873 15.5383 26.8952 15.4843 26.9492 15.2685C27.0571 14.6751 26.7603 14.1086 26.2478 13.8928C25.7083 13.6769 25.0608 13.8658 24.7371 14.3783C24.4943 14.756 24.1976 14.8639 23.9009 14.6751C23.6041 14.4862 23.5772 14.1625 23.8469 13.7848C24.0088 13.5151 24.2246 13.2993 24.4674 13.1374C24.5483 13.0835 24.6832 13.0565 24.7102 12.9216C24.2785 12.6519 23.5232 12.3821 23.0646 12.3821C22.5521 12.3821 22.1474 12.6788 22.1474 13.1644C22.1204 14.4053 22.1474 15.6462 22.1474 16.8871C22.1474 17.049 22.2014 17.1029 22.3632 17.049C22.579 16.968 22.7949 16.9411 23.0376 16.9411C23.3344 16.968 23.5232 17.1569 23.5232 17.4536C23.5232 17.7503 23.3614 17.9392 23.0646 17.9931C22.3093 18.128 22.1474 18.3438 22.1474 19.0992C22.1474 21.3112 22.1474 23.5232 22.1474 25.7353C22.0395 25.8971 22.0125 26.032 22.0935 26.1399Z" fill="#136262"/>
<path d="M15.9699 23.2264C15.5922 23.2264 15.3495 23.0106 15.3495 22.7139C15.3495 22.4171 15.5653 22.2283 15.916 22.1743C16.2936 22.1204 16.6173 21.9855 16.8331 21.6888C16.968 21.4999 16.968 21.419 16.7252 21.3381C15.5653 20.9604 14.8909 20.1242 14.675 18.9372C14.6481 18.8023 14.6481 18.6674 14.6481 18.5326C14.6481 18.2088 14.8639 17.993 15.1606 17.9661C15.4574 17.9661 15.6732 18.1549 15.7001 18.4786C15.7541 19.0181 15.916 19.5037 16.3476 19.8814C17.0489 20.5288 18.155 20.5558 18.8833 19.9353C18.9373 19.8814 18.9912 19.8274 19.0722 19.7735C19.3149 19.5846 19.6117 19.6116 19.8005 19.8274C19.9894 20.0432 19.9894 20.34 19.8005 20.5558C19.4498 20.9334 18.9912 21.2032 18.4787 21.3381C18.2359 21.392 18.128 21.5269 18.0471 21.7427C17.6964 22.6329 16.8331 23.2534 15.9699 23.2264Z" fill="#136262"/>
<path d="M19.4498 23.1995C19.8005 23.1995 20.0163 23.4153 20.0433 23.712C20.0433 24.0357 19.8545 24.2515 19.4229 24.2785C18.6405 24.3325 18.128 24.7101 17.7773 25.3845C17.6964 25.5464 17.6694 25.7082 17.6155 25.8701C17.5615 26.1129 17.6155 26.2747 17.8582 26.4096C18.7215 26.9222 19.1801 27.6775 19.3419 28.6756C19.3689 28.8645 19.3689 29.0803 19.261 29.2691C19.1261 29.4579 18.9643 29.5389 18.7485 29.5119C18.5326 29.4849 18.3708 29.35 18.3168 29.1342C18.2899 29.0263 18.2899 28.9454 18.2629 28.8375C18.128 27.8124 17.4536 27.165 16.4285 27.084C16.0239 27.0571 15.7811 26.7873 15.862 26.4636C15.916 26.2208 16.0508 26.0589 16.2936 26.0589C16.5094 26.032 16.5634 25.951 16.5904 25.7352C16.8331 24.2515 18.0201 23.2804 19.4498 23.1995Z" fill="#136262"/>
<path d="M26.3018 23.3074C25.4385 23.3074 24.6023 22.6869 24.2786 21.8237C24.1976 21.6079 24.0897 21.5 23.8739 21.446C23.4153 21.3381 23.0107 21.0953 22.66 20.7986C22.3363 20.5019 22.2823 20.2051 22.4981 19.9354C22.7139 19.6926 23.0377 19.6926 23.3614 19.9893C24.4134 20.8795 25.9511 20.5288 26.4367 19.234C26.5176 19.0452 26.5176 18.8563 26.5446 18.6405C26.5715 18.2628 26.8143 17.9931 27.138 18.047C27.4618 18.074 27.6776 18.3977 27.6236 18.7754C27.4618 20.0972 26.7873 20.9874 25.5464 21.4191C25.2767 21.527 25.3037 21.6079 25.4385 21.7967C25.6813 22.0935 26.005 22.2014 26.3827 22.2823C26.7604 22.3362 26.9222 22.5251 26.8953 22.8488C26.8953 23.1186 26.6525 23.3074 26.3018 23.3074Z" fill="#136262"/>
<path d="M24.1167 29.2152C24.1976 28.271 24.6562 27.4347 25.5734 26.8952C25.8701 26.7334 25.9241 26.5445 25.8431 26.2208C25.6273 25.3306 24.9799 24.7911 24.0897 24.7101C23.6581 24.6832 23.4153 24.4404 23.4692 24.0897C23.4962 23.766 23.7929 23.5771 24.1976 23.6311C25.6273 23.793 26.6254 24.6832 26.9222 26.0859C26.9761 26.3017 27.0031 26.4096 27.2459 26.4636C27.5157 26.4906 27.6775 26.7334 27.6505 27.0031C27.6236 27.2999 27.4347 27.4617 27.138 27.4887C26.6794 27.5157 26.2478 27.6505 25.8971 27.9473C25.4385 28.3249 25.2497 28.8105 25.1957 29.377C25.1418 29.7547 24.9529 29.9705 24.6292 29.9435C24.3055 29.9165 24.1167 29.6468 24.1167 29.2152Z" fill="#136262"/>
<path d="M17.4806 41.8131C17.1838 41.8131 16.9411 41.5703 16.9411 41.2736V40.8959C16.9411 40.3294 16.8871 40.1136 16.8331 40.0596C16.8062 40.0596 16.7792 40.0596 16.7522 40.0596C15.9969 40.0327 15.6462 39.6011 15.6462 38.6569C15.6462 35.4737 14.0546 33.8012 12.1933 31.8859C10.0621 29.6738 7.66125 27.165 7.66125 21.9047C7.66125 14.2704 13.8658 8.0929 21.473 8.0929C21.7698 8.0929 22.0126 8.33568 22.0126 8.63242C22.0126 8.92916 21.7698 9.17194 21.473 9.17194C14.4592 9.17194 8.7403 14.8909 8.7403 21.9047C8.7403 26.7334 10.8984 28.9724 12.9756 31.1305C14.8369 33.0189 16.7252 35.0151 16.7252 38.6299C16.7252 38.7918 16.7252 38.8997 16.7522 38.9536C17.6424 38.9806 17.9931 39.5201 17.9931 40.8689V41.2466C18.0201 41.5703 17.7773 41.8131 17.4806 41.8131Z" fill="#136262"/>
<path d="M21.5 39.9247H16.3745C16.0778 39.9247 15.835 39.682 15.835 39.3852C15.835 39.0885 16.0778 38.8457 16.3745 38.8457H21.5C21.7968 38.8457 22.0395 39.0885 22.0395 39.3852C22.0395 39.682 21.7968 39.9247 21.5 39.9247Z" fill="#136262"/>
<path d="M21.5 44.4297H17.6154C16.6443 44.4297 15.835 43.6205 15.835 42.6493C15.835 41.6782 16.6443 40.8689 17.6154 40.8689H21.5C21.7968 40.8689 22.0395 41.1117 22.0395 41.4084C22.0395 41.7052 21.7968 41.9479 21.5 41.9479H17.6154C17.2378 41.9479 16.9141 42.2717 16.9141 42.6493C16.9141 43.027 17.2378 43.3507 17.6154 43.3507H21.5C21.7968 43.3507 22.0395 43.5935 22.0395 43.8902C22.0395 44.187 21.7968 44.4297 21.5 44.4297Z" fill="#136262"/>
<path d="M21.5 46.9385H17.6154C16.6443 46.9385 15.835 46.1293 15.835 45.1581C15.835 44.187 16.6443 43.3777 17.6154 43.3777H21.5C21.7968 43.3777 22.0395 43.6205 22.0395 43.9172C22.0395 44.2139 21.7968 44.4567 21.5 44.4567H17.6154C17.2378 44.4567 16.9141 44.7804 16.9141 45.1581C16.9141 45.5358 17.2378 45.8595 17.6154 45.8595H21.5C21.7968 45.8595 22.0395 46.1023 22.0395 46.399C22.0395 46.6958 21.7968 46.9385 21.5 46.9385Z" fill="#136262"/>
<path d="M25.5195 41.8131C25.2227 41.8131 24.98 41.5703 24.98 41.2736V40.8959C24.98 39.5471 25.3306 38.9806 26.2209 38.9806C26.2209 38.9266 26.2478 38.8187 26.2478 38.6569C26.2478 35.0421 28.1631 33.0458 29.9975 31.1305C32.0747 28.9724 34.2328 26.7334 34.2328 21.9047C34.2328 14.8909 28.5138 9.17194 21.5 9.17194C21.2033 9.17194 20.9605 8.92916 20.9605 8.63242C20.9605 8.33568 21.2033 8.0929 21.5 8.0929C29.1343 8.0929 35.3118 14.2974 35.3118 21.9047C35.3118 27.165 32.911 29.6738 30.7798 31.8859C28.9185 33.8012 27.3269 35.4737 27.3269 38.6569C27.3269 39.628 27.0032 40.0596 26.2209 40.0596C26.1939 40.0596 26.1669 40.0596 26.1399 40.0596C26.113 40.1406 26.032 40.3564 26.032 40.8959V41.2736C26.059 41.5703 25.8162 41.8131 25.5195 41.8131Z" fill="#136262"/>
<path d="M26.6255 39.9247H21.5C21.2033 39.9247 20.9605 39.682 20.9605 39.3852C20.9605 39.0885 21.2033 38.8457 21.5 38.8457H26.6255C26.9222 38.8457 27.165 39.0885 27.165 39.3852C27.165 39.682 26.9222 39.9247 26.6255 39.9247Z" fill="#136262"/>
<path d="M25.3846 44.4297H21.5C21.2033 44.4297 20.9605 44.187 20.9605 43.8902C20.9605 43.5935 21.2033 43.3507 21.5 43.3507H25.3846C25.7623 43.3507 26.086 43.027 26.086 42.6493C26.086 42.2717 25.7623 41.9479 25.3846 41.9479H21.5C21.2033 41.9479 20.9605 41.7052 20.9605 41.4084C20.9605 41.1117 21.2033 40.8689 21.5 40.8689H25.3846C26.3557 40.8689 27.165 41.6782 27.165 42.6493C27.165 43.6205 26.3557 44.4297 25.3846 44.4297Z" fill="#136262"/>
<path d="M25.3846 46.9385H21.5C21.2033 46.9385 20.9605 46.6958 20.9605 46.399C20.9605 46.1023 21.2033 45.8595 21.5 45.8595H25.3846C25.7623 45.8595 26.086 45.5358 26.086 45.1581C26.086 44.7804 25.7623 44.4567 25.3846 44.4567H21.5C21.2033 44.4567 20.9605 44.2139 20.9605 43.9172C20.9605 43.6205 21.2033 43.3777 21.5 43.3777H25.3846C26.3557 43.3777 27.165 44.187 27.165 45.1581C27.165 46.1293 26.3557 46.9385 25.3846 46.9385Z" fill="#136262"/>
<path d="M21.5 49.4203H17.6154C16.6443 49.4203 15.835 48.6111 15.835 47.6399C15.835 46.6688 16.6443 45.8595 17.6154 45.8595H21.5C21.7968 45.8595 22.0395 46.1023 22.0395 46.399C22.0395 46.6958 21.7968 46.9385 21.5 46.9385H17.6154C17.2378 46.9385 16.9141 47.2623 16.9141 47.6399C16.9141 48.0176 17.2378 48.3413 17.6154 48.3413H21.5C21.7968 48.3413 22.0395 48.5841 22.0395 48.8808C22.0395 49.1776 21.7968 49.4203 21.5 49.4203Z" fill="#136262"/>
<path d="M25.3846 49.4203H21.5C21.2033 49.4203 20.9605 49.1776 20.9605 48.8808C20.9605 48.5841 21.2033 48.3413 21.5 48.3413H25.3846C25.7623 48.3413 26.086 48.0176 26.086 47.6399C26.086 47.2623 25.7623 46.9385 25.3846 46.9385H21.5C21.2033 46.9385 20.9605 46.6958 20.9605 46.399C20.9605 46.1023 21.2033 45.8595 21.5 45.8595H25.3846C26.3557 45.8595 27.165 46.6688 27.165 47.6399C27.165 48.6111 26.3557 49.4203 25.3846 49.4203Z" fill="#136262"/>
<path d="M21.5 51.5515H20.313C18.8563 51.5515 17.6424 50.3645 17.6424 48.8808C17.6424 48.5841 17.8852 48.3413 18.1819 48.3413C18.4787 48.3413 18.7214 48.5841 18.7214 48.8808C18.7214 49.7441 19.4228 50.4724 20.313 50.4724H21.5C21.7967 50.4724 22.0395 50.7152 22.0395 51.012C22.0395 51.3087 21.7967 51.5515 21.5 51.5515Z" fill="#136262"/>
<path d="M22.687 51.5515H21.5C21.2033 51.5515 20.9605 51.3087 20.9605 51.012C20.9605 50.7152 21.2033 50.4724 21.5 50.4724H22.687C23.5502 50.4724 24.2786 49.771 24.2786 48.8808C24.2786 48.5841 24.5214 48.3413 24.8181 48.3413C25.1148 48.3413 25.3576 48.5841 25.3576 48.8808C25.3306 50.3375 24.1437 51.5515 22.687 51.5515Z" fill="#136262"/>
<path d="M21.5 5.96173C21.2033 5.96173 20.9605 5.71895 20.9605 5.42221V0.539523C20.9605 0.242785 21.2033 0 21.5 0C21.7968 0 22.0396 0.242785 22.0396 0.539523V5.42221C22.0396 5.71895 21.7968 5.96173 21.5 5.96173Z" fill="#136262"/>
<path d="M13.3802 8.25467C13.1913 8.25467 13.0025 8.14677 12.9216 7.98491L10.4667 3.74965C10.3049 3.47989 10.4128 3.15618 10.6556 3.0213C10.9253 2.85944 11.249 2.96735 11.3839 3.21013L13.8388 7.44539C14.0006 7.71515 13.8927 8.03886 13.6499 8.17374C13.569 8.2277 13.4881 8.25467 13.3802 8.25467Z" fill="#136262"/>
<path d="M7.49937 14.2704C7.41844 14.2704 7.31054 14.2434 7.22961 14.1895L2.99435 11.7346C2.72459 11.5728 2.64366 11.2491 2.80552 11.0063C2.96738 10.7635 3.29109 10.6556 3.53388 10.8174L7.76913 13.2723C8.0389 13.4341 8.11982 13.7578 7.95797 14.0006C7.87704 14.1625 7.6882 14.2704 7.49937 14.2704Z" fill="#136262"/>
<path d="M5.42221 22.4172H0.539523C0.242785 22.4172 0 22.1744 0 21.8777C0 21.5809 0.242785 21.3381 0.539523 21.3381H5.42221C5.71895 21.3381 5.96173 21.5809 5.96173 21.8777C5.96173 22.1744 5.71895 22.4172 5.42221 22.4172Z" fill="#136262"/>
<path d="M3.47989 32.9648C3.29106 32.9648 3.10223 32.8569 3.0213 32.6951C2.85944 32.4253 2.96735 32.1016 3.21013 31.9667L7.44539 29.5119C7.71515 29.35 8.03886 29.4579 8.17374 29.7007C8.30863 29.9435 8.2277 30.2942 7.98491 30.4291L3.74965 32.8839C3.64175 32.9379 3.56082 32.9648 3.47989 32.9648Z" fill="#136262"/>
<path d="M29.5928 8.25465C29.5119 8.25465 29.404 8.22768 29.3231 8.17373C29.0533 8.01187 28.9724 7.68816 29.1343 7.44537L31.5891 3.21011C31.7509 2.94035 32.0747 2.85942 32.3174 3.02128C32.5872 3.18314 32.6681 3.50685 32.5063 3.74964L30.0514 7.98489C29.9705 8.14675 29.7817 8.25465 29.5928 8.25465Z" fill="#136262"/>
<path d="M35.4737 14.2704C35.2848 14.2704 35.096 14.1625 35.0151 14.0006C34.8532 13.7309 34.9611 13.4072 35.2039 13.2723L39.4392 10.8174C39.7089 10.6556 40.0326 10.7635 40.1675 11.0063C40.3294 11.276 40.2215 11.5997 39.9787 11.7346L35.7434 14.1895C35.6625 14.2434 35.5546 14.2704 35.4737 14.2704Z" fill="#136262"/>
<path d="M42.4605 22.4172H37.5778C37.2811 22.4172 37.0383 22.1744 37.0383 21.8777C37.0383 21.5809 37.2811 21.3381 37.5778 21.3381H42.4605C42.7572 21.3381 43 21.5809 43 21.8777C43 22.1744 42.7572 22.4172 42.4605 22.4172Z" fill="#136262"/>
<path d="M39.5201 32.9648C39.4391 32.9648 39.3312 32.9379 39.2503 32.8839L35.015 30.4291C34.7453 30.2672 34.6644 29.9435 34.8262 29.7007C34.9881 29.431 35.3118 29.35 35.5546 29.5119L39.7898 31.9667C40.0596 32.1286 40.1405 32.4523 39.9787 32.6951C39.8977 32.8569 39.7089 32.9648 39.5201 32.9648Z" fill="#136262"/>
</svg>
