<svg width="65" height="66" viewBox="0 0 65 66" fill="none" xmlns="http://www.w3.org/2000/svg">
<path d="M61.8207 33.7977C61.8207 41.3411 58.9768 48.2254 54.2947 53.4277V54.6069L52.786 55.3873L52.5433 55.2139C49.9768 57.6243 46.9595 59.5838 43.6473 60.9537C42.1387 61.578 40.5433 62.0809 38.9132 62.4624C36.815 62.9306 34.6473 63.1907 32.4103 63.1907C25.3872 63.1907 18.9364 60.7283 13.8728 56.6185C13.5086 56.3237 13.1445 56.0116 12.7977 55.6994C12.6416 55.5607 12.5029 55.422 12.3468 55.3006C12.052 55.0405 11.7745 54.763 11.4971 54.4682C11.289 54.2601 11.0636 54.0347 10.8555 53.8092C10.0231 52.9075 9.24277 51.9711 8.53179 50.9653C5.04624 46.1445 3 40.2139 3 33.7977C3 17.5665 16.1618 4.40472 32.393 4.40472C48.6589 4.40472 61.8207 17.5665 61.8207 33.7977Z" fill="url(#paint0_linear_643_1330)"/>
<path opacity="0.08" d="M6.46826 43.9248L33.8671 60.971L54.2947 54.6242L22.3353 40.5953L6.46826 43.9248Z" fill="#136262"/>
<path opacity="0.08" d="M31.7167 52.9074C31.7167 53.9652 30.5201 54.9363 28.5779 55.6646C28.2485 55.786 27.919 55.9074 27.5548 56.0114C27.5201 56.0114 27.5028 56.0288 27.4681 56.0288C27.312 56.0808 27.156 56.1155 26.9825 56.1675C26.7918 56.2195 26.6011 56.2715 26.393 56.3062C24.4161 56.7744 22.0057 57.0346 19.4219 57.0346C17.445 57.0346 15.5548 56.8785 13.9074 56.601C13.5433 56.3062 13.1791 55.9941 12.8323 55.682C12.6762 55.5432 12.5375 55.4045 12.3814 55.2831C12.0866 55.023 11.8092 54.7455 11.5317 54.4507C11.3236 54.2427 11.0982 54.0172 10.8901 53.7918C10.0577 52.89 9.27739 51.9536 8.56641 50.9479C8.93057 50.7224 9.34676 50.497 9.83231 50.3062C10.0577 50.2022 10.3178 50.1155 10.5606 50.0288C10.63 50.0114 10.682 49.9941 10.7514 49.9594C10.9248 49.9074 11.0982 49.838 11.2889 49.786C11.3756 49.7513 11.4797 49.734 11.5664 49.6993C11.7398 49.6473 11.8959 49.6126 12.0866 49.5606C12.156 49.5432 12.2254 49.5259 12.2947 49.5086C12.971 49.3525 13.682 49.2138 14.4277 49.0924C14.5317 49.075 14.6358 49.0577 14.7398 49.0577C15.4161 48.9536 16.1271 48.8843 16.8728 48.8323C17.1329 48.8149 17.3756 48.7976 17.6358 48.7802H17.6531C17.7571 48.7802 17.8612 48.7629 17.9826 48.7629C18.0693 48.7629 18.156 48.7629 18.26 48.7455C18.3988 48.7455 18.5201 48.7456 18.6589 48.7282C18.8323 48.7282 19.0057 48.7282 19.1965 48.7282H19.2138C19.2832 48.7282 19.3525 48.7282 19.4219 48.7282H19.4392C19.9594 48.7282 20.4797 48.7455 20.9826 48.7629C22.5953 48.8323 24.1213 49.0057 25.4739 49.2658C26.2196 49.4045 26.9305 49.5779 27.5721 49.7687C27.9016 49.8727 28.2311 49.9768 28.5259 50.0808C28.8034 50.1849 29.0461 50.2889 29.2889 50.3929C29.6184 50.549 29.9305 50.7051 30.208 50.8612C30.4161 50.9825 30.5895 51.1213 30.7629 51.2427C31.3698 51.7976 31.7167 52.3351 31.7167 52.9074Z" fill="#136262"/>
<path d="M6.76294 28.3352V44.1502L8.27162 43.3699V27.8844L6.76294 28.3352Z" fill="#BABABA"/>
<path d="M52.7861 39.52V55.4044L52.5433 55.2136L52.4913 55.1789L51.6243 54.5373V38.8784L52.7861 39.52Z" fill="#CECECE"/>
<path d="M30.4162 42.1558L25.7861 43.8552L21.815 45.3119L19.2833 39.4333L18.5723 37.8032L20.6185 35.8957L30.4162 42.1558Z" fill="url(#paint1_linear_643_1330)"/>
<path d="M21.6589 43.3526L29.4277 40.5953L31.1098 41.7225L30.4161 42.156L21.815 45.3121L21.6589 43.3526Z" fill="url(#paint2_linear_643_1330)"/>
<path opacity="0.12" d="M25.7861 43.8555L21.8323 45.3121L19.2832 39.4335L20.0635 37.6474C21.6416 38.4798 24.4161 40.6301 25.4739 42C25.7861 42.5549 25.7861 43.3526 25.7861 43.8555Z" fill="url(#paint3_linear_643_1330)"/>
<path d="M54.2946 37.7166V39.1386L33.8669 45.1559L5.60107 28.0403V26.6357L50.2195 36.7802L54.2946 37.7166Z" fill="#CECECE"/>
<path d="M54.2945 37.7169V39.1388L33.8668 45.1562V43.7342L32.9651 41.2371L50.2194 36.7805L54.2945 37.7169Z" fill="#BABABA"/>
<path d="M54.2946 37.7166L33.8669 43.734L5.60107 26.6357L21.1213 25.9768L54.2946 37.7166Z" fill="url(#paint4_linear_643_1330)"/>
<path d="M33.8669 45.1559V60.9709L35.3756 60.2079V44.705L33.8669 45.1559Z" fill="#BABABA"/>
<path d="M32.7051 44.4622V60.1211L33.8669 60.9708V45.1038L32.7051 44.4622Z" fill="#CECECE"/>
<path d="M5.60107 27.6242V43.3004L6.76291 44.1502V28.2831L5.60107 27.6242Z" fill="#CECECE"/>
<path d="M54.2948 39.1386V54.6241L52.7861 55.4045V39.5721L54.2948 39.1386Z" fill="#BABABA"/>
<path d="M25.5085 30.2769L25.8034 30.6411L32.7744 33.4676L35.3409 25.907L35.2542 25.8029L25.5085 30.2769Z" fill="#107264"/>
<path d="M25.5085 30.277L32.6357 33.277L35.2542 25.8031L28.0057 23.514L25.5085 30.277Z" fill="url(#paint5_linear_643_1330)"/>
<path d="M18.8496 32.1154V32.3929L25.2658 35.9304L32.5316 33.6761V33.3466L18.8496 32.1154Z" fill="#107264"/>
<path d="M18.8496 32.1152L25.2831 35.5834L32.5316 33.3464L25.4218 30.3464L18.8496 32.1152Z" fill="url(#paint6_linear_643_1330)"/>
<path d="M23.7227 31.1093L23.5666 31.04C23.5146 31.0053 23.5146 30.9706 23.5666 30.9533L23.9481 30.8319C24.0175 30.8145 24.1042 30.8145 24.1735 30.8492L24.3296 30.9186C24.399 30.9533 24.399 30.988 24.3296 31.0053L23.9308 31.1267C23.8961 31.144 23.792 31.144 23.7227 31.1093Z" fill="#107264"/>
<path d="M24.2081 31.3349L24.0521 31.2656C23.9827 31.2309 24.0001 31.1962 24.0521 31.1789L24.4509 31.0575C24.5203 31.0401 24.6243 31.0401 24.6764 31.0748L24.8498 31.1442C24.9191 31.1789 24.9191 31.2135 24.8498 31.2309L24.4509 31.3523C24.3816 31.3696 24.2775 31.3696 24.2081 31.3349Z" fill="#107264"/>
<path d="M24.711 31.5603L24.5376 31.4909C24.4683 31.4562 24.4683 31.4215 24.5376 31.4042L24.9365 31.2828C25.0058 31.2655 25.1099 31.2655 25.1792 31.3002L25.3527 31.3695C25.422 31.4042 25.422 31.4389 25.3527 31.4562L24.9365 31.5776C24.8671 31.595 24.7631 31.595 24.711 31.5603Z" fill="#107264"/>
<path d="M25.214 31.8032L25.0405 31.7165C24.9712 31.6818 24.9712 31.6471 25.0405 31.6298L25.4567 31.5084C25.5261 31.4911 25.6302 31.4911 25.6995 31.5257L25.8729 31.6124C25.9423 31.6471 25.9423 31.6818 25.8729 31.6992L25.4567 31.8205C25.3874 31.8379 25.2833 31.8205 25.214 31.8032Z" fill="#107264"/>
<path d="M25.7513 32.0459L25.5779 31.9592C25.5085 31.9245 25.5085 31.8898 25.5779 31.8725L26.0114 31.7511C26.0808 31.7337 26.1848 31.7337 26.2542 31.7684L26.445 31.8551C26.5143 31.8898 26.5143 31.9245 26.445 31.9418L26.0114 32.0632C25.9247 32.0806 25.8207 32.0632 25.7513 32.0459Z" fill="#107264"/>
<path d="M26.2892 32.2885L26.0984 32.2018C26.029 32.1672 26.029 32.1325 26.0984 32.1151L26.5319 31.9938C26.6013 31.9764 26.7227 31.9764 26.7921 32.0111L26.9828 32.0978C27.0522 32.1325 27.0522 32.1672 26.9828 32.1845L26.5319 32.3059C26.4799 32.3232 26.3585 32.3232 26.2892 32.2885Z" fill="#107264"/>
<path d="M26.8614 32.5486L26.6707 32.4619C26.6013 32.4272 26.6013 32.3925 26.6707 32.3578L27.1215 32.2364C27.1909 32.2191 27.3123 32.2191 27.3817 32.2538L27.5724 32.3405C27.6418 32.3752 27.6591 32.4098 27.5724 32.4445L27.1215 32.5659C27.0522 32.5832 26.9308 32.5832 26.8614 32.5486Z" fill="#107264"/>
<path d="M27.451 32.8088L27.2429 32.7221C27.1736 32.6874 27.1736 32.6354 27.2429 32.6181L27.6938 32.4967C27.7632 32.4793 27.8846 32.4793 27.9713 32.514L28.1794 32.6007C28.2661 32.6354 28.2661 32.6874 28.1794 32.7048L27.7112 32.8262C27.6418 32.8608 27.5204 32.8435 27.451 32.8088Z" fill="#107264"/>
<path d="M28.0578 33.0865L27.8497 32.9998C27.763 32.9651 27.763 32.913 27.8497 32.8957L28.3179 32.7743C28.3873 32.757 28.526 32.7743 28.5954 32.809L28.8035 32.8957C28.8902 32.9304 28.8902 32.9824 28.8035 32.9998L28.3179 33.1211C28.2659 33.1385 28.1445 33.1211 28.0578 33.0865Z" fill="#107264"/>
<path d="M28.6823 33.3811L28.4742 33.2771C28.3875 33.2424 28.3875 33.1904 28.4742 33.1731L28.9597 33.0517C29.0291 33.0343 29.1678 33.0517 29.2546 33.0863L29.48 33.1904C29.5667 33.2251 29.5667 33.2771 29.4973 33.2944L29.0118 33.4158C28.9077 33.4332 28.769 33.4158 28.6823 33.3811Z" fill="#107264"/>
<path d="M29.3412 33.6758L29.1157 33.5718C29.029 33.5371 29.029 33.4851 29.0984 33.4677L29.6013 33.3463C29.688 33.329 29.8094 33.3463 29.8961 33.381L30.1215 33.4851C30.2082 33.5198 30.2082 33.5718 30.1388 33.5891L29.6359 33.7105C29.5666 33.7278 29.4279 33.7105 29.3412 33.6758Z" fill="#107264"/>
<path d="M30.0174 33.9878L29.792 33.8838C29.7053 33.8491 29.7053 33.7971 29.7746 33.7797L30.2775 33.6584C30.3642 33.641 30.503 33.6584 30.5897 33.693L30.8324 33.7971C30.9191 33.8318 30.9365 33.8838 30.8498 33.9011L30.3296 34.0225C30.2428 34.0399 30.1041 34.0225 30.0174 33.9878Z" fill="#107264"/>
<path d="M22.8904 31.3694L22.7343 31.3C22.6823 31.2653 22.6823 31.2306 22.7343 31.2133L23.1158 31.0919C23.1852 31.0746 23.2719 31.0746 23.3413 31.1092L23.4973 31.1786C23.5494 31.2133 23.5494 31.248 23.4973 31.2653L23.1158 31.3867C23.0465 31.404 22.9598 31.404 22.8904 31.3694Z" fill="#107264"/>
<path d="M23.3584 31.5952L23.2023 31.5258C23.1503 31.4911 23.1503 31.4565 23.2023 31.4391L23.5838 31.3177C23.6532 31.3004 23.7399 31.3004 23.8093 31.3351L23.9654 31.4044C24.0347 31.4391 24.0174 31.4738 23.9654 31.4911L23.5665 31.6125C23.5145 31.6299 23.4104 31.6125 23.3584 31.5952Z" fill="#107264"/>
<path d="M23.8268 31.8203L23.6708 31.7509C23.6014 31.7162 23.6187 31.6816 23.6708 31.6642L24.0696 31.5428C24.139 31.5255 24.243 31.5255 24.295 31.5602L24.4684 31.6295C24.5378 31.6642 24.5378 31.6989 24.4684 31.7162L24.0696 31.8376C24.0002 31.855 23.8962 31.855 23.8268 31.8203Z" fill="#107264"/>
<path d="M24.3294 32.063L24.156 31.9763C24.0867 31.9416 24.0867 31.9069 24.156 31.8896L24.5549 31.7682C24.6242 31.7508 24.7283 31.7508 24.7976 31.7855L24.971 31.8722C25.0404 31.9069 25.0404 31.9416 24.971 31.9589L24.5549 32.0803C24.5028 32.0976 24.3815 32.0803 24.3294 32.063Z" fill="#107264"/>
<path d="M24.8324 32.3059L24.659 32.2192C24.5896 32.1845 24.5896 32.1498 24.659 32.1325L25.0751 32.0111C25.1445 31.9937 25.2485 31.9937 25.3179 32.0284L25.4913 32.1151C25.5607 32.1498 25.5607 32.1845 25.4913 32.2018L25.0751 32.3232C25.0058 32.3406 24.9017 32.3232 24.8324 32.3059Z" fill="#107264"/>
<path d="M25.3526 32.5488L25.1792 32.4621C25.1099 32.4274 25.1099 32.3927 25.1792 32.3754L25.6127 32.254C25.6821 32.2367 25.7861 32.2367 25.8555 32.2713L26.0463 32.3581C26.1156 32.3927 26.1156 32.4274 26.0463 32.4448L25.6127 32.5661C25.5434 32.6008 25.422 32.5835 25.3526 32.5488Z" fill="#107264"/>
<path d="M25.9076 32.8086L25.7168 32.7219C25.6475 32.6872 25.6475 32.6525 25.7168 32.6352L26.1503 32.5138C26.2197 32.4964 26.3411 32.4964 26.4105 32.5311L26.6012 32.6178C26.6706 32.6525 26.6706 32.6872 26.6012 32.7219L26.1503 32.8433C26.0983 32.8606 25.9769 32.8432 25.9076 32.8086Z" fill="#107264"/>
<path d="M26.4625 33.0865L26.2717 32.9998C26.2024 32.9651 26.2024 32.913 26.2717 32.8957L26.7226 32.7743C26.792 32.757 26.9134 32.7743 26.9827 32.809L27.1735 32.8957C27.2429 32.9304 27.2429 32.9824 27.1735 32.9998L26.7226 33.1211C26.6532 33.1211 26.5492 33.1211 26.4625 33.0865Z" fill="#107264"/>
<path d="M27.0521 33.3638L26.8613 33.2771C26.792 33.2424 26.792 33.1904 26.8613 33.1731L27.3122 33.0517C27.3816 33.0343 27.503 33.0517 27.5897 33.0863L27.7978 33.1731C27.8845 33.2077 27.8845 33.2598 27.7978 33.2771L27.3295 33.3985C27.2428 33.4158 27.1215 33.3985 27.0521 33.3638Z" fill="#107264"/>
<path d="M27.6589 33.6409L27.4508 33.5369C27.3814 33.5022 27.3641 33.4502 27.4508 33.4328L27.919 33.3114C27.9884 33.2941 28.1271 33.3114 28.1964 33.3461L28.4046 33.4502C28.4913 33.4848 28.4913 33.5369 28.4046 33.5542L27.919 33.6756C27.867 33.6929 27.7282 33.6756 27.6589 33.6409Z" fill="#107264"/>
<path d="M28.2834 33.9534L28.0753 33.8494C27.9886 33.8147 27.9886 33.7627 28.0753 33.7453L28.5608 33.6239C28.6302 33.6066 28.7689 33.6239 28.8556 33.6586L29.0811 33.7627C29.1678 33.7973 29.1678 33.8494 29.0984 33.8667L28.6128 33.9881C28.4915 34.0054 28.3701 33.9881 28.2834 33.9534Z" fill="#107264"/>
<path d="M28.9423 34.2654L28.7169 34.1614C28.6302 34.1267 28.6302 34.0747 28.7169 34.0573L29.2198 33.9359C29.3065 33.9186 29.4279 33.9359 29.5146 33.9706L29.74 34.0747C29.8267 34.1094 29.8267 34.1614 29.7573 34.1787L29.2545 34.3001C29.1504 34.3174 29.029 34.3001 28.9423 34.2654Z" fill="#107264"/>
<path d="M22.0752 31.6123L21.9365 31.5429C21.8845 31.5082 21.8845 31.4735 21.9365 31.4562L22.318 31.3348C22.37 31.3175 22.4741 31.3175 22.5261 31.3522L22.6821 31.4215C22.7342 31.4562 22.7342 31.4909 22.6821 31.5082L22.3006 31.6296C22.2313 31.647 22.1272 31.647 22.0752 31.6123Z" fill="#107264"/>
<path d="M22.5261 31.8376L22.3701 31.7682C22.318 31.7336 22.318 31.6989 22.3701 31.6815L22.7516 31.5602C22.821 31.5428 22.9076 31.5428 22.977 31.5775L23.1331 31.6469C23.1851 31.6815 23.1851 31.7162 23.1331 31.7336L22.7516 31.855C22.6822 31.8723 22.5782 31.8723 22.5261 31.8376Z" fill="#107264"/>
<path d="M22.9768 32.0632L22.8208 31.9938C22.7687 31.9592 22.7687 31.9245 22.8208 31.9071L23.2023 31.7857C23.2716 31.7684 23.3583 31.7684 23.4277 31.8031L23.5838 31.8724C23.6531 31.9071 23.6358 31.9418 23.5838 31.9592L23.1849 32.0805C23.1329 32.1152 23.0462 32.0979 22.9768 32.0632Z" fill="#107264"/>
<path d="M23.4627 32.3059L23.3066 32.2192C23.2546 32.1845 23.2546 32.1498 23.3066 32.1325L23.7054 32.0111C23.7748 31.9937 23.8788 31.9937 23.9309 32.0284L24.1043 32.1151C24.1736 32.1498 24.1736 32.1845 24.1043 32.2018L23.7054 32.3232C23.6187 32.3406 23.5147 32.3406 23.4627 32.3059Z" fill="#107264"/>
<path d="M23.9482 32.5488L23.7748 32.4621C23.7054 32.4274 23.7227 32.3927 23.7748 32.3754L24.1909 32.254C24.2603 32.2367 24.3644 32.2367 24.4337 32.2713L24.6071 32.3581C24.6765 32.3927 24.6765 32.4274 24.6071 32.4448L24.1909 32.5661C24.1216 32.6008 24.0002 32.5835 23.9482 32.5488Z" fill="#107264"/>
<path d="M24.451 32.8088L24.2776 32.722C24.2082 32.6874 24.2082 32.6527 24.2776 32.6353L24.6938 32.514C24.7632 32.4966 24.8672 32.514 24.9366 32.5313L25.11 32.618C25.1793 32.6527 25.1793 32.6874 25.11 32.7047L24.6765 32.8261C24.6244 32.8434 24.5204 32.8434 24.451 32.8088Z" fill="#107264"/>
<path d="M24.971 33.0688L24.7976 32.9821C24.7283 32.9474 24.7283 32.9127 24.7976 32.8954L25.2312 32.774C25.3005 32.7566 25.4046 32.774 25.4739 32.7913L25.6647 32.878C25.734 32.9127 25.734 32.9474 25.6647 32.9821L25.2312 33.1034C25.1444 33.1208 25.0404 33.1034 24.971 33.0688Z" fill="#107264"/>
<path d="M25.5089 33.3289L25.3181 33.2422C25.2488 33.2075 25.2488 33.1555 25.3181 33.1381L25.7517 33.0168C25.821 32.9994 25.9424 33.0168 26.0118 33.0514L26.2025 33.1381C26.2719 33.1728 26.2719 33.2248 26.2025 33.2422L25.7517 33.3636C25.6996 33.3809 25.5782 33.3636 25.5089 33.3289Z" fill="#107264"/>
<path d="M26.0636 33.6236L25.8728 33.5369C25.8035 33.5022 25.8035 33.4502 25.8728 33.4328L26.3237 33.3114C26.393 33.2941 26.5144 33.3114 26.5838 33.3461L26.7745 33.4328C26.8439 33.4675 26.8439 33.5195 26.7745 33.5369L26.3237 33.6582C26.2717 33.6756 26.1503 33.6583 26.0636 33.6236Z" fill="#107264"/>
<path d="M26.6532 33.9012L26.4624 33.7971C26.3931 33.7624 26.3931 33.7104 26.4624 33.6931L26.9133 33.5717C26.9827 33.5543 27.1041 33.5717 27.1908 33.6064L27.3988 33.7104C27.4682 33.7451 27.4855 33.7971 27.3988 33.8145L26.9306 33.9358C26.8439 33.9532 26.7226 33.9532 26.6532 33.9012Z" fill="#107264"/>
<path d="M27.2602 34.2132L27.0521 34.1091C26.9827 34.0744 26.9654 34.0224 27.0521 34.0051L27.5203 33.8837C27.5897 33.8664 27.7284 33.8837 27.7978 33.9184L28.0059 34.0224C28.0926 34.0571 28.0926 34.1091 28.0059 34.1265L27.5203 34.2479C27.451 34.2652 27.3296 34.2479 27.2602 34.2132Z" fill="#107264"/>
<path d="M27.8845 34.5257L27.6764 34.4216C27.5897 34.3869 27.5897 34.3349 27.6764 34.3176L28.1619 34.1962C28.2486 34.1789 28.37 34.1962 28.4567 34.2309L28.6821 34.3349C28.7688 34.3696 28.7688 34.4216 28.6821 34.439L28.1966 34.5604C28.0925 34.5777 27.9538 34.5604 27.8845 34.5257Z" fill="#107264"/>
<path d="M21.2776 31.8549L21.1389 31.7856C21.0869 31.7509 21.0869 31.7162 21.1562 31.6989L21.5204 31.5948C21.5724 31.5775 21.6765 31.5775 21.7285 31.6122L21.8672 31.6815C21.9192 31.7162 21.9192 31.7509 21.8672 31.7682L21.503 31.8896C21.4337 31.907 21.3297 31.8896 21.2776 31.8549Z" fill="#107264"/>
<path d="M21.711 32.0805L21.5722 32.0112C21.5202 31.9765 21.5202 31.9418 21.5896 31.9245L21.9711 31.8031C22.0231 31.7857 22.1272 31.7857 22.1792 31.8204L22.3352 31.8898C22.3873 31.9245 22.3873 31.9591 22.3352 31.9765L21.9537 32.0979C21.8497 32.1152 21.763 32.1152 21.711 32.0805Z" fill="#107264"/>
<path d="M22.1448 32.3232L21.9887 32.2365C21.9367 32.2018 21.9367 32.1671 21.9887 32.1498L22.3702 32.0284C22.4396 32.0111 22.5263 32.0111 22.5783 32.0458L22.7344 32.1151C22.7864 32.1498 22.7864 32.1845 22.7344 32.2018L22.3529 32.3232C22.3009 32.3579 22.2142 32.3406 22.1448 32.3232Z" fill="#107264"/>
<path d="M24.5724 33.5893L22.4394 32.4794C22.3874 32.4447 22.3874 32.4101 22.4394 32.3927L22.8209 32.2713C22.8903 32.254 22.977 32.254 23.0463 32.2887L25.2486 33.3985C25.318 33.4332 25.318 33.4852 25.2486 33.5025L24.8151 33.6239C24.7631 33.6413 24.6417 33.6239 24.5724 33.5893Z" fill="#107264"/>
<path d="M24.8148 33.9706L23.653 34.2654C23.5836 34.2827 23.4796 34.2654 23.4102 34.2307L22.4738 33.7278L23.2021 33.5197C23.2368 33.5024 23.2542 33.485 23.2368 33.4503C23.2195 33.4157 23.2021 33.3983 23.1675 33.4157L22.3178 33.6584L21.2773 33.1209C21.2253 33.0862 21.2253 33.0515 21.2773 33.0342L22.3871 32.7394C22.4565 32.722 22.5432 32.722 22.6125 32.7567L24.7975 33.8665C24.8842 33.9185 24.8842 33.9532 24.8148 33.9706Z" fill="#107264"/>
<path d="M25.11 33.8667L24.9192 33.7627C24.8498 33.728 24.8498 33.676 24.9192 33.6586L25.3527 33.5373C25.4221 33.5199 25.5435 33.5373 25.6129 33.5719L25.8036 33.6586C25.873 33.6933 25.873 33.7453 25.8036 33.7627L25.3527 33.8841C25.3007 33.9188 25.1793 33.9014 25.11 33.8667Z" fill="#107264"/>
<path d="M25.6646 34.1614L25.4739 34.0574C25.4045 34.0227 25.4045 33.9707 25.4739 33.9533L25.9248 33.8319C25.9941 33.8146 26.1155 33.8319 26.1849 33.8666L26.3756 33.9707C26.445 34.0053 26.445 34.0574 26.3756 34.0747L25.9248 34.1961C25.8554 34.2134 25.7513 34.1961 25.6646 34.1614Z" fill="#107264"/>
<path d="M26.2545 34.4561L26.0637 34.352C25.9944 34.3174 25.9944 34.2653 26.0637 34.248L26.5319 34.1266C26.6013 34.1093 26.7227 34.1266 26.8094 34.1613L27.0175 34.2653C27.0869 34.3 27.1042 34.352 27.0175 34.3694L26.5493 34.4908C26.4452 34.5255 26.3239 34.5081 26.2545 34.4561Z" fill="#107264"/>
<path d="M26.8441 34.7681L26.636 34.6641C26.5666 34.6294 26.5666 34.5774 26.636 34.56L27.1042 34.4386C27.1736 34.4213 27.3123 34.4386 27.3817 34.4733L27.5898 34.5774C27.6765 34.612 27.6765 34.6641 27.5898 34.6814L27.1042 34.8028C27.0522 34.8375 26.9135 34.8201 26.8441 34.7681Z" fill="#107264"/>
<path d="M25.9941 29.6354L32.7051 32.4966L34.786 26.5313L27.9884 24.2596L25.9941 29.6354Z" fill="#107264"/>
<path d="M11.4452 51.3118C11.9336 51.3118 12.3296 50.714 12.3296 49.9766C12.3296 49.2391 11.9336 48.6413 11.4452 48.6413C10.9567 48.6413 10.5608 49.2391 10.5608 49.9766C10.5608 50.714 10.9567 51.3118 11.4452 51.3118Z" fill="url(#paint7_linear_643_1330)"/>
<path d="M12.5375 54.5026C12.5375 54.7974 12.4682 55.0749 12.3641 55.3003C12.0693 55.0402 11.7919 54.7627 11.5144 54.4679C11.3063 54.2598 11.0809 54.0344 10.8728 53.809C10.9942 53.4968 11.2023 53.2714 11.445 53.1847C11.5144 53.1674 11.5664 53.15 11.6358 53.15C11.7745 53.15 11.8959 53.202 12.0173 53.2714C12.0693 53.3061 12.1214 53.3581 12.1734 53.4101C12.2081 53.4448 12.2427 53.4795 12.2601 53.5315C12.2774 53.5662 12.2948 53.5835 12.3121 53.6182C12.4682 53.861 12.5375 54.1558 12.5375 54.5026Z" fill="url(#paint8_linear_643_1330)"/>
<path d="M17.7572 50.2713C18.2456 50.2713 18.6416 49.6734 18.6416 48.936C18.6416 48.1986 18.2456 47.6007 17.7572 47.6007C17.2688 47.6007 16.8728 48.1986 16.8728 48.936C16.8728 49.6734 17.2688 50.2713 17.7572 50.2713Z" fill="url(#paint9_linear_643_1330)"/>
<path d="M18.5201 50.2713C19.0086 50.2713 19.4045 49.6734 19.4045 48.936C19.4045 48.1986 19.0086 47.6007 18.5201 47.6007C18.0317 47.6007 17.6357 48.1986 17.6357 48.936C17.6357 49.6734 18.0317 50.2713 18.5201 50.2713Z" fill="url(#paint10_linear_643_1330)"/>
<path d="M29.3929 51.6239C29.8814 51.6239 30.2773 51.0261 30.2773 50.2887C30.2773 49.5512 29.8814 48.9534 29.3929 48.9534C28.9045 48.9534 28.5085 49.5512 28.5085 50.2887C28.5085 51.0261 28.9045 51.6239 29.3929 51.6239Z" fill="url(#paint11_linear_643_1330)"/>
<path d="M27.1041 56.1844C27.5925 56.1844 27.9885 55.5866 27.9885 54.8491C27.9885 54.1117 27.5925 53.5139 27.1041 53.5139C26.6157 53.5139 26.2197 54.1117 26.2197 54.8491C26.2197 55.5866 26.6157 56.1844 27.1041 56.1844Z" fill="url(#paint12_linear_643_1330)"/>
<path d="M11.7399 54.6413L11.4451 53.1153C11.4104 52.9072 11.5318 52.7164 11.7226 52.6644L11.8266 52.6297L19.8728 50.3927C19.9942 50.358 20.133 50.358 20.237 50.3927L27.3815 52.647L27.4509 52.6644C27.6069 52.7164 27.711 52.8551 27.711 53.0285L27.6416 54.6759L27.1908 54.7106L26.8439 53.0979L27.1561 53.4794L19.8382 51.884H20.2197L12.0347 53.5835L12.4162 53.0979L12.1214 54.6239H11.7399V54.6413Z" fill="url(#paint13_linear_643_1330)"/>
<path d="M29.5838 50.4273L29.4451 48.8146L29.8786 49.1441L20.2543 51.8666C20.133 51.9013 20.0116 51.9013 19.8902 51.8666L10.9249 49.2308L11.4624 48.8146L11.237 50.3406H10.8382L10.6127 48.8146C10.5781 48.6065 10.7341 48.4158 10.9422 48.3811C10.9942 48.3811 11.0289 48.3811 11.0809 48.3811L11.1503 48.3984L20.289 50.3753H19.9249L29.7399 48.4851H29.7919C29.9653 48.4505 30.1387 48.5719 30.1734 48.7453C30.1734 48.7799 30.1734 48.8146 30.1734 48.832L30.0347 50.4447H29.5838V50.4273Z" fill="url(#paint14_linear_643_1330)"/>
<path d="M19.4045 51.5545L17.6011 48.0863L18.3467 47.8608L18.1733 49.3868H17.7225L17.5491 47.8608C17.5317 47.6527 17.6705 47.4446 17.8959 47.4273C18.0346 47.41 18.1733 47.462 18.2427 47.566L18.2947 47.6354L20.7051 50.7047L19.4045 51.5545Z" fill="url(#paint15_linear_643_1330)"/>
<path d="M20.6879 51.069L20.5318 51.1037C20.2197 51.1557 19.8902 51.1557 19.5781 51.1037L19.4393 51.0863C19.2832 51.0516 19.1792 50.9303 19.1792 50.7742V46.5256H20.948V50.7742C20.9653 50.9129 20.8439 51.0343 20.6879 51.069Z" fill="url(#paint16_linear_643_1330)"/>
<path d="M20.9652 47.4621L20.7398 47.4968C20.2889 47.5661 19.8381 47.5661 19.3872 47.4968L19.1965 47.4621C18.971 47.4274 18.8149 47.2366 18.8149 47.0112V40.9419H21.3467V47.0112C21.3467 47.2366 21.1733 47.4274 20.9652 47.4621Z" fill="url(#paint17_linear_643_1330)"/>
<path d="M21.8151 45.3116L19.9423 44.2365L19.4741 43.9764L17.636 42.9359L12.2603 39.8666L12.8152 34.6122L12.8325 34.5082C12.9192 33.7279 12.9539 32.9475 12.9539 32.1325C12.9539 31.9591 12.9539 31.803 12.9539 31.6296L12.8325 25.6296C12.8152 24.7105 13.3527 24.2423 13.9944 24.5891L20.029 27.8319C20.7053 28.1961 21.2776 29.2712 21.2602 30.1903L21.1909 35.462L21.1735 36.5544C21.1562 37.3868 21.1909 38.2539 21.2776 39.1556L21.3123 39.6411L21.8151 45.3116Z" fill="url(#paint18_linear_643_1330)"/>
<path d="M21.815 45.3119L20.0809 45.6587L19.9768 45.3813L19.4913 43.9767L19.3005 43.4391V42.6934L19.8728 43.283L21.815 45.3119Z" fill="url(#paint19_linear_643_1330)"/>
<path d="M13.6646 24.4852H11.7397V25.7685L12.9883 26.254L13.6646 24.4852Z" fill="url(#paint20_linear_643_1330)"/>
<path d="M20.0809 45.6585L17.133 43.8723L11.5318 40.4735C10.9075 40.092 10.5607 39.3984 10.6301 38.67L11.0636 34.5082C11.1156 34.0573 11.1503 33.5891 11.1677 33.1209C11.185 32.7914 11.185 32.462 11.185 32.1325C11.185 31.9591 11.185 31.803 11.185 31.6296L11.0636 25.6296C11.0463 24.7105 11.5838 24.2423 12.2255 24.5891L18.2601 27.8319C18.9364 28.1961 19.5087 29.2712 19.4913 30.1903L19.422 35.462L19.4046 36.3463V36.5544C19.4046 36.6758 19.4046 36.7799 19.4046 36.9013C19.4046 37.6296 19.4393 38.3752 19.5087 39.1382L20.0462 45.3984L20.0809 45.6585Z" fill="url(#paint21_linear_643_1330)"/>
<path d="M11.7399 36.2945C11.9133 35.0113 11.8786 33.7107 11.8786 32.4101C11.8613 31.1095 11.8093 29.809 11.7399 28.5257C11.7052 27.8841 11.6358 27.2252 11.7052 26.5489C11.7226 26.3754 11.7572 26.202 11.844 26.0113C11.896 25.9246 11.948 25.8205 12.052 25.7512C12.1387 25.6818 12.2601 25.6298 12.3815 25.6124C12.607 25.5951 12.7977 25.6471 12.9538 25.6991C13.1272 25.7685 13.2832 25.8379 13.422 25.9246C14.5665 26.5315 15.7457 27.1038 16.7688 27.9361C15.5029 27.5546 14.3757 26.913 13.2312 26.3061C13.0925 26.2194 12.9538 26.15 12.815 26.098C12.6763 26.046 12.5376 26.0113 12.4509 26.0286C12.3642 26.046 12.2948 26.0806 12.2428 26.1847C12.1908 26.2887 12.1561 26.4448 12.1387 26.5835C12.052 27.1905 12.1041 27.8321 12.1387 28.491C12.1908 29.7916 12.1734 31.0922 12.1387 32.3928C12.1214 33.0517 12.0867 33.6933 12.0347 34.335C11.9653 35.0113 11.896 35.6702 11.7399 36.2945Z" fill="#664B35"/>
<path opacity="0.12" d="M20.0636 45.4157L19.9942 45.3811L17.3584 43.9938L17.133 43.8724L11.5318 40.4736C10.9075 40.0921 10.5607 39.3984 10.6301 38.6701L11.0636 34.5083C11.1156 34.0574 11.1503 33.5892 11.1677 33.121C11.5838 33.6412 12.1734 34.1441 12.8324 34.6123C14.9133 36.0516 17.8439 37.04 19.422 36.3637V36.5718C19.422 36.6932 19.422 36.7973 19.422 36.9187C19.422 37.647 19.4566 38.3926 19.526 39.173L19.8728 43.3001L19.9595 44.2539L20.0636 45.4157Z" fill="url(#paint22_linear_643_1330)"/>
<path opacity="0.12" d="M21.8149 45.3116L20.0635 45.6584L20.0461 45.4329L19.5086 39.1728C19.4392 38.3925 19.4045 37.6468 19.4045 36.9359C19.5606 37.7856 20.3583 39.1728 21.3294 39.6584L21.8149 45.3116Z" fill="url(#paint23_linear_643_1330)"/>
<path d="M18.8496 25.7683L18.2946 26.1498L13.5605 20.2018L14.2542 19.751L18.8496 24.9013V25.7683Z" fill="url(#paint24_linear_643_1330)"/>
<path d="M18.5029 25.7858L17.6705 25.4389C16.8901 25.1268 16.1098 24.7106 15.3294 24.1904L14.4971 23.6528C14.1503 23.4274 13.8901 22.8725 13.8901 22.3523V20.4101C13.8901 19.9072 14.1503 19.6297 14.4971 19.7684L15.3294 20.1153C16.1098 20.4274 16.8901 20.8436 17.6705 21.3638L18.5029 21.9014C18.8497 22.1268 19.1098 22.6817 19.1098 23.202V25.1442C19.1098 25.647 18.8497 25.9245 18.5029 25.7858Z" fill="url(#paint25_linear_643_1330)"/>
<path d="M17.9652 26.1498L17.1329 25.8029C16.3525 25.4908 15.5722 25.0746 14.7919 24.5544L13.9595 24.0168C13.6127 23.7914 13.3525 23.2365 13.3525 22.7162V20.774C13.3525 20.2711 13.6127 19.9937 13.9595 20.1324L14.7919 20.4792C15.5722 20.7914 16.3525 21.2076 17.1329 21.7278L17.9652 22.2654C18.3121 22.4908 18.5722 23.0457 18.5722 23.5659V25.5081C18.5722 26.011 18.3121 26.2885 17.9652 26.1498Z" fill="url(#paint26_linear_643_1330)"/>
<path d="M13.6647 21.4159C13.63 21.2425 13.6126 21.0691 13.6647 20.8957C13.682 20.809 13.7514 20.6876 13.8728 20.6356C13.9941 20.5836 14.0982 20.6183 14.1849 20.6356C14.2716 20.6703 14.3583 20.705 14.4277 20.7396L14.6531 20.8437C14.8092 20.9131 14.9652 20.9824 15.1213 21.0518C15.4335 21.1905 15.7282 21.3466 16.023 21.52C16.3178 21.6934 16.5953 21.8842 16.8554 22.0749L15.9537 21.624C15.6589 21.4853 15.3468 21.3466 15.0346 21.2252L14.5664 21.0344L14.3236 20.9304C14.2369 20.8957 14.1676 20.861 14.0982 20.8437C13.9421 20.7917 13.8901 20.809 13.8207 20.9477C13.7514 21.0865 13.7167 21.2599 13.6647 21.4159Z" fill="#664B35"/>
<path d="M16.3527 26.4275C16.0926 26.3929 15.8151 26.2541 15.5723 26.0113C15.4856 25.9246 15.4336 25.7859 15.4336 25.6645V24.4333L16.5087 25.0056V26.2368C16.4914 26.3582 16.4394 26.4275 16.3527 26.4275Z" fill="#3B2D20"/>
<path d="M27.8668 56.1844C28.3553 56.1844 28.7512 55.5866 28.7512 54.8491C28.7512 54.1117 28.3553 53.5139 27.8668 53.5139C27.3784 53.5139 26.9824 54.1117 26.9824 54.8491C26.9824 55.5866 27.3784 56.1844 27.8668 56.1844Z" fill="url(#paint27_linear_643_1330)"/>
<path d="M13.3005 54.5024C13.3005 55.0226 13.0924 55.4735 12.7976 55.6989C12.6416 55.5602 12.5029 55.4215 12.3468 55.3001C12.052 55.04 11.7745 54.7625 11.4971 54.4677C11.4971 54.277 11.5318 54.1036 11.5838 53.9475C11.6705 53.6527 11.8265 53.4273 12.0173 53.2885C12.1213 53.2192 12.2427 53.1671 12.3815 53.1671C12.3988 53.1671 12.3988 53.1671 12.3988 53.1671C12.5895 53.1671 12.763 53.2539 12.9017 53.4099C13.1618 53.6527 13.3005 54.0515 13.3005 54.5024Z" fill="url(#paint28_linear_643_1330)"/>
<path d="M10.682 51.3118C11.1704 51.3118 11.5664 50.714 11.5664 49.9766C11.5664 49.2391 11.1704 48.6413 10.682 48.6413C10.1936 48.6413 9.79761 49.2391 9.79761 49.9766C9.79761 50.714 10.1936 51.3118 10.682 51.3118Z" fill="url(#paint29_linear_643_1330)"/>
<path d="M30.1559 51.6239C30.6443 51.6239 31.0403 51.0261 31.0403 50.2887C31.0403 49.5512 30.6443 48.9534 30.1559 48.9534C29.6674 48.9534 29.2715 49.5512 29.2715 50.2887C29.2715 51.0261 29.6674 51.6239 30.1559 51.6239Z" fill="url(#paint30_linear_643_1330)"/>
<path d="M44.4623 52.734L43.9594 57.8323L43.6473 60.971C42.1386 61.5953 40.5432 62.0982 38.9132 62.4797C37.8727 62.3409 37.1791 62.0461 37.1791 61.7167L37.0057 59.9999L36.2773 52.734H44.4623Z" fill="url(#paint31_linear_643_1330)"/>
<path d="M40.3872 53.3584C42.6474 53.3584 44.4796 53.0789 44.4796 52.7341C44.4796 52.3893 42.6474 52.1098 40.3872 52.1098C38.1269 52.1098 36.2947 52.3893 36.2947 52.7341C36.2947 53.0789 38.1269 53.3584 40.3872 53.3584Z" fill="#107264"/>
<path d="M34.6818 39.2946C34.6818 39.6761 35.254 39.9882 35.9823 39.9882C36.7107 39.9882 37.2829 39.6761 37.2829 39.2946L37.5951 36.0692H34.3696L34.6818 39.2946Z" fill="url(#paint32_linear_643_1330)"/>
<path d="M37.5951 36.0691C37.5951 36.2078 37.4563 36.3292 37.2309 36.4333C36.9361 36.572 36.4852 36.6414 35.9823 36.6414C35.4794 36.6414 35.0286 36.5547 34.7338 36.4333C34.5084 36.3292 34.3696 36.2078 34.3696 36.0691C34.3696 35.757 35.0979 35.4969 35.9823 35.4969C36.8667 35.4969 37.5951 35.7396 37.5951 36.0691Z" fill="url(#paint33_linear_643_1330)"/>
<path d="M35.6528 37.1793L34.8031 37.3353L34.1962 33.7978L34.1268 33.3989L33.988 32.6186C33.9707 32.4972 34.0574 32.3585 34.1788 32.3411L34.5603 32.2718C34.6817 32.2544 34.8031 32.3411 34.8378 32.4625L34.9591 33.2082L35.0285 33.6244L35.6528 37.1793Z" fill="url(#paint34_linear_643_1330)"/>
<path d="M34.6176 33.3201L34.5151 33.3385L35.2344 37.3497L35.3368 37.3313L34.6176 33.3201Z" fill="#136262"/>
<path d="M35.0458 33.6416L34.1787 33.7976L34.1094 33.3988L34.9591 33.2254L35.0458 33.6416Z" fill="url(#paint35_linear_643_1330)"/>
<path d="M36.8319 33.3118L36.1729 37.4043L35.3232 37.2656L35.9822 33.1731L36.6238 32.2887L36.8319 33.3118Z" fill="url(#paint36_linear_643_1330)"/>
<path d="M36.8321 33.312L36.572 33.5721L36.4333 33.312L36.1732 33.5027L35.9824 33.1732L36.2772 32.7571L36.6241 32.2888L36.7454 32.8611L36.8321 33.312Z" fill="url(#paint37_linear_643_1330)"/>
<path d="M36.7453 32.8611L36.2771 32.7571L36.6239 32.2888L36.7453 32.8611Z" fill="#136262"/>
<path opacity="0.43" d="M51.4161 16.5435L56.9652 36.8845L21.1213 44.1504L7.8728 24.2776L24.052 5.23718L51.4161 16.5435Z" fill="url(#paint38_radial_643_1330)"/>
<path d="M51.867 15.3641L51.4161 16.5433L48.3294 17.7051L24.052 5.23693L24.5029 4.04041L51.867 15.3641Z" fill="#136262"/>
<path d="M27.1558 3.06937L51.8668 15.3641L48.7801 16.5086L24.5027 4.04046L27.1558 3.06937Z" fill="url(#paint39_linear_643_1330)"/>
<path d="M46.8207 14.2025C46.7166 14.2025 46.6125 14.1158 46.6125 13.9944V7.52621C46.6125 7.42216 46.6993 7.31812 46.8207 7.31812C46.9421 7.31812 47.0288 7.40482 47.0288 7.52621V14.0117C47.0114 14.1158 46.9247 14.2025 46.8207 14.2025Z" fill="#136262"/>
<path d="M29.2022 5.42773C29.0982 5.42773 28.9941 5.34103 28.9941 5.21964V0.208092C28.9941 0.104046 29.0808 0 29.2022 0C29.3236 0 29.4103 0.0867048 29.4103 0.208092V5.21964C29.4103 5.34103 29.3236 5.42773 29.2022 5.42773Z" fill="#136262"/>
<circle cx="32.5" cy="33.5" r="32" stroke="#D9F2A5"/>
<defs>
<linearGradient id="paint0_linear_643_1330" x1="32.4217" y1="5.38753" x2="32.4217" y2="72.9345" gradientUnits="userSpaceOnUse">
<stop stop-color="#D9F2A5"/>
<stop offset="1" stop-color="#9CC079"/>
</linearGradient>
<linearGradient id="paint1_linear_643_1330" x1="24.4965" y1="36.0499" x2="24.4965" y2="43.9195" gradientUnits="userSpaceOnUse">
<stop stop-color="#4F3C2B"/>
<stop offset="1" stop-color="#3B2D20"/>
</linearGradient>
<linearGradient id="paint2_linear_643_1330" x1="26.3826" y1="40.679" x2="26.3826" y2="44.6138" gradientUnits="userSpaceOnUse">
<stop stop-color="#634C36"/>
<stop offset="1" stop-color="#5C4633"/>
</linearGradient>
<linearGradient id="paint3_linear_643_1330" x1="22.532" y1="37.7828" x2="22.532" y2="44.1795" gradientUnits="userSpaceOnUse">
<stop stop-color="#4F3C2B"/>
<stop offset="1" stop-color="#3B2D20"/>
</linearGradient>
<linearGradient id="paint4_linear_643_1330" x1="29.9454" y1="26.2727" x2="29.9454" y2="41.1172" gradientUnits="userSpaceOnUse">
<stop stop-color="#EDEDED"/>
<stop offset="0.5141" stop-color="#E9E9E9"/>
<stop offset="0.9955" stop-color="#DEDEDE"/>
</linearGradient>
<linearGradient id="paint5_linear_643_1330" x1="27.4074" y1="24.1091" x2="34.0477" y2="34.4852" gradientUnits="userSpaceOnUse">
<stop stop-color="#1CA698"/>
<stop offset="0.9972" stop-color="#118276"/>
</linearGradient>
<linearGradient id="paint6_linear_643_1330" x1="25.6899" y1="30.4381" x2="25.6899" y2="36.4511" gradientUnits="userSpaceOnUse">
<stop stop-color="#1CA698"/>
<stop offset="0.9972" stop-color="#118276"/>
</linearGradient>
<linearGradient id="paint7_linear_643_1330" x1="11.4503" y1="51.3137" x2="11.4503" y2="48.6364" gradientUnits="userSpaceOnUse">
<stop stop-color="#4F3C2B"/>
<stop offset="1" stop-color="#3B2D20"/>
</linearGradient>
<linearGradient id="paint8_linear_643_1330" x1="11.7157" y1="55.2866" x2="11.7157" y2="53.1554" gradientUnits="userSpaceOnUse">
<stop stop-color="#4F3C2B"/>
<stop offset="1" stop-color="#3B2D20"/>
</linearGradient>
<linearGradient id="paint9_linear_643_1330" x1="17.7577" y1="50.2819" x2="17.7577" y2="47.6046" gradientUnits="userSpaceOnUse">
<stop stop-color="#4F3C2B"/>
<stop offset="1" stop-color="#3B2D20"/>
</linearGradient>
<linearGradient id="paint10_linear_643_1330" x1="18.5208" y1="50.2819" x2="18.5208" y2="47.6046" gradientUnits="userSpaceOnUse">
<stop stop-color="#4F3C2B"/>
<stop offset="1" stop-color="#3B2D20"/>
</linearGradient>
<linearGradient id="paint11_linear_643_1330" x1="29.3929" y1="51.6206" x2="29.3929" y2="48.9433" gradientUnits="userSpaceOnUse">
<stop stop-color="#4F3C2B"/>
<stop offset="1" stop-color="#3B2D20"/>
</linearGradient>
<linearGradient id="paint12_linear_643_1330" x1="27.0986" y1="56.1946" x2="27.0986" y2="53.5173" gradientUnits="userSpaceOnUse">
<stop stop-color="#4F3C2B"/>
<stop offset="1" stop-color="#3B2D20"/>
</linearGradient>
<linearGradient id="paint13_linear_643_1330" x1="19.575" y1="54.7546" x2="19.575" y2="50.3597" gradientUnits="userSpaceOnUse">
<stop stop-color="#4F3C2B"/>
<stop offset="1" stop-color="#3B2D20"/>
</linearGradient>
<linearGradient id="paint14_linear_643_1330" x1="10.2269" y1="50.141" x2="30.5466" y2="50.141" gradientUnits="userSpaceOnUse">
<stop stop-color="#4F3C2B"/>
<stop offset="1" stop-color="#3B2D20"/>
</linearGradient>
<linearGradient id="paint15_linear_643_1330" x1="17.1748" y1="49.4863" x2="20.705" y2="49.4863" gradientUnits="userSpaceOnUse">
<stop stop-color="#4F3C2B"/>
<stop offset="1" stop-color="#3B2D20"/>
</linearGradient>
<linearGradient id="paint16_linear_643_1330" x1="20.0766" y1="51.2325" x2="20.0766" y2="49.5876" gradientUnits="userSpaceOnUse">
<stop stop-color="#4F3C2B"/>
<stop offset="1" stop-color="#3B2D20"/>
</linearGradient>
<linearGradient id="paint17_linear_643_1330" x1="20.0765" y1="47.7063" x2="20.0765" y2="45.3544" gradientUnits="userSpaceOnUse">
<stop stop-color="#4F3C2B"/>
<stop offset="1" stop-color="#3B2D20"/>
</linearGradient>
<linearGradient id="paint18_linear_643_1330" x1="17.8985" y1="23.5422" x2="16.8904" y2="44.6" gradientUnits="userSpaceOnUse">
<stop stop-color="#634C36"/>
<stop offset="1" stop-color="#5C4633"/>
</linearGradient>
<linearGradient id="paint19_linear_643_1330" x1="20.6311" y1="42.5971" x2="20.487" y2="45.6067" gradientUnits="userSpaceOnUse">
<stop stop-color="#634C36"/>
<stop offset="1" stop-color="#5C4633"/>
</linearGradient>
<linearGradient id="paint20_linear_643_1330" x1="12.7094" y1="24.3433" x2="12.621" y2="26.1893" gradientUnits="userSpaceOnUse">
<stop stop-color="#634C36"/>
<stop offset="1" stop-color="#5C4633"/>
</linearGradient>
<linearGradient id="paint21_linear_643_1330" x1="16.1445" y1="23.5239" x2="15.1194" y2="44.9376" gradientUnits="userSpaceOnUse">
<stop stop-color="#4F3C2B"/>
<stop offset="1" stop-color="#3B2D20"/>
</linearGradient>
<linearGradient id="paint22_linear_643_1330" x1="10.6164" y1="39.2699" x2="20.0564" y2="39.2699" gradientUnits="userSpaceOnUse">
<stop stop-color="#4F3C2B"/>
<stop offset="1" stop-color="#3B2D20"/>
</linearGradient>
<linearGradient id="paint23_linear_643_1330" x1="19.4133" y1="41.2886" x2="21.8232" y2="41.2886" gradientUnits="userSpaceOnUse">
<stop stop-color="#4F3C2B"/>
<stop offset="1" stop-color="#3B2D20"/>
</linearGradient>
<linearGradient id="paint24_linear_643_1330" x1="16.2052" y1="19.8621" x2="16.2052" y2="25.2058" gradientUnits="userSpaceOnUse">
<stop stop-color="#634C36"/>
<stop offset="1" stop-color="#5C4633"/>
</linearGradient>
<linearGradient id="paint25_linear_643_1330" x1="16.5068" y1="20.754" x2="15.0936" y2="23.5729" gradientUnits="userSpaceOnUse">
<stop stop-color="#634C36"/>
<stop offset="1" stop-color="#5C4633"/>
</linearGradient>
<linearGradient id="paint26_linear_643_1330" x1="15.9662" y1="21.1196" x2="14.5531" y2="23.9384" gradientUnits="userSpaceOnUse">
<stop stop-color="#4F3C2B"/>
<stop offset="1" stop-color="#3B2D20"/>
</linearGradient>
<linearGradient id="paint27_linear_643_1330" x1="27.8615" y1="56.1946" x2="27.8615" y2="53.5173" gradientUnits="userSpaceOnUse">
<stop stop-color="#4F3C2B"/>
<stop offset="1" stop-color="#3B2D20"/>
</linearGradient>
<linearGradient id="paint28_linear_643_1330" x1="12.4154" y1="55.6905" x2="12.4154" y2="53.1552" gradientUnits="userSpaceOnUse">
<stop stop-color="#4F3C2B"/>
<stop offset="1" stop-color="#3B2D20"/>
</linearGradient>
<linearGradient id="paint29_linear_643_1330" x1="10.687" y1="51.3137" x2="10.687" y2="48.6364" gradientUnits="userSpaceOnUse">
<stop stop-color="#4F3C2B"/>
<stop offset="1" stop-color="#3B2D20"/>
</linearGradient>
<linearGradient id="paint30_linear_643_1330" x1="30.1561" y1="51.6206" x2="30.1561" y2="48.9433" gradientUnits="userSpaceOnUse">
<stop stop-color="#4F3C2B"/>
<stop offset="1" stop-color="#3B2D20"/>
</linearGradient>
<linearGradient id="paint31_linear_643_1330" x1="40.4401" y1="51.689" x2="39.7746" y2="63.9688" gradientUnits="userSpaceOnUse">
<stop stop-color="#1CA698"/>
<stop offset="0.9972" stop-color="#118276"/>
</linearGradient>
<linearGradient id="paint32_linear_643_1330" x1="34.2364" y1="37.8306" x2="37.4419" y2="38.0754" gradientUnits="userSpaceOnUse">
<stop stop-color="#73573F"/>
<stop offset="1" stop-color="#4E3B2B"/>
</linearGradient>
<linearGradient id="paint33_linear_643_1330" x1="34.3804" y1="35.9406" x2="37.5866" y2="36.1855" gradientUnits="userSpaceOnUse">
<stop stop-color="#4F3C2B"/>
<stop offset="1" stop-color="#3B2D20"/>
</linearGradient>
<linearGradient id="paint34_linear_643_1330" x1="33.8152" y1="34.738" x2="35.826" y2="34.8916" gradientUnits="userSpaceOnUse">
<stop stop-color="#1CA698"/>
<stop offset="0.9972" stop-color="#118276"/>
</linearGradient>
<linearGradient id="paint35_linear_643_1330" x1="34.1101" y1="33.4727" x2="35.0452" y2="33.5441" gradientUnits="userSpaceOnUse">
<stop stop-color="#EDEDED"/>
<stop offset="0.5141" stop-color="#E9E9E9"/>
<stop offset="0.9955" stop-color="#DEDEDE"/>
</linearGradient>
<linearGradient id="paint36_linear_643_1330" x1="35.5083" y1="34.7757" x2="36.7208" y2="34.8683" gradientUnits="userSpaceOnUse">
<stop stop-color="#1CA698"/>
<stop offset="0.9972" stop-color="#118276"/>
</linearGradient>
<linearGradient id="paint37_linear_643_1330" x1="36.006" y1="32.8819" x2="36.8677" y2="32.9477" gradientUnits="userSpaceOnUse">
<stop stop-color="#EDEDED"/>
<stop offset="0.5141" stop-color="#E9E9E9"/>
<stop offset="0.9955" stop-color="#DEDEDE"/>
</linearGradient>
<radialGradient id="paint38_radial_643_1330" cx="0" cy="0" r="1" gradientUnits="userSpaceOnUse" gradientTransform="translate(38.7814 12.044) rotate(180) scale(34.1551 26.0398)">
<stop offset="0.0644196" stop-color="#F5FFDC"/>
<stop offset="1" stop-color="#F5FFDC" stop-opacity="0"/>
</radialGradient>
<linearGradient id="paint39_linear_643_1330" x1="51.8614" y1="9.79509" x2="24.5019" y2="9.79509" gradientUnits="userSpaceOnUse">
<stop stop-color="#1CA698"/>
<stop offset="0.9972" stop-color="#118276"/>
</linearGradient>
</defs>
</svg>
