<svg width="65" height="72" viewBox="0 0 65 72" fill="none" xmlns="http://www.w3.org/2000/svg">
<path d="M61.8901 39.5549C61.8901 39.8151 61.8901 40.0752 61.8727 40.3353C61.8727 40.4567 61.8727 40.5954 61.8554 40.7168C61.838 41.0116 61.8207 41.3064 61.8034 41.6012C61.6473 43.9942 61.1964 46.3179 60.4854 48.5029C60.3814 48.815 60.2773 49.1445 60.1733 49.4567C60.0346 49.8555 59.8785 50.2543 59.7224 50.6358C59.549 51.052 59.3756 51.4682 59.1849 51.8844C59.0982 52.0925 58.9941 52.3006 58.8901 52.4913C58.5259 53.2197 58.1444 53.9306 57.7282 54.6243C52.8034 62.8613 43.9768 68.4971 33.7803 68.9653C33.3294 68.9826 32.8786 69 32.4277 69C31.8728 69 31.3179 68.9826 30.763 68.948C30.2601 68.9133 29.7572 68.8786 29.2543 68.8266C20.7052 67.9075 13.2485 63.3468 8.4971 56.7052C8.32369 56.4798 8.16762 56.237 8.01155 56.0116C7.68207 55.5087 7.35259 55.0058 7.0578 54.5029C4.49133 50.0983 3 45 3 39.5549V39.5376C3 31.0925 6.57225 23.4798 12.2774 18.1215C17.5491 13.1619 24.6416 10.1273 32.445 10.1273C42.156 10.1273 50.7745 14.8267 56.1328 22.0926C59.7398 26.948 61.8901 33 61.8901 39.5549Z" fill="url(#paint0_linear_643_979)"/>
<path d="M61.8725 40.3352C61.8725 40.4566 61.8725 40.5953 61.8552 40.7167L59.0806 41.497L57.7974 41.8612L50.0806 44.0461L8.02871 55.9941C7.69923 55.4912 7.36975 54.9883 7.07495 54.4854L50.0633 43.3872L57.8147 41.3756L59.0806 41.0462L61.8725 40.3352Z" fill="#CCE39A"/>
<path d="M60.1733 49.4566C60.0346 49.8554 59.8785 50.2543 59.7224 50.6358L59.1848 51.0173L57.7109 52.0578L57.208 52.4219L33.7976 68.9652C33.3467 68.9826 32.8959 68.9999 32.445 68.9999C31.8901 68.9999 31.3352 68.9826 30.7803 68.9479L56.0808 52.1791L57.7109 51.104L59.1848 50.1329L60.1733 49.4566Z" fill="#CCE39A"/>
<path d="M61.8207 41.5838C61.6646 43.9769 61.2137 46.3006 60.5027 48.4856L59.1848 49.3353L57.7108 50.289L55.2831 51.867L29.2716 68.7919C20.7225 67.8728 13.2658 63.3121 8.5144 56.6705L50.1675 44.896L57.7802 42.7283L59.0981 42.3468L61.8207 41.5838Z" fill="url(#paint1_linear_643_979)"/>
<path d="M16.4046 34.63C16.4046 40.1098 13.4913 42.4682 9.76299 42.7283C9.52021 42.7456 9.27744 42.7456 9.03466 42.7456C8.79189 42.7456 8.54911 42.7283 8.30634 42.711C6.12137 42.5029 4.21386 41.3584 3.01733 39.5202C3.01733 31.0751 6.58958 23.4624 12.2948 18.1041C14.393 22.2832 16.4046 29.2023 16.4046 34.63Z" fill="url(#paint2_linear_643_979)"/>
<path d="M9.01739 22.8901C9.15612 24.1213 9.24282 25.3526 9.32953 26.5664C9.41623 27.7976 9.46826 29.0289 9.53762 30.2427C9.5723 31.4739 9.64167 32.7051 9.65901 33.919L9.69369 35.7572L9.71103 37.5953L9.72837 39.4335V41.2716V43.1098L9.71103 44.9479C9.67635 47.4103 9.62433 49.8554 9.4856 52.3178C9.46826 52.5779 9.24283 52.786 8.96537 52.7687C8.7226 52.7513 8.5145 52.5606 8.5145 52.3178C8.37577 49.8554 8.32375 47.4103 8.28907 44.9479L8.27173 43.1098V41.2716V39.4335L8.28907 37.5953L8.30641 35.7572L8.34109 33.919C8.35843 32.6878 8.4278 31.4566 8.46248 30.2427C8.53184 29.0115 8.58387 27.7803 8.67057 26.5664C8.79196 25.3526 8.87866 24.1213 9.01739 22.8901Z" fill="#136262"/>
<path d="M61.89 39.5549C61.89 39.815 61.89 40.0752 61.8727 40.3353C61.8727 40.4567 61.8727 40.5954 61.8554 40.7168C61.838 41.0116 61.8207 41.3064 61.8033 41.6012C61.6473 43.9942 61.1964 46.3179 60.4854 48.5029C60.3814 48.815 60.2773 49.1445 60.1733 49.4566C60.0346 49.8555 59.8785 50.2543 59.7224 50.6358C59.549 51.052 59.3756 51.4682 59.1848 51.8844V52.3006V52.4913C59.0808 52.4913 58.9941 52.5087 58.89 52.5087C58.7513 52.5087 58.5953 52.5087 58.4392 52.5087C58.1964 52.5087 57.9536 52.4913 57.7109 52.474C57.5375 52.4566 57.364 52.4393 57.208 52.422C56.8265 52.3699 56.445 52.2832 56.0808 52.1792C55.8034 52.1098 55.5432 52.0058 55.2831 51.9017C52.6299 50.8092 50.6357 48.3295 50.1675 44.896C50.1328 44.6185 50.0982 44.341 50.0808 44.0636C50.0635 43.8382 50.0635 43.6127 50.0635 43.3873C50.0635 43.3526 50.0635 43.3006 50.0635 43.2659C50.0635 35.8786 53.2369 26.0636 56.1328 22.0752C59.7398 26.948 61.89 33 61.89 39.5549Z" fill="#1CA698"/>
<path d="M59.1847 49.3524V51.0171V51.8842V52.3003V52.4911C59.0806 52.4911 58.9939 52.5084 58.8899 52.5084C58.5257 53.2368 58.1442 53.9477 57.728 54.6414C57.728 54.5547 57.728 54.4853 57.728 54.3986L57.7107 52.4911V52.3177V52.0749V51.1038V50.2368V48.1558L57.728 46.0749L57.7454 43.994L57.7627 42.7454L57.7801 41.9131V41.8611C57.7801 41.705 57.7801 41.5316 57.7974 41.3755C57.8147 40.1616 57.8668 38.9651 57.9188 37.7512C57.9708 36.364 58.0402 34.9767 58.1269 33.5894C58.2136 32.2021 58.3003 30.8148 58.439 29.4276C58.5777 30.8148 58.6644 32.2021 58.7512 33.5894C58.8379 34.9767 58.8899 36.364 58.9592 37.7512C58.9939 38.8437 59.0286 39.9535 59.0633 41.046C59.0633 41.1848 59.0633 41.3408 59.0806 41.4969C59.0806 41.6356 59.0806 41.7743 59.0806 41.9131L59.098 42.3639L59.1327 43.994L59.15 46.0749L59.1673 48.1558L59.1847 49.3524Z" fill="#136262"/>
<path d="M40.4219 26.0462C40.4219 30.5028 39.1214 33.3641 37.1271 34.9421C36.9537 35.0809 36.763 35.2196 36.5722 35.341C36.0693 35.6531 35.5491 35.9132 34.9942 36.104C34.7167 36.1907 34.4393 36.2774 34.1618 36.3294C33.5375 36.4681 32.8786 36.5375 32.2196 36.5375C27.6936 36.5375 24.0173 32.445 24.0173 26.0635C24.0173 15.3121 29.1329 0 32.2196 0C34.1792 0 37.1792 6.81502 38.9653 14.5318C38.9826 14.5664 38.9826 14.6185 39 14.6531C39.867 18.4855 40.4219 22.5086 40.4219 26.0462Z" fill="url(#paint3_linear_643_979)"/>
<path d="M32.2195 13.9597C32.3583 15.3123 32.445 16.6649 32.5317 18.0175C32.6184 19.3701 32.6704 20.7227 32.7398 22.0753C32.7745 23.4279 32.8438 24.7805 32.8612 26.1331L32.8958 28.162L32.9132 30.1909L32.9305 32.2198V34.2487V36.2776L32.9132 38.3065C32.8785 41.0117 32.8265 43.7342 32.6877 46.4394C32.6704 46.6995 32.445 46.9076 32.1849 46.9076C31.9421 46.8903 31.734 46.6995 31.7167 46.4394C31.5779 43.7342 31.5259 41.0117 31.4912 38.3065L31.4739 36.2776V34.2487V32.2198L31.4912 30.1909L31.5086 28.162L31.5432 26.1331C31.5606 24.7805 31.6299 23.4279 31.6646 22.0753C31.734 20.7227 31.786 19.3701 31.8727 18.0175C31.9941 16.6649 32.0808 15.3123 32.2195 13.9597Z" fill="#136262"/>
<path d="M25.9421 26.4972C28.4896 26.4972 30.5548 24.432 30.5548 21.8845C30.5548 19.337 28.4896 17.2718 25.9421 17.2718C23.3945 17.2718 21.3293 19.337 21.3293 21.8845C21.3293 24.432 23.3945 26.4972 25.9421 26.4972Z" fill="#22BCAA"/>
<path d="M25.9421 21.8842C25.9941 22.4738 26.0288 23.0634 26.0808 23.6357C26.1328 24.2253 26.1675 24.8149 26.2022 25.3871L26.3236 27.1386L26.3756 28.023C26.3929 28.3178 26.4103 28.5779 26.4623 28.838C26.5143 29.0981 26.5837 29.3235 26.6877 29.4449C26.7398 29.5143 26.7918 29.549 26.8611 29.5837C26.8958 29.601 26.9305 29.6183 26.9825 29.6357L27.0519 29.653L27.1386 29.6704C27.3467 29.7224 27.6241 29.7224 27.9016 29.7397C28.1791 29.7397 28.4739 29.7397 28.7513 29.7397C29.9132 29.7397 31.075 29.705 32.2369 29.7571C32.6184 29.7744 32.9132 30.1039 32.8958 30.4854C32.8785 30.8495 32.5837 31.127 32.2369 31.1443C31.0577 31.1964 29.8785 31.1443 28.6993 31.0576C28.4045 31.0403 28.1097 31.0056 27.7976 30.9709C27.4854 30.9363 27.1733 30.8842 26.8265 30.7802L26.6877 30.7282C26.6357 30.7108 26.601 30.6935 26.549 30.6588C26.4623 30.6241 26.3583 30.5547 26.2715 30.5027C26.1848 30.4334 26.0981 30.364 26.0114 30.2946C25.9421 30.2079 25.8554 30.1212 25.8207 30.0345C25.5952 29.6704 25.5432 29.3062 25.5259 28.9767C25.4912 28.6472 25.5085 28.3351 25.5259 28.0403L25.5779 27.1559L25.6993 25.4045C25.734 24.8149 25.7687 24.2253 25.8207 23.653C25.8554 23.0634 25.89 22.4738 25.9421 21.8842Z" fill="#136262"/>
<path opacity="0.2" d="M38.9825 14.6703C37.023 18.2599 35.1328 24.6761 35.1328 29.653C35.1328 31.89 35.8958 33.6934 37.127 34.942C36.9536 35.0807 36.7629 35.2194 36.5721 35.3408C36.0692 35.653 35.1155 36.0345 34.5606 36.2252C31.9941 31.8206 33.26 20.9651 38.9305 14.549C39.0172 14.4449 39.1039 14.3409 39.208 14.2368C39.1559 14.3755 39.0692 14.5143 38.9825 14.6703Z" fill="#136262"/>
<path d="M47.098 29.6532C47.098 34.7688 44.2021 36.7803 40.6298 36.7803C40.5258 36.7803 40.4391 36.7803 40.335 36.7803C36.9015 36.6243 34.1616 33.8844 34.1616 29.6705C34.1616 24.4856 36.1905 17.7226 38.2541 14.2544C39.0865 12.8324 39.9362 11.9654 40.6298 11.9654C42.9535 11.948 47.098 22.3526 47.098 29.6532Z" fill="url(#paint4_linear_643_979)"/>
<path d="M40.6301 19.0059C40.8902 21.1215 41.0462 23.2544 41.1503 25.37C41.2543 27.4856 41.3237 29.6186 41.341 31.7342C41.3757 33.8498 41.3757 35.9827 41.341 38.0983C41.3064 40.2139 41.2543 42.3469 41.1156 44.4625C41.0983 44.7226 40.8728 44.9307 40.5954 44.9133C40.3526 44.896 40.1619 44.7052 40.1445 44.4625C40.0058 42.3469 39.9538 40.2139 39.9191 38.0983C39.8844 35.9827 39.8844 33.8498 39.9191 31.7342C39.9364 29.6186 40.0058 27.4856 40.1098 25.37C40.2139 23.2371 40.3699 21.1215 40.6301 19.0059Z" fill="#136262"/>
<circle cx="32.5" cy="39.5" r="32" stroke="#D9F2A5"/>
<defs>
<linearGradient id="paint0_linear_643_979" x1="36.9162" y1="8.76892" x2="26.4384" y2="80.8567" gradientUnits="userSpaceOnUse">
<stop stop-color="#D9F2A5"/>
<stop offset="1" stop-color="#89B06B"/>
</linearGradient>
<linearGradient id="paint1_linear_643_979" x1="35.2854" y1="40.6846" x2="34.9279" y2="65.4382" gradientUnits="userSpaceOnUse">
<stop offset="0.1896" stop-color="#EDEDED"/>
<stop offset="1" stop-color="#BFBFBF"/>
</linearGradient>
<linearGradient id="paint2_linear_643_979" x1="10.4296" y1="19.4957" x2="9.61944" y2="38.9401" gradientUnits="userSpaceOnUse">
<stop offset="0.1705" stop-color="#34C2AF"/>
<stop offset="1" stop-color="#1CA698"/>
</linearGradient>
<linearGradient id="paint3_linear_643_979" x1="32.2225" y1="2.36401" x2="32.2225" y2="29.2481" gradientUnits="userSpaceOnUse">
<stop stop-color="#34C2AF"/>
<stop offset="1" stop-color="#1CA698"/>
</linearGradient>
<linearGradient id="paint4_linear_643_979" x1="46.481" y1="19.8863" x2="36.7918" y2="29.1661" gradientUnits="userSpaceOnUse">
<stop offset="0.1705" stop-color="#34C2AF"/>
<stop offset="1" stop-color="#1CA698"/>
</linearGradient>
</defs>
</svg>
