<svg width="65" height="65" viewBox="0 0 65 65" fill="none" xmlns="http://www.w3.org/2000/svg">
<path d="M61.4708 32.445C61.4708 36.6762 60.5691 40.6993 58.9737 44.3236C58.6269 45.104 58.2454 45.867 57.8292 46.6126C57.7599 46.7514 57.6731 46.8901 57.6038 47.0288C57.3957 47.393 57.1702 47.7571 56.9448 48.1213C56.4766 48.867 55.9737 49.5953 55.4362 50.2889C54.6385 51.3294 53.7714 52.3005 52.8523 53.2196C52.8177 53.2542 52.8003 53.2716 52.7656 53.3063C52.7309 53.3409 52.6963 53.3756 52.6443 53.4276C47.3379 58.6126 40.0894 61.8207 32.0952 61.8207C24.6212 61.8207 17.7888 59.0288 12.6039 54.4161L12.5865 54.3987C12.5692 54.3814 12.5345 54.3641 12.5172 54.3294C11.5807 53.4797 10.679 52.5779 9.86397 51.6242C9.79461 51.5548 9.74259 51.4855 9.67323 51.3987C9.63854 51.3467 9.58653 51.312 9.55185 51.26C9.41312 51.1039 9.29172 50.9305 9.153 50.7745C9.03161 50.6184 8.91023 50.4623 8.78884 50.3063C8.04317 49.3352 7.36687 48.3294 6.74259 47.2716C4.99115 44.2889 3.75995 40.9941 3.13567 37.4566C2.85822 35.8092 2.70215 34.1271 2.70215 32.393C2.70215 16.1618 15.864 3 32.0952 3C48.3263 3.05202 61.4708 16.2138 61.4708 32.445Z" fill="url(#paint0_linear_643_1264)"/>
<path d="M11.0257 35.1156C11.0257 35.1156 11.0257 35.133 11.0257 35.1156C10.9737 35.4104 9.20489 35.6359 7.03726 35.6359C4.83495 35.6359 3.04883 35.4104 3.04883 35.1156C3.04883 34.8382 4.83495 34.5954 7.03726 34.5954C9.23957 34.5954 11.0257 34.8382 11.0257 35.1156Z" fill="#0E423F"/>
<path d="M11.0259 35.1329L10.523 41.1849L10.419 42.3467L10.3843 42.867L10.367 43.1791L9.67333 51.4508C9.63864 51.3987 9.58663 51.3641 9.55195 51.312C9.41322 51.156 9.29182 50.9826 9.1531 50.8265C9.03171 50.6704 8.91033 50.5144 8.78894 50.3583C8.04327 49.3872 7.36697 48.3814 6.74269 47.3236C4.99125 44.341 3.76005 41.0462 3.13577 37.5086C3.10109 36.052 3.06641 35.1155 3.06641 35.1155C3.06641 35.393 4.85253 35.6358 7.05484 35.6358C9.20512 35.6358 10.9739 35.4103 11.0259 35.1329Z" fill="url(#paint1_linear_643_1264)"/>
<path d="M31.0721 31.9942C31.1068 31.7167 31.1068 31.4393 31.0894 31.1445C31.0894 31.0925 31.0894 31.0231 31.0721 30.9711L30.916 28.7688C30.8987 28.4219 31.1761 28.1098 31.523 28.1098H34.731C35.0779 28.1098 35.3553 28.4046 35.338 28.7514L35.2166 30.6589L35.1993 31.0404C35.1819 31.3179 35.1819 31.6127 35.2166 31.8901L35.39 33.8323H30.8813L31.0721 31.9942Z" fill="url(#paint2_linear_643_1264)"/>
<path d="M31.2975 32.237C31.3669 31.7514 31.3322 31.2659 31.2975 30.7977C31.2628 30.3121 31.2281 29.8439 31.1761 29.3584C31.1588 29.237 31.1588 29.1156 31.1761 28.9769C31.1934 28.8555 31.2108 28.6994 31.3148 28.578C31.3669 28.5087 31.4362 28.474 31.5056 28.4393C31.5749 28.4046 31.6443 28.3873 31.7137 28.3873C31.8524 28.3699 31.9738 28.3699 32.0952 28.3699C32.5807 28.3699 33.0663 28.3352 33.5518 28.4913C33.0663 28.6474 32.5807 28.6127 32.0952 28.6127C31.9738 28.6127 31.8524 28.6127 31.7484 28.6127C31.6443 28.63 31.5576 28.6647 31.5056 28.7167C31.4015 28.8381 31.4015 29.0982 31.4015 29.341C31.4362 29.8266 31.4535 30.3121 31.4535 30.7977C31.4535 31.0404 31.4362 31.2832 31.4189 31.526C31.3842 31.7688 31.3669 32.0115 31.2975 32.237Z" fill="#8E684C"/>
<path opacity="0.12" d="M35.39 33.8496H30.8813L31.0721 31.9941C31.1068 31.7166 31.1068 31.4392 31.0894 31.1444C31.8178 31.6993 34.3322 31.5432 35.2166 30.6762L35.1993 31.0577C35.1819 31.3351 35.1819 31.6299 35.2166 31.9074L35.39 33.8496Z" fill="url(#paint3_linear_643_1264)"/>
<path d="M13.1415 52.2137L12.6212 48.7109L12.5692 48.312C12.4825 47.7398 12.4131 47.1155 12.3784 46.4912L12.3264 45.6588L13.4709 40.5086V40.4912C13.1415 39.4334 11.8582 39.8843 11.2339 40.5432L10.523 41.1849L7.26285 44.1155C6.7773 44.549 6.46518 45.6415 6.60391 46.4739L6.74262 47.3236C7.3669 48.3814 8.0432 49.3872 8.78887 50.3583C8.91026 50.5143 9.03164 50.6704 9.15303 50.8265C9.27441 50.9825 9.41315 51.1559 9.55188 51.312C9.58656 51.364 9.62123 51.3987 9.67326 51.4507C9.74262 51.5201 9.79464 51.6068 9.864 51.6762C10.6964 52.6299 11.5808 53.5317 12.5172 54.3814C12.5345 54.3987 12.5692 54.416 12.5866 54.4507C12.5866 54.4507 12.5865 54.4681 12.6039 54.4681L13.3149 53.5837L13.2975 53.4103L13.1415 52.2137Z" fill="url(#paint4_linear_643_1264)"/>
<path d="M14.6674 51.9015L13.2974 53.5663L12.5691 54.4333C12.5518 54.416 12.5171 54.3986 12.4997 54.364C11.5633 53.5143 10.6616 52.6125 9.84655 51.6588C9.77719 51.5894 9.72517 51.52 9.6558 51.4333C9.62112 51.3813 9.56911 51.3466 9.53442 51.2946C9.3957 51.1385 9.2743 50.9651 9.13557 50.8091C9.01419 50.653 8.8928 50.4969 8.77142 50.3409L8.11245 46.1443C7.97372 45.312 8.28587 44.2368 8.77142 43.7859L10.4015 42.312L12.7425 40.2137C13.0373 39.9536 13.2974 40.075 13.4535 40.4565V40.4738C13.5055 40.6125 13.5402 40.8033 13.5575 41.0114L13.835 45.312L13.887 46.1443C13.9217 46.7686 13.9911 47.3755 14.0778 47.9651L14.1471 48.4507L14.6153 51.6414L14.6674 51.9015Z" fill="url(#paint5_linear_643_1264)"/>
<path d="M10.7483 42.6416C10.6269 42.8324 10.4882 43.0058 10.3494 43.1618C10.1414 43.4219 9.91593 43.6474 9.70783 43.8902C9.36101 44.289 9.03152 44.6705 8.91013 45.1387L8.87546 45.3121C8.85812 45.3641 8.85812 45.4335 8.85812 45.4855C8.84078 45.6069 8.84078 45.7456 8.84078 45.867C8.84078 46.1271 8.85811 46.3873 8.89279 46.6474C8.94482 47.1676 9.03153 47.7052 9.13557 48.2427C9.1876 48.5029 9.22229 48.7803 9.27431 49.0578L9.37835 49.8555C9.44772 50.341 9.51707 50.8266 9.5691 51.3121C9.43037 51.156 9.30897 50.9826 9.17025 50.8266L8.99684 49.9248L8.84078 49.1271L8.68471 48.3294C8.58066 47.7919 8.45926 47.2543 8.3899 46.7167C8.35522 46.4393 8.33789 46.1618 8.33789 45.8844C8.33789 45.7456 8.33789 45.6069 8.35523 45.4508C8.35523 45.3815 8.37256 45.2948 8.37256 45.2254L8.4246 45C8.59801 44.4104 8.9795 43.9422 9.39569 43.5607C9.60378 43.3699 9.82922 43.2139 10.0547 43.0578C10.1587 42.9884 10.2801 42.9191 10.4015 42.8497C10.5055 42.7803 10.6269 42.711 10.7483 42.6416Z" fill="#664B35"/>
<path opacity="0.12" d="M14.6675 51.9015L13.2975 53.5662L12.5866 54.4506L12.5692 54.4333C12.5519 54.4159 12.5172 54.3986 12.4999 54.3639C11.5634 53.5142 10.6617 52.6125 9.84668 51.6587C10.2282 50.705 10.8178 49.8552 11.7542 49.1963C12.049 48.9882 12.3438 48.8321 12.6386 48.7107C13.1761 48.5026 13.6964 48.4333 14.1819 48.4853L14.6502 51.676L14.6675 51.9015Z" fill="url(#paint6_linear_643_1264)"/>
<path d="M23.5806 39.5375L23.2511 37.2312L23.2164 36.9711C23.1644 36.5896 23.1124 36.1907 23.0951 35.7745L23.0604 35.2196L23.8234 31.8381C23.8234 31.8381 23.8234 31.8381 23.8234 31.8208C23.6153 31.1271 22.7656 31.4219 22.3494 31.8555L19.7309 34.2138C19.4188 34.4913 19.2107 35.2196 19.2974 35.7572L19.5748 37.4913L19.8176 39.104C19.8349 39.1907 19.8523 39.2774 19.8523 39.3815C19.9043 39.815 19.9563 40.2485 19.9737 40.7167L20.0257 41.7051L20.1124 43.7514C20.1124 44.0462 20.1124 44.5144 20.0951 44.7745C20.0951 44.8786 20.0951 44.9306 20.0951 44.9306L23.702 40.4393L23.6847 40.2138L23.5806 39.5375Z" fill="url(#paint7_linear_643_1264)"/>
<path d="M24.5865 39.3295L23.6847 40.422L21.1009 43.526L21.0142 41.4798L20.9622 40.4913C20.9448 40.0231 20.8928 39.5896 20.8408 39.1561C20.8235 39.0694 20.8235 38.9827 20.8061 38.8786L20.2859 35.5491C20.1992 35.0116 20.4073 34.2832 20.7194 34.0058L23.3379 31.6474C23.5287 31.474 23.7021 31.5607 23.8061 31.8208C23.8061 31.8208 23.8061 31.8208 23.8061 31.8382C23.8408 31.9422 23.8581 32.0463 23.8755 32.2023L24.0489 35.0289L24.0836 35.5838C24.1182 36 24.1529 36.3988 24.205 36.7803L24.257 37.0925L24.5865 39.3295Z" fill="url(#paint8_linear_643_1264)"/>
<path d="M22.02 33.2602C21.6731 33.9365 21.0662 34.3526 20.8754 34.9249C20.8581 34.9943 20.8408 35.0636 20.8408 35.133C20.8408 35.2024 20.8234 35.2891 20.8408 35.3758C20.8408 35.5492 20.8581 35.7052 20.8754 35.8787C20.9101 36.2255 20.9621 36.5723 21.0315 36.9191C21.0662 37.0925 21.0835 37.2659 21.1182 37.4567L21.1876 37.9943C21.2396 38.3411 21.2743 38.7052 21.309 39.0521C21.3783 39.763 21.413 40.4914 21.3436 41.2023C21.2916 40.4914 21.1529 39.7977 21.0315 39.1041C20.8928 38.4104 20.754 37.6995 20.6153 37.0232C20.5459 36.6763 20.4592 36.3295 20.4246 35.948C20.4072 35.7573 20.3899 35.5839 20.3899 35.3931C20.3899 35.2891 20.3899 35.2024 20.3899 35.0983C20.3899 34.9943 20.4246 34.8902 20.4419 34.7862C20.5633 34.37 20.8234 34.0405 21.1009 33.8151C21.3436 33.555 21.6558 33.3815 22.02 33.2602Z" fill="#664B35"/>
<path opacity="0.12" d="M24.5866 39.3296L23.6849 40.422L20.0779 44.9134C20.0779 44.9134 20.0953 44.1504 20.0953 43.7342L19.9912 41.6879C20.4074 41.9481 20.8236 41.7746 20.997 41.4798C21.049 39.9885 21.3438 38.4972 22.6617 37.5434C22.8525 37.4047 23.0432 37.3007 23.234 37.214C23.5808 37.0752 23.9276 37.0232 24.2398 37.0579L24.5866 39.3296Z" fill="url(#paint9_linear_643_1264)"/>
<path d="M58.7828 44.1155L54.7944 40.5432C54.1701 39.8843 52.8869 39.4334 52.5574 40.4912V40.5086L53.7019 45.6588L53.6498 46.4912C53.6152 47.1155 53.5458 47.7224 53.4591 48.312L53.4071 48.7109L52.9042 52.2137L52.8002 53.1675L52.7828 53.3409C52.8175 53.3062 52.8522 53.2889 52.8695 53.2542C53.7886 52.3351 54.6556 51.3467 55.4533 50.3236C55.9909 49.6299 56.4938 48.9016 56.962 48.1559C57.1874 47.7918 57.4128 47.4276 57.6209 47.0635C57.6903 46.9247 57.777 46.786 57.8464 46.6473C58.2626 45.9016 58.6441 45.1386 58.9909 44.3583C58.9215 44.2542 58.8522 44.1675 58.7828 44.1155Z" fill="url(#paint10_linear_643_1264)"/>
<path d="M57.9157 46.1618L57.8464 46.63C57.777 46.7687 57.6903 46.9075 57.6209 47.0462C57.4128 47.4104 57.1874 47.7745 56.962 48.1387C56.4938 48.8843 55.9909 49.6127 55.4533 50.3063C54.6556 51.3468 53.7886 52.3179 52.8695 53.2369C52.8348 53.2716 52.8175 53.289 52.7828 53.3236C52.7481 53.3583 52.7134 53.393 52.6614 53.445L51.3782 51.9017L51.4475 51.4335L51.8811 48.4682L51.9504 47.9826C52.0371 47.4104 52.1065 46.7861 52.1412 46.1618L52.1932 45.3294L52.4707 41.0289C52.488 40.8208 52.5227 40.63 52.5747 40.4913V40.474C52.7308 40.0925 52.9909 39.9711 53.2857 40.2312L57.2741 43.8034C57.725 44.237 58.0371 45.3294 57.9157 46.1618Z" fill="url(#paint11_linear_643_1264)"/>
<path d="M57.7078 45.867C57.7078 46.1444 57.6731 46.4219 57.6558 46.6993C57.6384 46.8034 57.6211 46.9248 57.6037 47.0288C57.3956 47.393 57.1702 47.7571 56.9448 48.1213C57.0315 47.6184 57.1182 47.1329 57.1702 46.63C57.2049 46.3699 57.2222 46.1098 57.2222 45.8496C57.2222 45.7282 57.2222 45.5895 57.2049 45.4681C57.1875 45.4161 57.1875 45.3467 57.1875 45.2947L57.1529 45.1213C57.0141 44.6531 56.6846 44.2716 56.3378 43.8728C55.991 43.4739 55.5922 43.0924 55.28 42.6242C55.5228 42.7456 55.7656 42.8843 55.991 43.0404C56.2164 43.1965 56.4419 43.3525 56.65 43.5433C57.0662 43.9074 57.4477 44.393 57.6211 44.9826L57.6731 45.208C57.6904 45.2774 57.6904 45.3641 57.7078 45.4334C57.7078 45.5895 57.7078 45.7282 57.7078 45.867Z" fill="#664B35"/>
<path opacity="0.12" d="M55.436 50.3063C54.6383 51.3468 53.7712 52.3179 52.8522 53.237C52.8175 53.2716 52.8001 53.289 52.7655 53.3237C52.7308 53.3583 52.6961 53.393 52.6441 53.4451L51.3608 51.9017L51.4302 51.4335L51.8637 48.4682C52.3493 48.4162 52.8695 48.4855 53.4071 48.6936C53.7019 48.815 53.9967 48.9711 54.2915 49.1792C54.7423 49.526 55.1238 49.9075 55.436 50.3063Z" fill="url(#paint12_linear_643_1264)"/>
<path d="M46.3146 34.2139L43.6962 31.8555C43.28 31.422 42.4476 31.1272 42.2222 31.8209C42.2222 31.8209 42.2222 31.8209 42.2222 31.8382L42.9852 35.2197L42.9505 35.7746C42.9158 36.1908 42.8811 36.5896 42.8291 36.9711L42.7944 37.2313L42.5863 38.6185L42.4476 39.5203L42.3956 39.9711L42.3435 40.422L45.9505 44.9133C45.9505 44.9133 45.9505 44.8266 45.9505 44.6879C45.9505 44.6532 45.9505 44.6185 45.9505 44.5665C45.9505 44.5318 45.9505 44.5145 45.9505 44.4798C45.9505 44.237 45.9331 43.9422 45.9331 43.7341L46.0372 41.6879L46.0892 40.6995C46.1065 40.2313 46.1586 39.7977 46.2106 39.3642C46.2279 39.2775 46.2279 39.1908 46.2453 39.0867L46.6788 36.2775L46.7655 35.7573C46.8349 35.2024 46.6441 34.4914 46.3146 34.2139Z" fill="url(#paint13_linear_643_1264)"/>
<path d="M41.4419 39.3295L42.3436 40.422L44.9274 43.526L45.0141 41.4798L45.0661 40.4913C45.0835 40.0231 45.1355 39.5896 45.1875 39.1561C45.2049 39.0694 45.2049 38.9827 45.2222 38.8786L45.7425 35.5491C45.8292 35.0116 45.6211 34.2832 45.3089 34.0058L42.6904 31.6474C42.4997 31.474 42.3263 31.5607 42.2222 31.8208C42.2222 31.8208 42.2222 31.8208 42.2222 31.8382C42.1876 31.9422 42.1702 32.0463 42.1529 32.2023L41.9795 35.0289L41.9448 35.5838C41.9101 36 41.8754 36.3988 41.8234 36.7803L41.7714 37.0925L41.4419 39.3295Z" fill="url(#paint14_linear_643_1264)"/>
<path d="M44.0256 33.2602C44.3898 33.3989 44.702 33.555 44.9967 33.7977C45.2915 34.0405 45.5343 34.37 45.6557 34.7688C45.673 34.8729 45.7077 34.9769 45.7077 35.081C45.7077 35.185 45.7077 35.2717 45.7077 35.3758C45.7077 35.5665 45.6904 35.7573 45.673 35.9307C45.621 36.2948 45.5516 36.6417 45.4823 37.0058C45.3436 37.6821 45.2048 38.3931 45.0661 39.0867C44.9274 39.7804 44.806 40.474 44.754 41.185C44.6673 40.474 44.7193 39.7457 44.7886 39.0347C44.8233 38.6706 44.858 38.3237 44.91 37.9769L44.9794 37.4393C44.9967 37.2659 45.0314 37.0752 45.0661 36.9018C45.1181 36.555 45.1875 36.2081 45.2222 35.8613C45.2395 35.6879 45.2569 35.5145 45.2569 35.3584C45.2569 35.2717 45.2569 35.185 45.2569 35.1156C45.2569 35.0463 45.2395 34.9769 45.2222 34.9076C44.9794 34.3526 44.3725 33.9365 44.0256 33.2602Z" fill="#664B35"/>
<path opacity="0.12" d="M41.4419 39.3296L42.3436 40.422L45.9506 44.9134C45.9506 44.9134 45.9332 44.1504 45.9332 43.7342L46.0373 41.6879C45.6211 41.9481 45.2049 41.7746 45.0315 41.4798C44.9795 39.9885 44.6847 38.4972 43.3667 37.5434C43.176 37.4047 42.9852 37.3007 42.7945 37.214C42.4477 37.0752 42.1009 37.0232 41.7887 37.0579L41.4419 39.3296Z" fill="url(#paint15_linear_643_1264)"/>
<path d="M52.8523 53.2543C52.8176 53.289 52.8002 53.3063 52.7656 53.341C52.7309 53.3757 52.6962 53.4104 52.6442 53.4624C47.3378 58.6473 40.0893 61.8554 32.0951 61.8554C24.6211 61.8554 17.7888 59.0635 12.6038 54.4508L12.5865 54.4335C12.5691 54.4161 12.5344 54.3988 12.5171 54.3641L13.2801 53.393L14.6327 51.6589L20.0778 44.7398L21.1009 43.4393L23.6674 40.1792L24.0315 39.711L24.5518 39.0347L28.7483 33.711H37.5055L41.5286 38.8092L41.7367 39.0693L42.413 39.919L44.9621 43.1445L45.9679 44.4104L51.4476 51.3815L52.8003 53.0982L52.8523 53.2543Z" fill="url(#paint16_linear_643_1264)"/>
<path d="M31.4707 45.3814C31.4707 45.7456 32.3204 46.023 33.3782 46.023C34.436 46.023 35.2857 45.7282 35.2857 45.3814L35.7539 42.3814H31.0024L31.4707 45.3814Z" fill="url(#paint17_linear_643_1264)"/>
<path d="M35.7539 42.3813C35.7539 42.5721 35.5631 42.7455 35.2337 42.8842C34.8001 43.075 34.1238 43.179 33.3782 43.179C32.6325 43.179 31.9562 43.0576 31.5227 42.8842C31.1932 42.7455 31.0024 42.5721 31.0024 42.3813C31.0024 41.9305 32.0603 41.5836 33.3782 41.5836C34.6961 41.5836 35.7539 41.9305 35.7539 42.3813Z" fill="url(#paint18_linear_643_1264)"/>
<path d="M35.2337 42.884C34.8002 43.0748 34.1239 43.1788 33.3782 43.1788C32.6325 43.1788 31.9562 43.0574 31.5227 42.884C31.7655 42.4505 32.4938 42.1383 33.3782 42.1383C34.2626 42.1383 34.9909 42.4505 35.2337 42.884Z" fill="#136262"/>
<path d="M34.4014 41.1849C34.5228 42.3467 34.0373 42.867 33.361 42.9363C32.6847 43.0057 32.0951 42.6069 31.9564 41.445C31.835 40.2832 31.9564 37.9248 32.8061 37.8207C33.6385 37.734 34.2801 40.0057 34.4014 41.1849Z" fill="url(#paint19_linear_643_1264)"/>
<path d="M33.1355 42.9883C32.9274 42.8842 32.806 42.6761 32.7193 42.4854C32.6326 42.2773 32.5632 42.0692 32.5285 41.8438C32.4418 41.4102 32.4072 40.9594 32.3898 40.5258C32.3725 40.0923 32.3725 39.6414 32.4071 39.2079C32.4418 38.7744 32.4765 38.3235 32.6673 37.9073C32.5979 38.1154 32.5806 38.3409 32.5632 38.549C32.5459 38.7744 32.5285 38.9825 32.5459 39.2079C32.5459 39.6414 32.5459 40.075 32.5806 40.5085C32.5979 40.942 32.6326 41.3755 32.6846 41.8091C32.7193 42.0172 32.754 42.2426 32.8233 42.4334C32.858 42.6414 32.9621 42.8495 33.1355 42.9883Z" fill="#136262"/>
<path d="M33.1702 37.9421C33.4129 38.3063 33.5517 38.7225 33.6731 39.1386C33.7944 39.5548 33.8811 39.9883 33.9505 40.4045C34.0199 40.8381 34.0892 41.2542 34.0892 41.7051C34.0892 41.9305 34.0719 42.1386 34.0199 42.3641C33.9679 42.5722 33.8811 42.7976 33.7077 42.9363C33.8465 42.7802 33.8985 42.5548 33.9332 42.3467C33.9679 42.1386 33.9679 41.9305 33.9505 41.7051C33.9158 41.2889 33.8465 40.8554 33.7771 40.4392C33.7077 40.023 33.621 39.5895 33.5343 39.1733C33.4823 38.9652 33.4303 38.7571 33.3783 38.549C33.3262 38.341 33.2569 38.1329 33.1702 37.9421Z" fill="#136262"/>
<path d="M32.9099 37.8725C33.0313 38.2887 33.118 38.7048 33.2047 39.1384C33.2914 39.5545 33.3434 39.9881 33.4128 40.4216C33.4648 40.8551 33.5169 41.2713 33.5515 41.7048C33.5689 42.1384 33.6036 42.5719 33.5168 43.0054C33.5342 42.7973 33.5169 42.5719 33.4822 42.3638C33.4648 42.1557 33.4475 41.9303 33.4128 41.7222L33.2394 40.4389L33.0833 39.1557L32.9966 38.5141C32.9793 38.2887 32.9446 38.0806 32.9099 37.8725Z" fill="#136262"/>
<path d="M33.3263 42.9882C33.1529 42.5894 33.0835 42.1558 33.0142 41.7397C32.9448 41.3061 32.9101 40.8899 32.8581 40.4564C32.8234 40.0229 32.7887 39.6067 32.7887 39.1732C32.7714 38.7397 32.7714 38.3061 32.8061 37.89C32.8234 38.098 32.8408 38.3235 32.8581 38.5316L32.9101 39.1732L33.0315 40.4564L33.1356 41.7397C33.1529 41.9477 33.1702 42.1732 33.2049 42.3813C33.2396 42.5547 33.2743 42.7801 33.3263 42.9882Z" fill="#136262"/>
<path d="M33.6729 41.7224C33.4648 42.2426 33.7422 42.5894 34.1931 42.7455C34.644 42.9016 35.0601 42.8495 35.2682 42.3293C35.4763 41.8091 35.6151 40.6819 35.0775 40.4738C34.5226 40.2657 33.881 41.2021 33.6729 41.7224Z" fill="url(#paint20_linear_643_1264)"/>
<path d="M34.3318 42.8148C34.5399 42.7454 34.6612 42.5547 34.748 42.3813C34.8347 42.1905 34.8867 41.9824 34.9561 41.7917C35.0081 41.5836 35.0601 41.3755 35.1121 41.1847C35.1468 40.9766 35.1988 40.7685 35.1815 40.5605C35.2682 40.7685 35.2682 40.994 35.2508 41.2021C35.2335 41.4275 35.1815 41.6356 35.1295 41.8437C35.0601 42.0518 34.9907 42.2599 34.8867 42.4506C34.8347 42.5547 34.7653 42.6414 34.6612 42.7107C34.5572 42.7801 34.4358 42.8321 34.3318 42.8148Z" fill="#136262"/>
<path d="M34.8174 40.4565C34.6787 40.6126 34.5746 40.786 34.4706 40.9768C34.3665 41.1502 34.2798 41.3409 34.1758 41.5317C34.0891 41.7224 34.0024 41.9132 33.933 42.1039C33.881 42.2947 33.8289 42.5028 33.9503 42.6935C33.8636 42.6242 33.8116 42.5201 33.7943 42.4161C33.7769 42.312 33.7769 42.1906 33.7943 42.0866C33.8289 41.8612 33.9157 41.6704 34.0197 41.4797C34.1237 41.2889 34.2278 41.0982 34.3492 40.9247C34.4879 40.734 34.6266 40.5606 34.8174 40.4565Z" fill="#136262"/>
<path d="M34.9909 40.474C34.8522 40.8555 34.7134 41.237 34.54 41.6185L34.2973 42.1734C34.2279 42.3642 34.1239 42.5376 34.0892 42.7457C34.0545 42.5376 34.1239 42.3295 34.1759 42.1214C34.2279 41.9307 34.3146 41.7226 34.384 41.5318C34.4707 41.3411 34.5574 41.1503 34.6441 40.9769C34.7481 40.8035 34.8522 40.6301 34.9909 40.474Z" fill="#136262"/>
<path d="M34.2104 42.7803C34.3145 42.6069 34.3665 42.3988 34.4359 42.2081L34.6266 41.6358C34.696 41.4451 34.7654 41.2543 34.8347 41.0636L35.0602 40.4913C35.0602 40.6994 35.0081 40.9075 34.9735 41.0982C34.9214 41.3063 34.8694 41.4971 34.8 41.6878C34.7307 41.8786 34.6613 42.0693 34.5746 42.2601C34.4706 42.4508 34.3665 42.6416 34.2104 42.7803Z" fill="#136262"/>
<path opacity="0.43" d="M25.2627 17.5836L17.4246 36.416L32.8581 44.2021L48.3956 35.2888L40.0719 17.5836H25.2627Z" fill="url(#paint21_radial_643_1264)"/>
<path d="M40.0719 17.5835C40.0719 18.1038 36.7598 18.9535 32.6673 18.9535C28.5748 18.9535 25.2627 18.4332 25.2627 17.5835C25.2627 14.9824 27.1008 11.1153 32.6673 11.1153C38.3725 11.1153 40.0719 14.9997 40.0719 17.5835Z" fill="#382B1E"/>
<path d="M32.6673 10.8381C32.7727 10.8381 32.8581 10.7527 32.8581 10.6474C32.8581 10.542 32.7727 10.4566 32.6673 10.4566C32.562 10.4566 32.4766 10.542 32.4766 10.6474C32.4766 10.7527 32.562 10.8381 32.6673 10.8381Z" fill="#382B1E"/>
<path d="M32.6673 10.2485C32.7727 10.2485 32.8581 10.1631 32.8581 10.0578C32.8581 9.95244 32.7727 9.86703 32.6673 9.86703C32.562 9.86703 32.4766 9.95244 32.4766 10.0578C32.4766 10.1631 32.562 10.2485 32.6673 10.2485Z" fill="#382B1E"/>
<path d="M32.6673 9.64136C32.7727 9.64136 32.8581 9.55596 32.8581 9.45061C32.8581 9.34526 32.7727 9.25986 32.6673 9.25986C32.562 9.25986 32.4766 9.34526 32.4766 9.45061C32.4766 9.55596 32.562 9.64136 32.6673 9.64136Z" fill="#382B1E"/>
<path d="M32.6673 9.03467C32.7727 9.03467 32.8581 8.94927 32.8581 8.84392C32.8581 8.73857 32.7727 8.65317 32.6673 8.65317C32.562 8.65317 32.4766 8.73857 32.4766 8.84392C32.4766 8.94927 32.562 9.03467 32.6673 9.03467Z" fill="#382B1E"/>
<path d="M32.6673 8.44507C32.7727 8.44507 32.8581 8.35967 32.8581 8.25432C32.8581 8.14897 32.7727 8.06357 32.6673 8.06357C32.562 8.06357 32.4766 8.14897 32.4766 8.25432C32.4766 8.35967 32.562 8.44507 32.6673 8.44507Z" fill="#382B1E"/>
<path d="M32.6673 7.83817C32.7727 7.83817 32.8581 7.75277 32.8581 7.64742C32.8581 7.54207 32.7727 7.45667 32.6673 7.45667C32.562 7.45667 32.4766 7.54207 32.4766 7.64742C32.4766 7.75277 32.562 7.83817 32.6673 7.83817Z" fill="#382B1E"/>
<path d="M32.6673 7.24845C32.7727 7.24845 32.8581 7.16304 32.8581 7.05769C32.8581 6.95235 32.7727 6.86694 32.6673 6.86694C32.562 6.86694 32.4766 6.95235 32.4766 7.05769C32.4766 7.16304 32.562 7.24845 32.6673 7.24845Z" fill="#382B1E"/>
<path d="M32.6673 6.64163C32.7727 6.64163 32.8581 6.55623 32.8581 6.45088C32.8581 6.34553 32.7727 6.26013 32.6673 6.26013C32.562 6.26013 32.4766 6.34553 32.4766 6.45088C32.4766 6.55623 32.562 6.64163 32.6673 6.64163Z" fill="#382B1E"/>
<path d="M32.6673 6.05194C32.7727 6.05194 32.8581 5.96654 32.8581 5.86119C32.8581 5.75584 32.7727 5.67044 32.6673 5.67044C32.562 5.67044 32.4766 5.75584 32.4766 5.86119C32.4766 5.96654 32.562 6.05194 32.6673 6.05194Z" fill="#382B1E"/>
<path d="M32.6673 5.44513C32.7727 5.44513 32.8581 5.35973 32.8581 5.25438C32.8581 5.14903 32.7727 5.06363 32.6673 5.06363C32.562 5.06363 32.4766 5.14903 32.4766 5.25438C32.4766 5.35973 32.562 5.44513 32.6673 5.44513Z" fill="#382B1E"/>
<path d="M32.6673 4.85544C32.7727 4.85544 32.8581 4.77004 32.8581 4.66469C32.8581 4.55934 32.7727 4.47394 32.6673 4.47394C32.562 4.47394 32.4766 4.55934 32.4766 4.66469C32.4766 4.77004 32.562 4.85544 32.6673 4.85544Z" fill="#382B1E"/>
<path d="M32.6673 4.24863C32.7727 4.24863 32.8581 4.16323 32.8581 4.05788C32.8581 3.95253 32.7727 3.86713 32.6673 3.86713C32.562 3.86713 32.4766 3.95253 32.4766 4.05788C32.4766 4.16323 32.562 4.24863 32.6673 4.24863Z" fill="#382B1E"/>
<path d="M32.6673 3.65894C32.7727 3.65894 32.8581 3.57353 32.8581 3.46819C32.8581 3.36284 32.7727 3.27744 32.6673 3.27744C32.562 3.27744 32.4766 3.36284 32.4766 3.46819C32.4766 3.57353 32.562 3.65894 32.6673 3.65894Z" fill="#382B1E"/>
<path d="M6.55182 32.1329C6.51714 32.6358 6.4998 33.1387 6.44778 33.6416C6.41309 34.1445 6.36106 34.6474 6.30904 35.1503L6.25703 35.6358C6.15298 35.6358 6.06627 35.6358 5.96222 35.6185C5.6154 35.6011 5.28592 35.5838 4.99113 35.5664C4.60963 35.5318 4.28016 35.4971 3.98536 35.4624L3.95067 35.289C3.84662 34.8034 3.74259 34.3006 3.63854 33.815C3.5345 33.3121 3.44777 32.8266 3.36107 32.3237C3.18766 31.3352 3.06628 30.3468 2.99691 29.341C2.94489 28.6474 2.91021 27.9537 2.89287 27.2774C2.87553 26.9653 2.87553 26.6532 2.87553 26.3584C2.85819 24.3642 2.91021 22.3526 3.04894 20.341C3.13565 19.3353 3.22234 18.3295 3.36107 17.3237C3.43043 16.8208 3.4998 16.3179 3.60385 15.815C3.69055 15.3122 3.79461 14.8093 3.91599 14.289C4.10674 14.7746 4.2628 15.2775 4.40153 15.763C4.5576 16.2486 4.67899 16.7515 4.81772 17.237C5.06049 18.2254 5.28593 19.2139 5.47668 20.2023C5.54605 20.5838 5.6154 20.9827 5.68477 21.3815C5.96222 22.9769 6.17032 24.5722 6.34373 26.1676C6.44778 27.1561 6.53447 28.1618 6.56915 29.1503C6.60384 30.1214 6.60384 31.1272 6.55182 32.1329Z" fill="url(#paint22_linear_643_1264)"/>
<path d="M8.25133 34.5258C8.25133 34.6646 8.23397 34.786 8.21663 34.9247C8.19929 35.1501 8.18197 35.3929 8.14729 35.6183C7.80047 35.6357 7.4363 35.6357 7.05479 35.6357C6.77734 35.6357 6.51722 35.6357 6.27445 35.6183C6.1704 35.6183 6.08371 35.6183 5.97966 35.601C5.9103 35.2888 5.84092 34.9767 5.77156 34.6646C5.44208 33.0519 5.25133 31.4218 5.14728 29.7917C5.04324 28.1617 5.04323 26.5143 5.16462 24.8842C5.23398 24.0692 5.3207 23.2368 5.45943 22.4045C5.52879 22.0403 5.58081 21.6935 5.66751 21.3467C5.68485 21.2947 5.68485 21.2253 5.70219 21.1733C5.80623 20.7571 5.91028 20.3409 6.04901 19.9247C6.23976 20.3236 6.41317 20.7224 6.5519 21.1212C6.70797 21.5201 6.82936 21.9189 6.95075 22.3178C7.19353 23.1155 7.40162 23.9305 7.55769 24.7282C7.64439 25.1444 7.71374 25.5605 7.78311 25.9767C7.9912 27.1733 8.11259 28.3871 8.1993 29.601C8.35536 31.2484 8.37271 32.8784 8.25133 34.5258Z" fill="url(#paint23_linear_643_1264)"/>
<path d="M13.1935 21.3814C13.0721 23.0808 12.916 24.7802 12.7079 26.4623C12.6039 27.312 12.4999 28.1444 12.3785 28.9941C12.2571 29.8265 12.101 30.6762 11.9103 31.4912C11.7195 32.3236 11.4767 33.1386 11.2166 33.9536C11.0952 34.3698 10.9045 34.7687 10.6617 35.1502C10.6097 35.2369 10.5403 35.3236 10.4883 35.4103C10.2455 35.4623 9.95072 35.497 9.6039 35.5317C9.46518 35.549 9.3438 35.549 9.20507 35.5663C9.11837 35.3236 9.04899 35.0808 8.99697 34.838C8.91026 34.3871 8.87558 33.9536 8.91026 33.5201C8.96229 32.6704 9.049 31.8207 9.15304 30.971C9.27443 30.1213 9.43051 29.3062 9.62126 28.4739C9.81201 27.6415 10.0201 26.8265 10.2282 25.9941C10.4189 25.2484 10.6097 24.5201 10.8178 23.7745C11.0605 22.8727 11.338 21.971 11.6155 21.0693C12.1357 19.4392 12.6733 17.8091 13.3322 16.2138C13.3842 17.9652 13.2976 19.682 13.1935 21.3814Z" fill="url(#paint24_linear_643_1264)"/>
<path d="M10.8526 26.6012C10.818 28.3873 10.6966 30.1734 10.4191 31.9595C10.2804 32.8439 10.0896 33.7457 9.8642 34.63C9.77749 34.9248 9.69079 35.237 9.60408 35.5318C9.46535 35.5491 9.34398 35.5491 9.20525 35.5665C8.94514 35.5838 8.66767 35.6011 8.37287 35.6185C8.32085 35.3931 8.26884 35.1676 8.23416 34.9422C8.21682 34.8208 8.18213 34.6994 8.16479 34.578C8.00872 33.6763 7.88733 32.7746 7.81797 31.8728C7.67924 30.0694 7.69659 28.2832 7.80063 26.4971C7.81797 26.341 7.81797 26.1676 7.83531 26.0116C7.95669 24.3815 8.13011 22.7688 8.40757 21.1561C8.56364 20.2717 8.73704 19.37 8.96247 18.4856C9.18791 17.6012 9.43068 16.7168 9.76015 15.8324C10.0203 16.7341 10.1937 17.6359 10.3498 18.5376C10.4885 19.4393 10.6099 20.3411 10.6966 21.2428C10.7659 22.1098 10.8353 22.9596 10.8526 23.8266C10.87 24.7283 10.87 25.6647 10.8526 26.6012Z" fill="url(#paint25_linear_643_1264)"/>
<path d="M5.19922 34.4392C5.18188 34.7167 5.14719 35.0115 5.07782 35.3063C5.06048 35.393 5.04314 35.4797 5.00846 35.5664C4.62695 35.5317 4.29749 35.497 4.00269 35.4623C3.86396 35.445 3.72522 35.4277 3.60384 35.393C3.48245 35.2716 3.37842 35.1502 3.29171 35.0115C2.96223 34.5606 2.70211 34.0924 2.5287 33.5895C2.442 33.3467 2.37263 33.0866 2.28593 32.8439C2.21656 32.5837 2.14721 32.341 2.07784 32.0809C1.93911 31.578 1.81771 31.0577 1.69633 30.5375C1.47089 29.5144 1.28015 28.4566 1.15876 27.3988C1.12408 27.1387 1.10674 26.8612 1.07206 26.6011C1.05471 26.3236 1.03736 26.0635 1.02002 25.7861C1.00268 25.2485 0.985342 24.6936 1.02002 24.1387C1.36684 24.5895 1.66165 25.0404 1.93911 25.5086C2.07783 25.734 2.21657 25.9768 2.33796 26.2023C2.45934 26.445 2.59806 26.6705 2.71945 26.9132C2.77147 27.0173 2.8235 27.1213 2.87552 27.2427C3.29171 28.0924 3.67321 28.9595 4.00269 29.8265C4.19344 30.3121 4.36685 30.815 4.54026 31.3178C4.62696 31.5606 4.71367 31.8207 4.78304 32.0635C4.8524 32.3236 4.93909 32.5664 5.00846 32.8265C5.16452 33.3467 5.21656 33.8843 5.19922 34.4392Z" fill="url(#paint26_linear_643_1264)"/>
<circle cx="32.5" cy="32.5" r="32" stroke="#D9F2A5"/>
<defs>
<linearGradient id="paint0_linear_643_1264" x1="32.0849" y1="4.03791" x2="32.0849" y2="53.1739" gradientUnits="userSpaceOnUse">
<stop stop-color="#EDEDED"/>
<stop offset="0.5141" stop-color="#E9E9E9"/>
<stop offset="0.9955" stop-color="#DEDEDE"/>
</linearGradient>
<linearGradient id="paint1_linear_643_1264" x1="3.05434" y1="43.2803" x2="11.0243" y2="43.2803" gradientUnits="userSpaceOnUse">
<stop stop-color="#1CA698"/>
<stop offset="0.9972" stop-color="#118276"/>
</linearGradient>
<linearGradient id="paint2_linear_643_1264" x1="33.3229" y1="27.7188" x2="33.031" y2="33.8156" gradientUnits="userSpaceOnUse">
<stop stop-color="#73573F"/>
<stop offset="1" stop-color="#4E3B2B"/>
</linearGradient>
<linearGradient id="paint3_linear_643_1264" x1="30.8771" y1="32.2644" x2="35.3821" y2="32.2644" gradientUnits="userSpaceOnUse">
<stop stop-color="#4F3C2B"/>
<stop offset="1" stop-color="#3B2D20"/>
</linearGradient>
<linearGradient id="paint4_linear_643_1264" x1="10.4497" y1="38.9136" x2="9.72889" y2="53.9713" gradientUnits="userSpaceOnUse">
<stop stop-color="#73573F"/>
<stop offset="1" stop-color="#4E3B2B"/>
</linearGradient>
<linearGradient id="paint5_linear_643_1264" x1="11.8401" y1="39.2242" x2="11.1312" y2="54.0325" gradientUnits="userSpaceOnUse">
<stop stop-color="#4F3C2B"/>
<stop offset="1" stop-color="#3B2D20"/>
</linearGradient>
<linearGradient id="paint6_linear_643_1264" x1="9.84678" y1="51.4512" x2="14.6728" y2="51.4512" gradientUnits="userSpaceOnUse">
<stop stop-color="#4F3C2B"/>
<stop offset="1" stop-color="#3B2D20"/>
</linearGradient>
<linearGradient id="paint7_linear_643_1264" x1="21.8241" y1="30.5728" x2="21.1504" y2="44.6459" gradientUnits="userSpaceOnUse">
<stop stop-color="#73573F"/>
<stop offset="1" stop-color="#4E3B2B"/>
</linearGradient>
<linearGradient id="paint8_linear_643_1264" x1="22.7338" y1="30.8559" x2="22.1379" y2="43.3036" gradientUnits="userSpaceOnUse">
<stop stop-color="#4F3C2B"/>
<stop offset="1" stop-color="#3B2D20"/>
</linearGradient>
<linearGradient id="paint9_linear_643_1264" x1="20.003" y1="40.9894" x2="24.5871" y2="40.9894" gradientUnits="userSpaceOnUse">
<stop stop-color="#4F3C2B"/>
<stop offset="1" stop-color="#3B2D20"/>
</linearGradient>
<linearGradient id="paint10_linear_643_1264" x1="55.3955" y1="38.9867" x2="56.0601" y2="52.8686" gradientUnits="userSpaceOnUse">
<stop stop-color="#73573F"/>
<stop offset="1" stop-color="#4E3B2B"/>
</linearGradient>
<linearGradient id="paint11_linear_643_1264" x1="55.101" y1="39.4407" x2="54.4408" y2="53.2309" gradientUnits="userSpaceOnUse">
<stop stop-color="#4F3C2B"/>
<stop offset="1" stop-color="#3B2D20"/>
</linearGradient>
<linearGradient id="paint12_linear_643_1264" x1="51.3592" y1="50.9555" x2="55.4291" y2="50.9555" gradientUnits="userSpaceOnUse">
<stop stop-color="#4F3C2B"/>
<stop offset="1" stop-color="#3B2D20"/>
</linearGradient>
<linearGradient id="paint13_linear_643_1264" x1="44.2085" y1="30.5729" x2="44.8822" y2="44.646" gradientUnits="userSpaceOnUse">
<stop stop-color="#73573F"/>
<stop offset="1" stop-color="#4E3B2B"/>
</linearGradient>
<linearGradient id="paint14_linear_643_1264" x1="43.2987" y1="30.8559" x2="43.8947" y2="43.3036" gradientUnits="userSpaceOnUse">
<stop stop-color="#4F3C2B"/>
<stop offset="1" stop-color="#3B2D20"/>
</linearGradient>
<linearGradient id="paint15_linear_643_1264" x1="46.0296" y1="40.9894" x2="41.4455" y2="40.9894" gradientUnits="userSpaceOnUse">
<stop stop-color="#4F3C2B"/>
<stop offset="1" stop-color="#3B2D20"/>
</linearGradient>
<linearGradient id="paint16_linear_643_1264" x1="12.5068" y1="47.7951" x2="52.8506" y2="47.7951" gradientUnits="userSpaceOnUse">
<stop stop-color="#D9F2A5"/>
<stop offset="1" stop-color="#9CC079"/>
</linearGradient>
<linearGradient id="paint17_linear_643_1264" x1="30.8845" y1="43.9339" x2="35.6131" y2="44.2951" gradientUnits="userSpaceOnUse">
<stop stop-color="#73573F"/>
<stop offset="1" stop-color="#4E3B2B"/>
</linearGradient>
<linearGradient id="paint18_linear_643_1264" x1="31.0165" y1="42.2019" x2="35.7457" y2="42.5631" gradientUnits="userSpaceOnUse">
<stop stop-color="#4F3C2B"/>
<stop offset="1" stop-color="#3B2D20"/>
</linearGradient>
<linearGradient id="paint19_linear_643_1264" x1="31.9169" y1="40.3822" x2="34.4234" y2="40.3822" gradientUnits="userSpaceOnUse">
<stop stop-color="#1CA698"/>
<stop offset="0.9972" stop-color="#118276"/>
</linearGradient>
<linearGradient id="paint20_linear_643_1264" x1="35.3978" y1="41.8109" x2="33.7146" y2="41.4508" gradientUnits="userSpaceOnUse">
<stop stop-color="#1CA698"/>
<stop offset="0.9972" stop-color="#118276"/>
</linearGradient>
<radialGradient id="paint21_radial_643_1264" cx="0" cy="0" r="1" gradientUnits="userSpaceOnUse" gradientTransform="translate(33.0049 21.1785) scale(14.4387 18.2361)">
<stop stop-color="#F5FFDC"/>
<stop offset="1" stop-color="#F5FFDC" stop-opacity="0"/>
</radialGradient>
<linearGradient id="paint22_linear_643_1264" x1="2.1464" y1="24.9467" x2="7.07397" y2="24.9467" gradientUnits="userSpaceOnUse">
<stop stop-color="#D9F2A5"/>
<stop offset="1" stop-color="#9CC079"/>
</linearGradient>
<linearGradient id="paint23_linear_643_1264" x1="4.29013" y1="28.1376" x2="8.62558" y2="27.5722" gradientUnits="userSpaceOnUse">
<stop stop-color="#D9F2A5"/>
<stop offset="1" stop-color="#9CC079"/>
</linearGradient>
<linearGradient id="paint24_linear_643_1264" x1="8.34307" y1="25.8978" x2="14.5961" y2="25.8978" gradientUnits="userSpaceOnUse">
<stop stop-color="#D9F2A5"/>
<stop offset="1" stop-color="#9CC079"/>
</linearGradient>
<linearGradient id="paint25_linear_643_1264" x1="7.35394" y1="25.7037" x2="11.2909" y2="25.7037" gradientUnits="userSpaceOnUse">
<stop stop-color="#D9F2A5"/>
<stop offset="1" stop-color="#9CC079"/>
</linearGradient>
<linearGradient id="paint26_linear_643_1264" x1="-0.232591" y1="29.8594" x2="5.96313" y2="29.8594" gradientUnits="userSpaceOnUse">
<stop stop-color="#D9F2A5"/>
<stop offset="1" stop-color="#9CC079"/>
</linearGradient>
</defs>
</svg>
