<svg width="65" height="65" viewBox="0 0 65 65" fill="none" xmlns="http://www.w3.org/2000/svg">
<path d="M54.9999 13.8208C59.1444 18.8844 61.6241 25.3526 61.6241 32.4103C61.6241 34.2485 61.4507 36.0693 61.1212 37.8034C61.0345 38.2369 60.9478 38.6705 60.8438 39.104C60.7918 39.3121 60.7397 39.5375 60.6877 39.7456C60.6357 39.971 60.5663 40.1791 60.5143 40.4046C60.4623 40.5953 60.4103 40.7861 60.3583 40.9595C59.734 42.9884 58.9189 44.9306 57.8958 46.734C57.6704 47.1502 57.4276 47.549 57.1848 47.9479C56.838 48.4855 56.4912 49.023 56.127 49.5259C55.7108 50.0982 55.2773 50.6531 54.8438 51.1907C54.8265 51.208 54.8091 51.2253 54.8091 51.2427C54.7224 51.3467 54.6184 51.4681 54.5317 51.5722C54.5143 51.5895 54.5143 51.5895 54.497 51.6068C54.2716 51.867 54.0288 52.1444 53.786 52.3872C53.7687 52.4045 53.7513 52.4219 53.734 52.4566C48.3756 58.1791 40.7456 61.7687 32.2658 61.7687C23.8034 61.7687 16.156 58.1791 10.7977 52.4566C10.7803 52.4392 10.763 52.4219 10.7456 52.3872C10.5028 52.1097 10.2427 51.8496 10.0173 51.5548C8.61269 49.9248 7.38146 48.156 6.35834 46.2485C5.45661 44.5664 4.71095 42.7976 4.15604 40.9421C4.10402 40.7514 4.03467 40.578 3.99999 40.3872C3.93062 40.1791 3.8786 39.9537 3.82658 39.7283C3.77455 39.5202 3.72251 39.2947 3.67048 39.0866C3.56644 38.6531 3.47976 38.2196 3.39305 37.7861C3.06357 36.0346 2.89014 34.2312 2.89014 32.393C2.89014 16.1618 16.052 3 32.2831 3C38.7687 3 44.7687 5.09826 49.6242 8.65317C49.6415 8.63583 49.6588 8.60114 49.6762 8.5838C50.1791 7.83814 50.786 7.17918 51.445 6.60693C51.7744 6.31213 52.1386 6.05202 52.5028 5.82658C52.8669 5.58381 53.2658 5.37572 53.6993 5.21965C53.7513 5.20231 53.8033 5.21965 53.8207 5.27167C53.8207 5.28901 53.8207 5.30635 53.8207 5.34104C53.5432 6.19075 53.2484 6.95375 52.9536 7.69941C52.6588 8.44508 52.3814 9.15606 52.1386 9.86704C52.0692 10.0925 51.9825 10.3006 51.9132 10.5087C52.1212 10.6994 52.3467 10.8902 52.5548 11.0982C52.6589 11.0636 52.7802 11.0462 52.8843 11.0115C53.2311 10.9248 53.5953 10.8728 53.9421 10.8381C54.2889 10.8035 54.653 10.7861 54.9999 10.7861C55.3467 10.7688 55.6935 10.7861 56.0403 10.7861L56.5606 10.8035C56.734 10.8208 56.9074 10.8381 57.0808 10.8381C58.4507 10.9595 59.786 11.2196 61.0866 11.6011C61.3467 11.6705 61.5895 11.7572 61.8322 11.8439L63.2889 13.3873C62.4565 13.4046 61.6415 13.4219 60.8438 13.4393C59.5605 13.474 58.2773 13.5086 57.0461 13.5954L56.127 13.6647C55.8149 13.6994 55.5201 13.7341 55.2253 13.7688C55.1039 13.8034 55.0519 13.8034 54.9999 13.8208Z" fill="url(#paint0_linear_643_1456)"/>
<path d="M53.7513 52.4218C53.734 52.4392 53.7166 52.4565 53.6993 52.4912C48.3409 58.2137 40.7109 61.8033 32.2311 61.8033C23.7687 61.8033 16.1213 58.2137 10.763 52.4912C10.7456 52.4739 10.7283 52.4565 10.7109 52.4218H53.7513Z" fill="url(#paint1_linear_643_1456)"/>
<path d="M57.8959 46.7341C57.6704 47.1503 57.4277 47.5491 57.1849 47.9479C56.8381 48.4855 56.4912 49.0231 56.1271 49.526C55.7109 50.0982 55.2774 50.6531 54.8439 51.1907C54.8265 51.208 54.8092 51.2254 54.8092 51.2427C54.7225 51.3468 54.6184 51.4682 54.5317 51.5722C54.5144 51.5896 54.5144 51.5896 54.497 51.6069C54.2716 51.867 54.0288 52.1445 53.786 52.3872C53.7687 52.4046 53.7514 52.4219 53.734 52.4566H10.7977C10.7804 52.4393 10.763 52.4219 10.7457 52.3872C10.5029 52.1098 10.2428 51.8497 10.0174 51.5549C8.61275 49.9248 7.38152 48.156 6.3584 46.2485C6.68788 46.2485 7.01737 46.2485 7.32951 46.2485C9.185 46.2485 11.4047 46.0578 13.711 45.9364C14.0405 45.919 14.3873 45.9017 14.7168 45.8844C15.0116 45.867 15.289 45.867 15.5838 45.8497C15.8959 45.8323 16.2081 45.8323 16.5029 45.8323C17.4566 45.815 18.393 45.8323 19.3121 45.9017C23.3873 46.1618 25.7456 46.8728 29.0231 46.2485C32.3005 45.6242 37.7977 45.7977 39.1156 45.711C39.7745 45.6763 42.2023 46.0057 44.9075 46.3352C45.2369 46.3699 45.5837 46.4219 45.9306 46.4566C46.2254 46.4913 46.5028 46.526 46.7976 46.5607C47.1098 46.5953 47.4046 46.63 47.7167 46.6474C49.5028 46.8208 51.1849 46.9248 52.3294 46.8381C52.9537 46.7861 53.6473 46.7688 54.341 46.7341C54.8785 46.7167 55.4161 46.6994 55.971 46.6994C56.3525 46.6994 56.7514 46.6994 57.1329 46.6994C57.3583 46.7341 57.6184 46.7341 57.8959 46.7341Z" fill="url(#paint2_linear_643_1456)"/>
<path d="M54.497 51.5895C54.4797 51.6068 54.4797 51.6068 54.4624 51.6242V51.5895C54.4624 51.4334 54.4623 51.2947 54.445 51.1386V51.1213C54.4103 49.7166 54.3583 48.3294 54.289 46.9247V46.9074C54.289 46.8727 54.289 46.8207 54.289 46.7687C54.289 46.6299 54.2716 46.4739 54.2716 46.3352C54.1849 44.549 54.0462 42.7456 53.8901 40.9594C53.8728 40.7687 53.8554 40.5779 53.8381 40.4045C53.8207 40.1964 53.8034 39.971 53.786 39.7456C53.7687 39.5375 53.7514 39.312 53.7167 39.104C53.682 38.7051 53.63 38.3063 53.5953 37.9074V37.8901C53.5953 37.8554 53.5953 37.8207 53.578 37.8034C53.4913 36.9884 53.4045 36.1733 53.3005 35.3583C52.919 32.1502 52.4508 28.9421 51.8439 25.7861C51.7572 25.3525 51.6704 24.919 51.5837 24.5028C51.2196 22.7167 50.8034 20.9306 50.3352 19.1791C50.2138 18.7456 50.0924 18.3294 49.971 17.8959C49.9017 17.6878 49.8323 17.4797 49.7803 17.2716C49.7109 17.0635 49.6415 16.8554 49.5722 16.6474C49.4855 16.3872 49.3988 16.1271 49.2947 15.867C49.2427 15.7109 49.1907 15.5722 49.1386 15.4161C49.0693 15.2427 48.9999 15.0693 48.9306 14.8959C48.8612 14.7052 48.7745 14.5144 48.6878 14.3237C48.6531 14.237 48.6184 14.1502 48.5837 14.0635L49.0173 13.8554H49.0346L49.1907 13.7861L49.3468 13.7167L50.0924 13.3699L50.1618 13.3352L50.2485 13.3005C50.2485 13.3179 50.2485 13.3179 50.2658 13.3352C50.3178 13.4566 50.3699 13.5607 50.4219 13.682C50.4392 13.6994 50.4392 13.7167 50.4566 13.7514C50.5086 13.8554 50.5433 13.9595 50.5953 14.0635C50.6473 14.1676 50.682 14.2716 50.7341 14.3757C51.0115 15.0173 51.2542 15.6589 51.4797 16.3005C51.549 16.4913 51.6184 16.6994 51.6878 16.8901C51.6878 16.9075 51.7051 16.9075 51.7051 16.9248C51.7571 17.0809 51.8092 17.2369 51.8612 17.393C51.9306 17.5838 51.9826 17.7919 52.0519 17.9826C52.1213 18.208 52.1907 18.4335 52.26 18.6589C52.8149 20.4624 53.2832 22.2658 53.6993 24.104C53.8381 24.6936 53.9594 25.2658 54.0808 25.8554C54.3409 27.104 54.6011 28.3525 54.8265 29.6184C54.8265 29.6358 54.8265 29.6358 54.8265 29.6531C55.156 31.4739 55.4508 33.2947 55.7282 35.1155C55.867 36.0346 55.9884 36.9537 56.1098 37.8727C56.1618 38.3063 56.2138 38.7398 56.2658 39.1733C56.3005 39.3814 56.3178 39.6068 56.3525 39.8149C56.3872 40.023 56.4045 40.2485 56.4392 40.4739C56.4566 40.6646 56.4739 40.8554 56.5086 41.0288C56.6993 42.7629 56.8728 44.4797 57.0115 46.2138C57.0288 46.4045 57.0462 46.5953 57.0635 46.8034C57.0982 47.2022 57.1329 47.6184 57.1502 48.0172C56.8034 48.5548 56.4566 49.0924 56.0924 49.5953C55.6762 50.1675 55.2427 50.7224 54.8092 51.26C54.7918 51.2773 54.7745 51.2947 54.7745 51.312C54.6878 51.364 54.5837 51.4854 54.497 51.5895Z" fill="#664B35"/>
<path opacity="0.4" d="M54.4624 51.6243V51.5896C54.4624 51.4335 54.4624 51.2948 54.4624 51.1387V51.1214C54.4277 49.7167 54.3756 48.3295 54.3063 46.9248C54.3063 46.9248 54.3063 46.9075 54.3063 46.8902C54.3063 46.8555 54.3063 46.8035 54.3063 46.7514C54.3063 46.5954 54.289 46.4566 54.289 46.3006C54.2023 44.5144 54.0635 42.7283 53.9074 40.9422C53.8901 40.7514 53.8728 40.5607 53.8554 40.3873C53.8381 40.1619 53.8207 39.9538 53.8034 39.7283C53.7861 39.5202 53.7687 39.2948 53.734 39.0867C53.6993 38.6879 53.6647 38.289 53.6126 37.9075V37.8902C53.6126 37.8555 53.6127 37.8208 53.5953 37.7861C53.5086 36.9711 53.4219 36.1561 53.3178 35.3411C52.9363 32.133 52.4681 28.9249 51.8785 25.7688C51.8438 25.5607 51.7918 25.3526 51.7572 25.1445C51.7051 24.9191 51.6704 24.6937 51.6184 24.4682C51.2543 22.6648 50.8381 20.896 50.3699 19.1446C50.1271 18.2948 49.8843 17.4451 49.5895 16.6128C49.5895 16.5954 49.5722 16.5607 49.5549 16.5261C49.4855 16.318 49.4161 16.1272 49.3468 15.9191C49.3468 15.9018 49.3468 15.9018 49.3294 15.8844C49.26 15.6937 49.1907 15.4856 49.104 15.2948C49.0519 15.1561 48.9999 15.0001 48.9306 14.8613C48.8612 14.6706 48.7745 14.4798 48.6878 14.2891C48.6531 14.2024 48.6184 14.1157 48.5837 14.029L49.0173 13.8209H49.0346L49.208 13.7342L49.3468 13.6648C49.4161 13.8382 49.4855 14.0116 49.5549 14.185C49.5722 14.2197 49.5895 14.2544 49.6069 14.3064C49.6069 14.3238 49.6242 14.3411 49.6242 14.3584C49.6762 14.4798 49.7283 14.6012 49.7629 14.7226C49.8496 14.948 49.9363 15.1735 50.0231 15.3989C50.0404 15.4683 50.0751 15.5376 50.0924 15.607C50.1097 15.6764 50.1444 15.7457 50.1618 15.8151C50.2138 15.9538 50.2658 16.1099 50.3178 16.2659C50.3525 16.37 50.4045 16.4914 50.4392 16.5954C50.4912 16.7515 50.5433 16.8902 50.5953 17.0463C50.682 17.3064 50.7514 17.5492 50.8381 17.8093C50.8901 17.9827 50.9421 18.1735 50.9942 18.3469C51.0115 18.4162 51.0462 18.5029 51.0635 18.5723C51.1155 18.7457 51.1675 18.9191 51.2196 19.1099C51.2369 19.1966 51.2716 19.2833 51.289 19.3526C51.341 19.5261 51.393 19.7168 51.445 19.8902C51.5144 20.1503 51.5837 20.4104 51.6531 20.6532C51.6704 20.7052 51.6878 20.7573 51.7051 20.8266C51.7051 20.844 51.7225 20.8613 51.7225 20.8787C51.8092 21.1908 51.8959 21.5029 51.9652 21.8151C52.0519 22.1445 52.1387 22.474 52.208 22.8035C52.2601 23.0463 52.3294 23.2891 52.3814 23.5318C52.4335 23.7746 52.5028 24.0174 52.5549 24.2601C52.6242 24.5203 52.6762 24.7977 52.7456 25.0752C52.7629 25.1272 52.7629 25.1966 52.7803 25.2486C52.8149 25.4393 52.867 25.6127 52.9017 25.8035C53.1791 27.1214 53.4566 28.4567 53.6993 29.7919C53.7167 29.844 53.7167 29.9133 53.734 29.9653C53.9594 31.1966 54.1676 32.4278 54.3583 33.659C54.3756 33.711 54.3756 33.7804 54.393 33.8324C54.4277 34.0752 54.4623 34.3353 54.5144 34.578C54.6704 35.6532 54.8265 36.7457 54.9826 37.8382C54.9826 37.8728 54.9826 37.9075 54.9999 37.9422C54.9999 38.0116 55.0173 38.0636 55.0173 38.133C55.052 38.4624 55.104 38.8093 55.1386 39.1387C55.156 39.3468 55.1907 39.5723 55.2254 39.7804C55.2427 39.9884 55.2774 40.2139 55.2947 40.4393C55.312 40.6301 55.3294 40.8208 55.3641 40.9942C55.4335 41.5318 55.4855 42.0694 55.5375 42.6069C55.5375 42.6763 55.5548 42.7457 55.5548 42.7977C55.6762 44.0116 55.7803 45.2428 55.8843 46.4566C55.8843 46.5607 55.9016 46.6647 55.9016 46.7861C55.9016 46.8728 55.919 46.9595 55.919 47.0462C55.919 47.1156 55.919 47.185 55.9364 47.237C55.9884 48.0173 56.0404 48.7977 56.0924 49.578C55.6762 50.1503 55.2427 50.7052 54.8092 51.2428C54.7918 51.2601 54.7745 51.2774 54.7745 51.2948C54.6878 51.3988 54.5837 51.5202 54.497 51.6243C54.4797 51.6069 54.4797 51.6069 54.4624 51.6243Z" fill="url(#paint3_linear_643_1456)"/>
<path d="M54.4451 51.1211C54.5665 51.1558 54.6879 51.1905 54.8093 51.1905C54.7919 51.2078 54.7746 51.2252 54.7746 51.2425C54.6705 51.2252 54.5491 51.1905 54.4451 51.1211C54.4451 51.1384 54.4451 51.1384 54.4451 51.1211C54.4104 51.1211 54.3757 51.1038 54.3584 51.0864C54.3931 51.1038 54.4278 51.1211 54.4451 51.1211Z" fill="url(#paint4_linear_643_1456)"/>
<path d="M57.046 46.9421C56.8379 47.0981 56.6125 47.1502 56.3697 47.1675C56.127 47.2022 55.9015 47.1848 55.6587 47.1848C55.416 47.1848 55.1905 47.2195 54.9477 47.2022C54.7223 47.1848 54.4449 47.1328 54.2888 46.89C54.5663 46.838 54.757 46.9074 54.9825 46.9421C55.2079 46.9767 55.4333 47.0288 55.6587 47.0114C55.8842 47.0114 56.1096 46.9594 56.335 46.9247C56.5605 46.9074 56.7859 46.89 57.046 46.9421Z" fill="url(#paint5_linear_643_1456)"/>
<path d="M56.63 42.5028C56.4392 42.6589 56.2311 42.7109 56.0057 42.7456C55.7976 42.7803 55.5721 42.7629 55.3467 42.7629C55.1213 42.7629 54.9132 42.7629 54.6877 42.7283C54.4797 42.6936 54.2542 42.6416 54.0808 42.4855C54.3062 42.5202 54.497 42.5549 54.7051 42.5722C54.9132 42.5895 55.1213 42.5895 55.3294 42.5895C55.5375 42.5722 55.7456 42.5202 55.9536 42.5028C56.1791 42.4682 56.3872 42.4508 56.63 42.5028Z" fill="url(#paint6_linear_643_1456)"/>
<path d="M56.075 37.6992C55.9189 37.8727 55.7108 37.9594 55.5027 38.0287C55.2947 38.0807 55.0692 38.0981 54.8438 38.1154C54.6183 38.1328 54.4102 38.1501 54.1848 38.1154C53.9594 38.0807 53.7339 38.0287 53.5779 37.8727C53.8033 37.9073 53.9941 37.942 54.2022 37.9594C54.4103 37.9767 54.6183 37.9594 54.8264 37.9247C55.0345 37.89 55.2253 37.8206 55.4334 37.7686C55.6415 37.7339 55.8322 37.6819 56.075 37.6992Z" fill="url(#paint7_linear_643_1456)"/>
<path d="M55.5026 33.4508C55.3466 33.6069 55.1732 33.6763 54.9824 33.7283C54.7917 33.7803 54.6009 33.7803 54.3928 33.7977C54.0113 33.8323 53.6125 33.8323 53.231 33.7283C53.4217 33.7456 53.6125 33.7283 53.8032 33.711C53.994 33.6936 54.1847 33.6589 54.3581 33.6069C54.5489 33.5722 54.7223 33.5029 54.913 33.4682C55.1038 33.4508 55.2772 33.4162 55.5026 33.4508Z" fill="url(#paint8_linear_643_1456)"/>
<path d="M54.896 29.5491C54.7573 29.7225 54.5665 29.8092 54.3758 29.8612C54.185 29.9132 53.9769 29.9132 53.7688 29.9479C53.5607 29.9653 53.37 30.0173 53.1619 29.9999C52.9538 29.9826 52.7283 29.9306 52.6069 29.7051C52.8497 29.6358 53.0058 29.7051 53.1966 29.7225C53.37 29.7572 53.5781 29.7918 53.7688 29.7572C53.9596 29.7398 54.1503 29.6705 54.3237 29.6184C54.4971 29.5664 54.6705 29.5144 54.896 29.5491Z" fill="url(#paint9_linear_643_1456)"/>
<path d="M53.89 24.9535C53.734 25.0923 53.5605 25.1443 53.3871 25.179C53.2137 25.2137 53.023 25.2137 52.8496 25.231C52.6762 25.2483 52.4854 25.2657 52.312 25.2657C52.1386 25.2483 51.9305 25.2483 51.7917 25.1096C51.9825 25.1096 52.1386 25.1096 52.312 25.1096C52.4854 25.1096 52.6588 25.0923 52.8322 25.0576C53.0056 25.0229 53.179 24.9709 53.3524 24.9362C53.5258 24.9015 53.6993 24.8842 53.89 24.9535Z" fill="url(#paint10_linear_643_1456)"/>
<path d="M52.7454 20.4451C52.6414 20.6185 52.468 20.6879 52.2946 20.7399C52.1212 20.7919 51.9477 20.7919 51.757 20.8093C51.5836 20.8266 51.3928 20.8266 51.2194 20.7919C51.046 20.7572 50.8726 20.7052 50.7339 20.5665C50.9246 20.5838 51.0633 20.6185 51.2368 20.6358C51.3928 20.6532 51.5662 20.6532 51.7396 20.6185C51.913 20.6012 52.0691 20.5318 52.2252 20.4798C52.3986 20.4624 52.5547 20.4278 52.7454 20.4451Z" fill="url(#paint11_linear_643_1456)"/>
<path d="M50.2311 13.9075C50.2484 13.9249 50.2485 13.9422 50.2485 13.9769C50.2485 13.9942 50.2485 14.0289 50.2485 14.0463V14.185C50.2485 14.2717 50.2311 14.3584 50.2311 14.4451C50.2138 14.6185 50.1964 14.7746 50.1617 14.9307C50.1097 15.2428 50.0404 15.5203 49.9537 15.7804C49.7803 16.3179 49.5375 16.7688 49.2427 17.2197C48.6704 18.1214 48.2022 19.1098 47.786 20.1503C47.5953 20.6705 47.3872 21.2081 47.2311 21.763C47.075 22.3179 46.9016 22.8902 46.7803 23.4798C46.7456 23.6185 46.7109 23.7746 46.6762 23.9306C46.6415 24.0867 46.6242 24.2254 46.5895 24.3815C46.5548 24.5376 46.5201 24.6936 46.5028 24.8324C46.4854 24.9884 46.4508 25.1445 46.4161 25.3006C46.364 25.6127 46.312 25.9249 46.2427 26.237C46.1906 26.5491 46.1386 26.8786 46.0693 27.2081C46.0519 27.2601 46.0173 27.2948 45.9652 27.2775C45.9305 27.2775 45.9132 27.2601 45.9132 27.2254C45.7398 26.9306 45.5837 26.6358 45.445 26.341C45.3756 26.185 45.3063 26.0289 45.2542 25.8728C45.1849 25.7168 45.1155 25.5607 45.0635 25.4046C44.838 24.7804 44.6473 24.1214 44.5259 23.4451C44.2658 22.1098 44.2138 20.7052 44.3872 19.3006C44.5606 17.896 44.9594 16.5087 45.6011 15.1908C45.9132 14.5318 46.3467 13.9249 46.9363 13.4567C47.2311 13.2139 47.5432 13.0058 47.9247 12.8497C48.0114 12.8151 48.1155 12.7804 48.2022 12.7457C48.3063 12.711 48.3929 12.6763 48.497 12.659C48.601 12.6243 48.7051 12.607 48.8091 12.5896L49.1733 12.5549C49.5375 12.2601 50.0924 12.3122 50.3872 12.6763C50.6646 13.0752 50.6126 13.6127 50.2311 13.9075Z" fill="url(#paint12_linear_643_1456)"/>
<path d="M49.6762 13.4393C50.3178 13.2138 50.9941 13.2312 51.6357 13.3179C52.2774 13.4393 52.8843 13.6647 53.4219 13.9768C53.9768 14.289 54.445 14.6878 54.8959 15.0866C55.1213 15.2947 55.3294 15.5028 55.5375 15.7283C55.7456 15.9364 55.9363 16.1791 56.127 16.4046C56.8727 17.3236 57.4797 18.3294 57.9652 19.3699C58.208 19.8901 58.416 20.4277 58.5895 20.9826C58.7629 21.5375 58.9016 22.0924 58.9536 22.6647C58.9536 22.7167 58.919 22.7687 58.8669 22.7687C58.8323 22.7687 58.8149 22.7687 58.7976 22.7514C57.9826 21.971 57.2022 21.208 56.4218 20.4797C55.6415 19.7514 54.8611 19.0751 54.0808 18.4681C53.682 18.1733 53.3005 17.8785 52.9016 17.6184C52.5028 17.3583 52.0866 17.1329 51.7051 16.8901C51.3236 16.6473 50.9421 16.4046 50.5779 16.1271C50.1964 15.8497 49.8149 15.5722 49.3987 15.1734L49.312 15.0866C48.9305 14.7225 48.9132 14.0982 49.2947 13.7167C49.3988 13.5606 49.5375 13.4913 49.6762 13.4393Z" fill="url(#paint13_linear_643_1456)"/>
<path d="M64.8148 13.3178C64.7974 13.3352 64.7801 13.3525 64.7454 13.3525C64.2425 13.3698 63.7396 13.3872 63.2541 13.4045C62.4217 13.4219 61.6067 13.4392 60.809 13.4565C59.5257 13.4912 58.2425 13.5259 57.0113 13.6126L56.0922 13.682C55.7801 13.7167 55.4853 13.7513 55.1905 13.786C55.1385 13.786 55.0864 13.8034 55.0344 13.8034C54.5315 13.8727 54.0287 13.9594 53.5431 14.0115C53.4911 14.0115 53.4564 14.0288 53.4044 14.0288C52.8148 14.0982 52.2425 14.1675 51.6703 14.2196C51.3755 14.2369 51.098 14.2716 50.7859 14.2889C50.6124 14.3063 50.439 14.3063 50.2656 14.3236C50.1096 14.3409 49.9535 14.3409 49.7801 14.3409H49.7281C49.7107 14.3409 49.6934 14.3409 49.6761 14.3409C49.6414 14.3409 49.624 14.3409 49.5893 14.3236C49.4159 14.2889 49.2599 14.1849 49.1558 14.0288C49.1385 14.0115 49.1211 13.9768 49.1038 13.9594C49.0864 13.9074 49.0691 13.8727 49.0518 13.8207C49.0518 13.8034 49.0518 13.8034 49.0518 13.786C49.0518 13.7687 49.0518 13.7687 49.0518 13.7513C49.0518 13.734 49.0518 13.7167 49.0518 13.6993C49.0518 13.5779 49.0864 13.4565 49.1385 13.3525C49.3639 12.9883 49.6414 12.6589 49.9535 12.3987C50.2136 12.1733 50.5084 11.9826 50.7859 11.7918C51.046 11.6357 51.3061 11.497 51.5836 11.393C51.6529 11.3583 51.7223 11.3409 51.7743 11.3063C51.9998 11.2196 52.2425 11.1502 52.4853 11.0808C52.5893 11.0462 52.7107 11.0288 52.8148 10.9941C53.1616 10.9074 53.5257 10.8554 53.8726 10.8207C54.2194 10.786 54.5836 10.7687 54.9304 10.7687C55.2772 10.7514 55.624 10.7687 55.9708 10.7687L56.4911 10.786C56.6645 10.8034 56.8379 10.8207 57.0113 10.8207C58.3812 10.9421 59.7165 11.2022 61.0171 11.5837C61.2772 11.6531 61.5199 11.7398 61.7627 11.8265C62.1616 11.9652 62.5431 12.104 62.9246 12.26C63.5488 12.5201 64.1558 12.7976 64.7627 13.1618C64.8321 13.2311 64.8321 13.2831 64.8148 13.3178Z" fill="url(#paint14_linear_643_1456)"/>
<path d="M53.7688 5.34125C53.4913 6.19096 53.1965 6.95396 52.9017 7.71697C52.6069 8.46263 52.3294 9.17361 52.0867 9.88459C52.0173 10.11 51.9306 10.3181 51.8613 10.5262C51.8266 10.6476 51.7745 10.7863 51.7399 10.9077C51.6878 11.0811 51.6358 11.2545 51.6012 11.4279C51.5665 11.584 51.5144 11.7401 51.4624 11.8788C51.3584 12.1909 51.2196 12.4857 51.0636 12.7979C50.9769 12.9539 50.8901 13.11 50.7861 13.2661C50.6994 13.4048 50.6127 13.5435 50.4913 13.717C50.474 13.7516 50.4393 13.7863 50.4046 13.8383L50.3353 13.925C50.3006 13.9597 50.2832 13.9944 50.2486 14.0291C50.1272 14.1505 49.9538 14.2198 49.7804 14.2372C49.711 14.2372 49.6416 14.2372 49.5896 14.2198C49.4855 14.2025 49.3988 14.1678 49.3121 14.0985C49.2948 14.0811 49.2601 14.0638 49.2428 14.0464C49.2081 14.0118 49.1561 13.9771 49.1214 13.925C49.104 13.9077 49.0867 13.873 49.052 13.8557L49.0347 13.8383C48.948 13.7516 48.8786 13.6476 48.8266 13.5435C48.6705 13.2834 48.5665 12.9886 48.4971 12.7112C48.4971 12.6938 48.4798 12.6765 48.4798 12.6592C48.3584 12.1563 48.3757 11.636 48.4624 11.1678C48.4971 10.9424 48.5665 10.717 48.6358 10.5089C48.7225 10.2661 48.8266 10.0407 48.9306 9.81523C49.1214 9.41638 49.3295 9.05222 49.5722 8.7054C49.5896 8.68806 49.6069 8.65338 49.6243 8.63604C50.1271 7.89038 50.7341 7.23142 51.393 6.65916C51.7225 6.36437 52.0867 6.10425 52.4509 5.87882C52.815 5.63604 53.2138 5.42795 53.6474 5.27188C53.6994 5.25454 53.7514 5.27188 53.7688 5.32391C53.7688 5.28922 53.7688 5.32391 53.7688 5.34125Z" fill="url(#paint15_linear_643_1456)"/>
<path d="M36.9825 8.65304C37.5721 8.46229 38.1617 8.32356 38.7686 8.23685C39.3755 8.13281 39.9824 8.08078 40.6067 8.06344C41.8379 8.02876 43.1038 8.13281 44.3524 8.4276C45.6009 8.7224 46.8495 9.22529 48.0113 9.97095C48.5836 10.3698 49.0865 10.8727 49.468 11.4623C49.8321 12.0692 50.1096 12.7455 50.1096 13.4912C50.1096 14.0114 49.6934 14.4449 49.1732 14.4449C49.0171 14.4449 48.8784 14.4103 48.7397 14.3409L48.6183 14.2889C48.046 14.0114 47.6472 13.7166 47.231 13.4392C46.8148 13.1617 46.4506 12.8842 46.0691 12.5894C45.3235 11.9652 44.4218 11.4449 43.4507 10.9767C42.4796 10.5085 41.4218 10.127 40.3293 9.7802C39.2368 9.43338 38.1096 9.12124 36.9304 8.82645C36.8784 8.80911 36.8611 8.75708 36.8611 8.7224C36.9304 8.67038 36.9478 8.65304 36.9825 8.65304Z" fill="url(#paint16_linear_643_1456)"/>
<path d="M37.3987 17.7745C37.5895 17.2369 37.867 16.7513 38.1791 16.3005C38.5086 15.8496 38.8901 15.4161 39.3063 15.0346C40.1386 14.2716 41.1271 13.63 42.2022 13.1964C42.7398 12.971 43.2947 12.7802 43.867 12.6589C44.4392 12.5201 45.0115 12.4161 45.6011 12.3987C45.7398 12.3987 45.8959 12.3987 46.0346 12.3987C46.1733 12.3987 46.3294 12.4161 46.4681 12.4334C46.7629 12.4681 47.0403 12.5375 47.3178 12.6242C47.8727 12.8149 48.4103 13.0924 48.8785 13.5606C49.2773 13.9594 49.2774 14.6184 48.8612 15.0172C48.8091 15.0693 48.7398 15.1213 48.6704 15.156L48.5837 15.208C48.3062 15.3814 48.0461 15.4681 47.8034 15.5548C47.5606 15.6415 47.3178 15.7109 47.075 15.7629C46.8496 15.8149 46.6068 15.8496 46.3814 15.8843C46.2774 15.9016 46.156 15.9016 46.0519 15.919C45.9479 15.9363 45.8265 15.9363 45.7224 15.9363C44.838 15.9363 43.9537 15.971 43.0519 16.0924C42.1502 16.2138 41.2485 16.4219 40.3294 16.7167C39.4103 17.0115 38.4739 17.393 37.5201 17.8785C37.4681 17.8958 37.4161 17.8785 37.3987 17.8438C37.3814 17.8265 37.3814 17.7918 37.3987 17.7745Z" fill="url(#paint17_linear_643_1456)"/>
<path opacity="0.25" d="M60.3584 40.9593C59.7341 42.9882 58.9191 44.9304 57.8959 46.7339C57.6705 47.15 57.4278 47.5489 57.185 47.9477C56.8382 48.4853 56.4913 49.0229 56.1272 49.5258C55.711 50.098 55.2775 50.6529 54.8439 51.1905C54.8266 51.2078 54.8093 51.2252 54.8093 51.2425C54.7226 51.3466 54.6185 51.4679 54.5318 51.572H47.6995V40.942H60.3584V40.9593Z" fill="url(#paint18_linear_643_1456)"/>
<path opacity="0.25" d="M44.8555 40.9593H16.4683V51.5893H44.8555V40.9593Z" fill="url(#paint19_linear_643_1456)"/>
<path opacity="0.25" d="M13.6765 40.9593V51.5893H9.96552C8.5609 49.9593 7.32967 48.1905 6.30655 46.283C5.40482 44.6009 4.65916 42.8321 4.10425 40.9766H13.6765V40.9593Z" fill="url(#paint20_linear_643_1456)"/>
<path d="M15.5492 38.4971H14.6821V54.0694H15.5492V38.4971Z" fill="url(#paint21_linear_643_1456)"/>
<path d="M46.7457 38.4971H45.8787V54.0693H46.7457V38.4971Z" fill="url(#paint22_linear_643_1456)"/>
<path d="M61.1213 37.8033C61.0346 38.2368 60.9479 38.6703 60.8438 39.1039H3.6012C3.49716 38.6703 3.41044 38.2368 3.32373 37.8033H61.1213Z" fill="url(#paint23_linear_643_1456)"/>
<path d="M60.6879 39.7455C60.6358 39.9709 60.5665 40.179 60.5145 40.4044H3.93073C3.86137 40.1963 3.80935 39.9709 3.75732 39.7455H60.6879Z" fill="url(#paint24_linear_643_1456)"/>
<path d="M9.75732 25.0578C10.0001 24.9884 10.2602 24.9537 10.5203 24.9364C10.7804 24.919 11.0405 24.9364 11.3007 24.9884C11.5608 25.0404 11.8209 25.1271 12.0463 25.3005C12.2718 25.4566 12.4625 25.682 12.5839 25.9422L12.2718 25.9248C12.4278 25.6994 12.5839 25.474 12.8093 25.3005C13.0174 25.1098 13.2602 24.9711 13.5377 24.9017C13.7978 24.8323 14.0752 24.8323 14.3353 24.867C14.5954 24.9017 14.8556 24.9537 15.1157 24.9884C14.8556 24.9884 14.5954 24.9537 14.3353 24.9537C14.0752 24.9537 13.8151 24.9884 13.5897 25.0751C13.3642 25.1618 13.1562 25.3179 13.0001 25.4913C12.8267 25.6647 12.7053 25.8901 12.6012 26.0982L12.4105 26.4624L12.2718 26.0809C12.2024 25.8555 12.081 25.6647 11.8903 25.5086C11.7169 25.3526 11.4914 25.2312 11.266 25.1618C11.0232 25.0925 10.7804 25.0404 10.5203 25.0404C10.2775 25.0231 10.0174 25.0231 9.75732 25.0578Z" fill="url(#paint25_linear_643_1456)"/>
<path d="M24.4797 22.9942C24.7225 22.9249 24.9827 22.8902 25.2428 22.8728C25.5029 22.8555 25.763 22.8728 26.0231 22.9249C26.2832 22.9769 26.5433 23.0636 26.7687 23.237C26.9942 23.3931 27.1849 23.6185 27.3063 23.8786L26.9942 23.8613C27.1503 23.6358 27.3063 23.4104 27.5318 23.237C27.7399 23.0463 27.9826 22.9075 28.2601 22.8382C28.5202 22.7688 28.7977 22.7688 29.0578 22.8035C29.3179 22.8382 29.578 22.8902 29.8381 22.9249C29.578 22.9249 29.3179 22.8902 29.0578 22.8902C28.7977 22.8902 28.5375 22.9249 28.3121 23.0116C28.0867 23.0983 27.8786 23.2543 27.7225 23.4278C27.5491 23.6012 27.4277 23.8266 27.3237 24.0347L27.1329 24.3989L26.9942 24.0174C26.9248 23.7919 26.8034 23.6012 26.6127 23.4451C26.4393 23.289 26.2138 23.1676 25.9884 23.0983C25.7456 23.0289 25.5029 22.9769 25.2428 22.9769C25 22.9596 24.7399 22.9595 24.4797 22.9942Z" fill="url(#paint26_linear_643_1456)"/>
<path d="M13.7976 21.8843C14.0404 21.8149 14.3005 21.7629 14.5606 21.7455C14.8207 21.7282 15.0808 21.7282 15.3583 21.7802C15.6184 21.8322 15.8959 21.9189 16.1386 22.075C16.3814 22.2311 16.5721 22.4738 16.7109 22.734L16.2773 22.6993C16.4334 22.4738 16.6069 22.2484 16.8323 22.075C17.0404 21.8843 17.3005 21.7455 17.5779 21.6935C17.8554 21.6241 18.1329 21.6415 18.393 21.6762C18.6531 21.7108 18.9132 21.7802 19.1733 21.8149C18.9132 21.8149 18.6531 21.7975 18.393 21.7975C18.1329 21.7975 17.8901 21.8322 17.6646 21.9363C17.2138 22.127 16.919 22.5259 16.7109 22.9594L16.4507 23.497L16.2773 22.9247C16.208 22.7166 16.1039 22.5259 15.9305 22.3698C15.7571 22.2137 15.549 22.0923 15.3236 22.023C15.0981 21.9363 14.838 21.9016 14.5953 21.8843C14.3005 21.8496 14.0577 21.8496 13.7976 21.8843Z" fill="url(#paint27_linear_643_1456)"/>
<path d="M51.6184 24.4855C51.7051 24.919 51.7918 25.3525 51.8785 25.7861H54.1329C54.0115 25.1965 53.8727 24.6242 53.7514 24.0346C53.3352 22.2138 52.867 20.393 52.3121 18.6069C51.7571 16.8034 51.1329 15.0173 50.3005 13.2832L48.6184 14.0635C49.3294 15.6936 49.9017 17.4104 50.3699 19.1618C50.8381 20.9132 51.2542 22.6994 51.6184 24.4855Z" fill="#664B35"/>
<path opacity="0.4" d="M51.6184 24.4856C51.7051 24.9191 51.7918 25.3526 51.8785 25.7862H52.9537C52.7456 24.7804 52.5028 23.7919 52.26 22.8035C51.7745 20.8613 51.2543 18.9365 50.63 17.0463C50.2485 15.9191 49.8496 14.792 49.3814 13.6821L48.6184 14.0463C49.3294 15.6763 49.9017 17.3931 50.3872 19.1445C50.8554 20.896 51.2542 22.6821 51.6184 24.4856Z" fill="url(#paint28_linear_643_1456)"/>
<path d="M53.89 24.9535C53.734 25.0923 53.5605 25.1443 53.3871 25.179C53.2137 25.2137 53.023 25.2137 52.8496 25.231C52.6762 25.2483 52.4854 25.2657 52.312 25.2657C52.1386 25.2483 51.9305 25.2483 51.7917 25.1096C51.9825 25.1096 52.1386 25.1096 52.312 25.1096C52.4854 25.1096 52.6588 25.0923 52.8322 25.0576C53.0056 25.0229 53.179 24.9709 53.3524 24.9362C53.5258 24.9015 53.6993 24.8842 53.89 24.9535Z" fill="url(#paint29_linear_643_1456)"/>
<path d="M52.7454 20.4451C52.6414 20.6185 52.468 20.6879 52.2946 20.7399C52.1212 20.7919 51.9477 20.7919 51.757 20.8093C51.5836 20.8266 51.3928 20.8266 51.2194 20.7919C51.046 20.7572 50.8726 20.7052 50.7339 20.5665C50.9246 20.5838 51.0633 20.6185 51.2368 20.6358C51.3928 20.6532 51.5662 20.6532 51.7396 20.6185C51.913 20.6012 52.0691 20.5318 52.2252 20.4798C52.3986 20.4624 52.5547 20.4278 52.7454 20.4451Z" fill="url(#paint30_linear_643_1456)"/>
<path d="M50.2311 13.9075C50.2484 13.9249 50.2485 13.9422 50.2485 13.9769C50.2485 13.9942 50.2485 14.0289 50.2485 14.0463V14.185C50.2485 14.2717 50.2311 14.3584 50.2311 14.4451C50.2138 14.6185 50.1964 14.7746 50.1617 14.9307C50.1097 15.2428 50.0404 15.5203 49.9537 15.7804C49.7803 16.3179 49.5375 16.7688 49.2427 17.2197C48.6704 18.1214 48.2022 19.1098 47.786 20.1503C47.5953 20.6705 47.3872 21.2081 47.2311 21.763C47.075 22.3179 46.9016 22.8902 46.7803 23.4798C46.7456 23.6185 46.7109 23.7746 46.6762 23.9306C46.6415 24.0867 46.6242 24.2254 46.5895 24.3815C46.5548 24.5376 46.5201 24.6936 46.5028 24.8324C46.4854 24.9884 46.4508 25.1445 46.4161 25.3006C46.364 25.6127 46.312 25.9249 46.2427 26.237C46.1906 26.5491 46.1386 26.8786 46.0693 27.2081C46.0519 27.2601 46.0173 27.2948 45.9652 27.2775C45.9305 27.2775 45.9132 27.2601 45.9132 27.2254C45.7398 26.9306 45.5837 26.6358 45.445 26.341C45.3756 26.185 45.3063 26.0289 45.2542 25.8728C45.1849 25.7168 45.1155 25.5607 45.0635 25.4046C44.838 24.7804 44.6473 24.1214 44.5259 23.4451C44.2658 22.1098 44.2138 20.7052 44.3872 19.3006C44.5606 17.896 44.9594 16.5087 45.6011 15.1908C45.9132 14.5318 46.3467 13.9249 46.9363 13.4567C47.2311 13.2139 47.5432 13.0058 47.9247 12.8497C48.0114 12.8151 48.1155 12.7804 48.2022 12.7457C48.3063 12.711 48.3929 12.6763 48.497 12.659C48.601 12.6243 48.7051 12.607 48.8091 12.5896L49.1733 12.5549C49.5375 12.2601 50.0924 12.3122 50.3872 12.6763C50.6646 13.0752 50.6126 13.6127 50.2311 13.9075Z" fill="url(#paint31_linear_643_1456)"/>
<path d="M49.6762 13.4393C50.3178 13.2138 50.9941 13.2312 51.6357 13.3179C52.2774 13.4393 52.8843 13.6647 53.4219 13.9768C53.9768 14.289 54.445 14.6878 54.8959 15.0866C55.1213 15.2947 55.3294 15.5028 55.5375 15.7283C55.7456 15.9364 55.9363 16.1791 56.127 16.4046C56.8727 17.3236 57.4797 18.3294 57.9652 19.3699C58.208 19.8901 58.416 20.4277 58.5895 20.9826C58.7629 21.5375 58.9016 22.0924 58.9536 22.6647C58.9536 22.7167 58.919 22.7687 58.8669 22.7687C58.8323 22.7687 58.8149 22.7687 58.7976 22.7514C57.9826 21.971 57.2022 21.208 56.4218 20.4797C55.6415 19.7514 54.8611 19.0751 54.0808 18.4681C53.682 18.1733 53.3005 17.8785 52.9016 17.6184C52.5028 17.3583 52.0866 17.1329 51.7051 16.8901C51.3236 16.6473 50.9421 16.4046 50.5779 16.1271C50.1964 15.8497 49.8149 15.5722 49.3987 15.1734L49.312 15.0866C48.9305 14.7225 48.9132 14.0982 49.2947 13.7167C49.3988 13.5606 49.5375 13.4913 49.6762 13.4393Z" fill="url(#paint32_linear_643_1456)"/>
<path d="M64.8148 13.3178C64.7974 13.3352 64.7801 13.3525 64.7454 13.3525C64.2425 13.3698 63.7396 13.3872 63.2541 13.4045C62.4217 13.4219 61.6067 13.4392 60.809 13.4565C59.5257 13.4912 58.2425 13.5259 57.0113 13.6126L56.0922 13.682C55.7801 13.7167 55.4853 13.7513 55.1905 13.786C55.1385 13.786 55.0864 13.8034 55.0344 13.8034C54.5315 13.8727 54.0287 13.9594 53.5431 14.0115C53.4911 14.0115 53.4564 14.0288 53.4044 14.0288C52.8148 14.0982 52.2425 14.1675 51.6703 14.2196C51.3755 14.2369 51.098 14.2716 50.7859 14.2889C50.6124 14.3063 50.439 14.3063 50.2656 14.3236C50.1096 14.3409 49.9535 14.3409 49.7801 14.3409H49.7281C49.7107 14.3409 49.6934 14.3409 49.6761 14.3409C49.6414 14.3409 49.624 14.3409 49.5893 14.3236C49.4159 14.2889 49.2599 14.1849 49.1558 14.0288C49.1385 14.0115 49.1211 13.9768 49.1038 13.9594C49.0864 13.9074 49.0691 13.8727 49.0518 13.8207C49.0518 13.8034 49.0518 13.8034 49.0518 13.786C49.0518 13.7687 49.0518 13.7687 49.0518 13.7513C49.0518 13.734 49.0518 13.7167 49.0518 13.6993C49.0518 13.5779 49.0864 13.4565 49.1385 13.3525C49.3639 12.9883 49.6414 12.6589 49.9535 12.3987C50.2136 12.1733 50.5084 11.9826 50.7859 11.7918C51.046 11.6357 51.3061 11.497 51.5836 11.393C51.6529 11.3583 51.7223 11.3409 51.7743 11.3063C51.9998 11.2196 52.2425 11.1502 52.4853 11.0808C52.5893 11.0462 52.7107 11.0288 52.8148 10.9941C53.1616 10.9074 53.5257 10.8554 53.8726 10.8207C54.2194 10.786 54.5836 10.7687 54.9304 10.7687C55.2772 10.7514 55.624 10.7687 55.9708 10.7687L56.4911 10.786C56.6645 10.8034 56.8379 10.8207 57.0113 10.8207C58.3812 10.9421 59.7165 11.2022 61.0171 11.5837C61.2772 11.6531 61.5199 11.7398 61.7627 11.8265C62.1616 11.9652 62.5431 12.104 62.9246 12.26C63.5488 12.5201 64.1558 12.7976 64.7627 13.1618C64.8321 13.2311 64.8321 13.2831 64.8148 13.3178Z" fill="url(#paint33_linear_643_1456)"/>
<path d="M53.7688 5.34125C53.4913 6.19096 53.1965 6.95396 52.9017 7.71697C52.6069 8.46263 52.3294 9.17361 52.0867 9.88459C52.0173 10.11 51.9306 10.3181 51.8613 10.5262C51.8266 10.6476 51.7745 10.7863 51.7399 10.9077C51.6878 11.0811 51.6358 11.2545 51.6012 11.4279C51.5665 11.584 51.5144 11.7401 51.4624 11.8788C51.3584 12.1909 51.2196 12.4857 51.0636 12.7979C50.9769 12.9539 50.8901 13.11 50.7861 13.2661C50.6994 13.4048 50.6127 13.5435 50.4913 13.717C50.474 13.7516 50.4393 13.7863 50.4046 13.8383L50.3353 13.925C50.3006 13.9597 50.2832 13.9944 50.2486 14.0291C50.1272 14.1505 49.9538 14.2198 49.7804 14.2372C49.711 14.2372 49.6416 14.2372 49.5896 14.2198C49.4855 14.2025 49.3988 14.1678 49.3121 14.0985C49.2948 14.0811 49.2601 14.0638 49.2428 14.0464C49.2081 14.0118 49.1561 13.9771 49.1214 13.925C49.104 13.9077 49.0867 13.873 49.052 13.8557L49.0347 13.8383C48.948 13.7516 48.8786 13.6476 48.8266 13.5435C48.6705 13.2834 48.5665 12.9886 48.4971 12.7112C48.4971 12.6938 48.4798 12.6765 48.4798 12.6592C48.3584 12.1563 48.3757 11.636 48.4624 11.1678C48.4971 10.9424 48.5665 10.717 48.6358 10.5089C48.7225 10.2661 48.8266 10.0407 48.9306 9.81523C49.1214 9.41638 49.3295 9.05222 49.5722 8.7054C49.5896 8.68806 49.6069 8.65338 49.6243 8.63604C50.1271 7.89038 50.7341 7.23142 51.393 6.65916C51.7225 6.36437 52.0867 6.10425 52.4509 5.87882C52.815 5.63604 53.2138 5.42795 53.6474 5.27188C53.6994 5.25454 53.7514 5.27188 53.7688 5.32391C53.7688 5.28922 53.7688 5.32391 53.7688 5.34125Z" fill="url(#paint34_linear_643_1456)"/>
<path d="M36.9825 8.65304C37.5721 8.46229 38.1617 8.32356 38.7686 8.23685C39.3755 8.13281 39.9824 8.08078 40.6067 8.06344C41.8379 8.02876 43.1038 8.13281 44.3524 8.4276C45.6009 8.7224 46.8495 9.22529 48.0113 9.97095C48.5836 10.3698 49.0865 10.8727 49.468 11.4623C49.8321 12.0692 50.1096 12.7455 50.1096 13.4912C50.1096 14.0114 49.6934 14.4449 49.1732 14.4449C49.0171 14.4449 48.8784 14.4103 48.7397 14.3409L48.6183 14.2889C48.046 14.0114 47.6472 13.7166 47.231 13.4392C46.8148 13.1617 46.4506 12.8842 46.0691 12.5894C45.3235 11.9652 44.4218 11.4449 43.4507 10.9767C42.4796 10.5085 41.4218 10.127 40.3293 9.7802C39.2368 9.43338 38.1096 9.12124 36.9304 8.82645C36.8784 8.80911 36.8611 8.75708 36.8611 8.7224C36.9304 8.67038 36.9478 8.65304 36.9825 8.65304Z" fill="url(#paint35_linear_643_1456)"/>
<path d="M37.3987 17.7745C37.5895 17.2369 37.867 16.7513 38.1791 16.3005C38.5086 15.8496 38.8901 15.4161 39.3063 15.0346C40.1386 14.2716 41.1271 13.63 42.2022 13.1964C42.7398 12.971 43.2947 12.7802 43.867 12.6589C44.4392 12.5201 45.0115 12.4161 45.6011 12.3987C45.7398 12.3987 45.8959 12.3987 46.0346 12.3987C46.1733 12.3987 46.3294 12.4161 46.4681 12.4334C46.7629 12.4681 47.0403 12.5375 47.3178 12.6242C47.8727 12.8149 48.4103 13.0924 48.8785 13.5606C49.2773 13.9594 49.2774 14.6184 48.8612 15.0172C48.8091 15.0693 48.7398 15.1213 48.6704 15.156L48.5837 15.208C48.3062 15.3814 48.0461 15.4681 47.8034 15.5548C47.5606 15.6415 47.3178 15.7109 47.075 15.7629C46.8496 15.8149 46.6068 15.8496 46.3814 15.8843C46.2774 15.9016 46.156 15.9016 46.0519 15.919C45.9479 15.9363 45.8265 15.9363 45.7224 15.9363C44.838 15.9363 43.9537 15.971 43.0519 16.0924C42.1502 16.2138 41.2485 16.4219 40.3294 16.7167C39.4103 17.0115 38.4739 17.393 37.5201 17.8785C37.4681 17.8958 37.4161 17.8785 37.3987 17.8438C37.3814 17.8265 37.3814 17.7918 37.3987 17.7745Z" fill="url(#paint36_linear_643_1456)"/>
<circle cx="32.5" cy="32.5" r="32" stroke="#D9F2A5"/>
<defs>
<linearGradient id="paint0_linear_643_1456" x1="33.0389" y1="61.4687" x2="33.0389" y2="6.62426" gradientUnits="userSpaceOnUse">
<stop stop-color="#34C2AF"/>
<stop offset="1" stop-color="#1CA698"/>
</linearGradient>
<linearGradient id="paint1_linear_643_1456" x1="32.2291" y1="32.6118" x2="32.2291" y2="57.4142" gradientUnits="userSpaceOnUse">
<stop stop-color="#EDEDED"/>
<stop offset="0.5141" stop-color="#E9E9E9"/>
<stop offset="0.9955" stop-color="#DEDEDE"/>
</linearGradient>
<linearGradient id="paint2_linear_643_1456" x1="32.285" y1="49.8853" x2="32.9648" y2="62.4618" gradientUnits="userSpaceOnUse">
<stop stop-color="#EFBA7F"/>
<stop offset="1" stop-color="#DEA464"/>
</linearGradient>
<linearGradient id="paint3_linear_643_1456" x1="48.6077" y1="32.653" x2="56.1094" y2="32.653" gradientUnits="userSpaceOnUse">
<stop stop-color="#4F3C2B"/>
<stop offset="1" stop-color="#3B2D20"/>
</linearGradient>
<linearGradient id="paint4_linear_643_1456" x1="54.8229" y1="51.1777" x2="54.3562" y2="51.1705" gradientUnits="userSpaceOnUse">
<stop stop-color="#4F3C2B"/>
<stop offset="1" stop-color="#3B2D20"/>
</linearGradient>
<linearGradient id="paint5_linear_643_1456" x1="57.0669" y1="47.0898" x2="54.2266" y2="47.0457" gradientUnits="userSpaceOnUse">
<stop stop-color="#4F3C2B"/>
<stop offset="1" stop-color="#3B2D20"/>
</linearGradient>
<linearGradient id="paint6_linear_643_1456" x1="56.6535" y1="42.6327" x2="54.0404" y2="42.5922" gradientUnits="userSpaceOnUse">
<stop stop-color="#4F3C2B"/>
<stop offset="1" stop-color="#3B2D20"/>
</linearGradient>
<linearGradient id="paint7_linear_643_1456" x1="56.1187" y1="37.9365" x2="53.5237" y2="37.8963" gradientUnits="userSpaceOnUse">
<stop stop-color="#4F3C2B"/>
<stop offset="1" stop-color="#3B2D20"/>
</linearGradient>
<linearGradient id="paint8_linear_643_1456" x1="55.5364" y1="33.6406" x2="53.2139" y2="33.6046" gradientUnits="userSpaceOnUse">
<stop stop-color="#4F3C2B"/>
<stop offset="1" stop-color="#3B2D20"/>
</linearGradient>
<linearGradient id="paint9_linear_643_1456" x1="54.9503" y1="29.7808" x2="52.5396" y2="29.7434" gradientUnits="userSpaceOnUse">
<stop stop-color="#4F3C2B"/>
<stop offset="1" stop-color="#3B2D20"/>
</linearGradient>
<linearGradient id="paint10_linear_643_1456" x1="53.92" y1="25.0925" x2="51.7498" y2="25.0588" gradientUnits="userSpaceOnUse">
<stop stop-color="#4F3C2B"/>
<stop offset="1" stop-color="#3B2D20"/>
</linearGradient>
<linearGradient id="paint11_linear_643_1456" x1="52.8044" y1="20.6455" x2="50.707" y2="20.613" gradientUnits="userSpaceOnUse">
<stop stop-color="#4F3C2B"/>
<stop offset="1" stop-color="#3B2D20"/>
</linearGradient>
<linearGradient id="paint12_linear_643_1456" x1="51.6899" y1="19.897" x2="43.5886" y2="19.7714" gradientUnits="userSpaceOnUse">
<stop stop-color="#D9F2A5"/>
<stop offset="1" stop-color="#9CC079"/>
</linearGradient>
<linearGradient id="paint13_linear_643_1456" x1="59.6946" y1="17.215" x2="48.6114" y2="18.9834" gradientUnits="userSpaceOnUse">
<stop stop-color="#D9F2A5"/>
<stop offset="1" stop-color="#9CC079"/>
</linearGradient>
<linearGradient id="paint14_linear_643_1456" x1="66.2837" y1="13.5994" x2="48.0222" y2="12.2107" gradientUnits="userSpaceOnUse">
<stop stop-color="#D9F2A5"/>
<stop offset="1" stop-color="#9CC079"/>
</linearGradient>
<linearGradient id="paint15_linear_643_1456" x1="54.5354" y1="3.9817" x2="47.9266" y2="14.5547" gradientUnits="userSpaceOnUse">
<stop stop-color="#D9F2A5"/>
<stop offset="1" stop-color="#9CC079"/>
</linearGradient>
<linearGradient id="paint16_linear_643_1456" x1="50.5121" y1="10.383" x2="35.9114" y2="12.5058" gradientUnits="userSpaceOnUse">
<stop stop-color="#D9F2A5"/>
<stop offset="1" stop-color="#9CC079"/>
</linearGradient>
<linearGradient id="paint17_linear_643_1456" x1="50.4755" y1="15.2675" x2="35.7346" y2="15.0389" gradientUnits="userSpaceOnUse">
<stop stop-color="#D9F2A5"/>
<stop offset="1" stop-color="#9CC079"/>
</linearGradient>
<linearGradient id="paint18_linear_643_1456" x1="60.1782" y1="39.1675" x2="50.6883" y2="46.5781" gradientUnits="userSpaceOnUse">
<stop stop-color="#EDEDED"/>
<stop offset="0.5141" stop-color="#E9E9E9"/>
<stop offset="0.9955" stop-color="#DEDEDE"/>
</linearGradient>
<linearGradient id="paint19_linear_643_1456" x1="43.3977" y1="36.3362" x2="26.8088" y2="49.2906" gradientUnits="userSpaceOnUse">
<stop stop-color="#EDEDED"/>
<stop offset="0.5141" stop-color="#E9E9E9"/>
<stop offset="0.9955" stop-color="#DEDEDE"/>
</linearGradient>
<linearGradient id="paint20_linear_643_1456" x1="14.8785" y1="41.6001" x2="9.43008" y2="45.8547" gradientUnits="userSpaceOnUse">
<stop stop-color="#EDEDED"/>
<stop offset="0.5141" stop-color="#E9E9E9"/>
<stop offset="0.9955" stop-color="#DEDEDE"/>
</linearGradient>
<linearGradient id="paint21_linear_643_1456" x1="15.1155" y1="38.4903" x2="15.1155" y2="54.0627" gradientUnits="userSpaceOnUse">
<stop stop-color="#EDEDED"/>
<stop offset="0.5141" stop-color="#E9E9E9"/>
<stop offset="0.9955" stop-color="#DEDEDE"/>
</linearGradient>
<linearGradient id="paint22_linear_643_1456" x1="46.3146" y1="38.4903" x2="46.3146" y2="54.0626" gradientUnits="userSpaceOnUse">
<stop stop-color="#EDEDED"/>
<stop offset="0.5141" stop-color="#E9E9E9"/>
<stop offset="0.9955" stop-color="#DEDEDE"/>
</linearGradient>
<linearGradient id="paint23_linear_643_1456" x1="32.2291" y1="39.0965" x2="32.2291" y2="37.8798" gradientUnits="userSpaceOnUse">
<stop stop-color="#EDEDED"/>
<stop offset="0.5141" stop-color="#E9E9E9"/>
<stop offset="0.9955" stop-color="#DEDEDE"/>
</linearGradient>
<linearGradient id="paint24_linear_643_1456" x1="32.2292" y1="40.3971" x2="32.2292" y2="39.7888" gradientUnits="userSpaceOnUse">
<stop stop-color="#EDEDED"/>
<stop offset="0.5141" stop-color="#E9E9E9"/>
<stop offset="0.9955" stop-color="#DEDEDE"/>
</linearGradient>
<linearGradient id="paint25_linear_643_1456" x1="9.72169" y1="25.6514" x2="15.1225" y2="25.6514" gradientUnits="userSpaceOnUse">
<stop stop-color="#4F3C2B"/>
<stop offset="1" stop-color="#3B2D20"/>
</linearGradient>
<linearGradient id="paint26_linear_643_1456" x1="24.4412" y1="23.5831" x2="29.8421" y2="23.5831" gradientUnits="userSpaceOnUse">
<stop stop-color="#4F3C2B"/>
<stop offset="1" stop-color="#3B2D20"/>
</linearGradient>
<linearGradient id="paint27_linear_643_1456" x1="13.741" y1="22.5665" x2="19.1584" y2="22.5665" gradientUnits="userSpaceOnUse">
<stop stop-color="#4F3C2B"/>
<stop offset="1" stop-color="#3B2D20"/>
</linearGradient>
<linearGradient id="paint28_linear_643_1456" x1="48.6073" y1="19.7331" x2="56.2914" y2="19.7331" gradientUnits="userSpaceOnUse">
<stop stop-color="#4F3C2B"/>
<stop offset="1" stop-color="#3B2D20"/>
</linearGradient>
<linearGradient id="paint29_linear_643_1456" x1="53.92" y1="25.0925" x2="51.7498" y2="25.0588" gradientUnits="userSpaceOnUse">
<stop stop-color="#4F3C2B"/>
<stop offset="1" stop-color="#3B2D20"/>
</linearGradient>
<linearGradient id="paint30_linear_643_1456" x1="52.8044" y1="20.6455" x2="50.707" y2="20.613" gradientUnits="userSpaceOnUse">
<stop stop-color="#4F3C2B"/>
<stop offset="1" stop-color="#3B2D20"/>
</linearGradient>
<linearGradient id="paint31_linear_643_1456" x1="51.6899" y1="19.897" x2="43.5886" y2="19.7714" gradientUnits="userSpaceOnUse">
<stop stop-color="#D9F2A5"/>
<stop offset="1" stop-color="#9CC079"/>
</linearGradient>
<linearGradient id="paint32_linear_643_1456" x1="59.6946" y1="17.215" x2="48.6114" y2="18.9834" gradientUnits="userSpaceOnUse">
<stop stop-color="#D9F2A5"/>
<stop offset="1" stop-color="#9CC079"/>
</linearGradient>
<linearGradient id="paint33_linear_643_1456" x1="66.2837" y1="13.5994" x2="48.0222" y2="12.2107" gradientUnits="userSpaceOnUse">
<stop stop-color="#D9F2A5"/>
<stop offset="1" stop-color="#9CC079"/>
</linearGradient>
<linearGradient id="paint34_linear_643_1456" x1="54.5354" y1="3.9817" x2="47.9266" y2="14.5547" gradientUnits="userSpaceOnUse">
<stop stop-color="#D9F2A5"/>
<stop offset="1" stop-color="#9CC079"/>
</linearGradient>
<linearGradient id="paint35_linear_643_1456" x1="50.5121" y1="10.383" x2="35.9114" y2="12.5058" gradientUnits="userSpaceOnUse">
<stop stop-color="#D9F2A5"/>
<stop offset="1" stop-color="#9CC079"/>
</linearGradient>
<linearGradient id="paint36_linear_643_1456" x1="50.4755" y1="15.2675" x2="35.7346" y2="15.0389" gradientUnits="userSpaceOnUse">
<stop stop-color="#D9F2A5"/>
<stop offset="1" stop-color="#9CC079"/>
</linearGradient>
</defs>
</svg>
