<svg width="65" height="66" viewBox="0 0 65 66" fill="none" xmlns="http://www.w3.org/2000/svg">
<path d="M61.6588 33.3987C61.6588 49.6299 48.497 62.7917 32.2658 62.7917C26.4566 62.7917 21.0462 61.1096 16.4855 58.1963C14.7167 57.0692 13.0693 55.7512 11.578 54.2599C11.0231 53.705 10.4855 53.1327 9.98261 52.5432C9.73984 52.2484 9.49706 51.9709 9.25429 51.6588C9.02886 51.3813 8.82076 51.1038 8.61267 50.8264C8.47394 50.653 8.35255 50.4622 8.23117 50.2888C8.17914 50.2541 8.14446 50.2195 8.12712 50.1501C7.24273 48.8669 6.44504 47.5143 5.76874 46.0923C5.52597 45.5894 5.30054 45.0865 5.09245 44.5836C4.2254 42.5027 3.60112 40.2831 3.23696 37.994C3.20227 37.8206 3.18493 37.6472 3.16759 37.4912C3.15025 37.3524 3.13291 37.2137 3.11557 37.075C3.0462 36.5374 2.99419 35.9825 2.9595 35.4276C2.90748 34.7513 2.89014 34.075 2.89014 33.3987C2.89014 17.1675 16.052 4.00568 32.2831 4.00568C48.497 4.00568 61.6588 17.1502 61.6588 33.3987Z" fill="url(#paint0_linear_643_1059)"/>
<path d="M61.4161 10.6127L54.4103 12.1907L33.4624 0.190751L39.3583 0L61.4161 10.6127Z" fill="#4F3C2B"/>
<path d="M54.4103 12.1908L52.2253 43.5434L59.2311 41.9827L61.4161 10.6128L54.4103 12.1908Z" fill="#382B1E"/>
<path d="M32.1792 27.5722L33.6879 0.641632L54.1502 12.3295L52 43.0404L32.1792 27.5722Z" fill="#1CA698"/>
<path d="M33.9305 1.07534L53.8727 12.4857L51.7744 42.555L32.4392 27.4684L33.9305 1.07534ZM33.4623 0.190948L31.9189 27.6764L52.2253 43.5435L54.4102 12.1736L33.4623 0.190948Z" fill="#604835"/>
<path d="M33.4145 7.02914L33.1421 7.47232L53.4251 19.9412L53.6976 19.498L33.4145 7.02914Z" fill="#604835"/>
<path d="M32.7324 20.595L32.4297 21.0181L52.3719 35.2839L52.6746 34.8608L32.7324 20.595Z" fill="#604835"/>
<path d="M33.1633 13.9508L32.8657 14.3775L53.0767 28.4749L53.3744 28.0482L33.1633 13.9508Z" fill="#604835"/>
<path opacity="0.32" d="M54.4101 15.3815L36.5315 5.16769L36.6876 2.61856L54.4101 12.1908V15.3815Z" fill="url(#paint1_linear_643_1059)"/>
<path d="M51.6354 17.8438L50.5776 17.2542L50.7857 12.7455L51.8435 13.3351L51.6354 17.8438Z" fill="#136262"/>
<path d="M51.8437 13.3351L55.0865 12.7455L53.9766 12.1906L50.7859 12.7455L51.8437 13.3351Z" fill="#197C79"/>
<path d="M51.8436 13.3351L51.6355 17.8438L54.8262 17.2369L55.0864 12.7455L51.8436 13.3351Z" fill="#0E423F"/>
<path d="M51.1326 12.7975L51.9129 13.2136L54.9476 12.6761L54.1326 12.2599L51.1326 12.7975Z" fill="#0E423F"/>
<path d="M45.4797 14.1157L44.4219 13.5261L44.63 9.0174L45.6878 9.60699L45.4797 14.1157Z" fill="#136262"/>
<path d="M45.6877 9.60695L48.9131 9.01735L47.8033 8.4451L44.6299 9.01735L45.6877 9.60695Z" fill="#197C79"/>
<path d="M45.6878 9.60699L45.4797 14.1157L48.6705 13.5087L48.9133 9.0174L45.6878 9.60699Z" fill="#0E423F"/>
<path d="M44.9768 9.06943L45.7572 9.48562L48.7745 8.94804L47.9768 8.53186L44.9768 9.06943Z" fill="#0E423F"/>
<path d="M46.9362 15.0176L45.8784 14.4107L46.1038 9.90201L47.1617 10.5089L46.9362 15.0176Z" fill="#136262"/>
<path d="M47.1616 10.5089L50.387 9.90199L49.2772 9.34708L46.1038 9.90199L47.1616 10.5089Z" fill="#197C79"/>
<path d="M47.1615 10.5089L46.936 15.0176L50.1441 14.3933L50.3869 9.90201L47.1615 10.5089Z" fill="#0E423F"/>
<path d="M46.4507 9.97156L47.2137 10.3877L50.2484 9.83283L49.4333 9.43399L46.4507 9.97156Z" fill="#0E423F"/>
<path d="M36.5314 8.53209L35.4736 7.9425L35.6817 3.43384L36.7395 4.02343L36.5314 8.53209Z" fill="#136262"/>
<path d="M36.7394 4.02336L39.9649 3.43376L38.8724 2.86151L35.6816 3.43376L36.7394 4.02336Z" fill="#197C79"/>
<path d="M36.7396 4.02343L36.5315 8.53209L39.7222 7.92516L39.965 3.43384L36.7396 4.02343Z" fill="#0E423F"/>
<path d="M36.0286 3.48572L36.8089 3.90191L39.8436 3.36433L39.0286 2.94815L36.0286 3.48572Z" fill="#0E423F"/>
<path d="M37.7973 9.34685L36.7395 8.75726L36.9649 4.2486L38.0227 4.83819L37.7973 9.34685Z" fill="#136262"/>
<path d="M38.0226 4.83815L41.2481 4.24855L40.1383 3.6763L36.9648 4.24855L38.0226 4.83815Z" fill="#197C79"/>
<path d="M38.0228 4.83819L37.7974 9.34685L41.0054 8.73992L41.2482 4.2486L38.0228 4.83819Z" fill="#0E423F"/>
<path d="M37.2944 4.30051L38.0748 4.71669L41.1095 4.17912L40.2944 3.76294L37.2944 4.30051Z" fill="#0E423F"/>
<path d="M40.0168 10.4392L38.8723 10.0404L38.3 5.56641L39.4446 5.96525L40.0168 10.4392Z" fill="#136262"/>
<path d="M39.4448 5.96521L42.5142 4.8207L41.335 4.45654L38.3003 5.56637L39.4448 5.96521Z" fill="#197C79"/>
<path d="M39.4446 5.96531L40.0168 10.4393L43.0515 9.27744L42.5139 4.8208L39.4446 5.96531Z" fill="#0E423F"/>
<path d="M38.647 5.54916L39.4793 5.82661L42.3753 4.76881L41.5082 4.5087L38.647 5.54916Z" fill="#0E423F"/>
<path opacity="0.32" d="M53.1267 24.1908L36.8262 13.4914L36.9822 9.90176L53.8724 20.0983L53.1267 24.1908Z" fill="url(#paint2_linear_643_1059)"/>
<path d="M39.219 17.7397L34.9185 14.809L35.0572 13.5605L39.3578 16.4911L39.219 17.7397Z" fill="#136262"/>
<path d="M39.358 16.4912L42.7395 15.2947L42.6181 16.5086L39.2192 17.7398L39.358 16.4912Z" fill="#136262"/>
<path d="M35.0571 13.5606L38.0918 12.6242L42.7392 15.2947L39.3577 16.4913L35.0571 13.5606Z" fill="#197C79"/>
<path d="M42.7218 15.4681L39.4964 16.63L39.4097 17.4623L42.6351 16.3352L42.7218 15.4681Z" fill="#0E423F"/>
<path d="M40.3635 16.6821L36.063 13.7514L36.2017 12.4855L40.5196 15.4162L40.3635 16.6821Z" fill="#136262"/>
<path d="M40.5196 15.4161L43.8838 14.2196L43.7797 15.4508L40.3635 16.682L40.5196 15.4161Z" fill="#136262"/>
<path d="M36.2017 12.4854L39.2363 11.5664L43.8837 14.2196L40.5196 15.4161L36.2017 12.4854Z" fill="#197C79"/>
<path d="M43.8663 14.3929L40.6409 15.5548L40.5542 16.3871L43.797 15.2773L43.8663 14.3929Z" fill="#0E423F"/>
<path d="M39.7569 15.1906L35.4563 12.2599L35.595 10.994L39.8956 13.9247L39.7569 15.1906Z" fill="#136262"/>
<path d="M39.8956 13.9246L43.2771 12.7281L43.1557 13.9593L39.7568 15.1905L39.8956 13.9246Z" fill="#136262"/>
<path d="M35.595 10.9942L38.6296 10.0751L43.277 12.7283L39.8955 13.9248L35.595 10.9942Z" fill="#197C79"/>
<path d="M43.2597 12.9018L40.0342 14.0636L39.9475 14.896L43.173 13.7862L43.2597 12.9018Z" fill="#0E423F"/>
<path d="M42.6872 20.1329L41.6294 19.5433L41.8548 15.0346L42.9126 15.6242L42.6872 20.1329Z" fill="#136262"/>
<path d="M42.9126 15.6242L46.138 15.0346L45.0281 14.4797L41.8547 15.0346L42.9126 15.6242Z" fill="#197C79"/>
<path d="M42.9127 15.6242L42.6873 20.1329L45.8953 19.5259L46.1381 15.0346L42.9127 15.6242Z" fill="#0E423F"/>
<path d="M42.2017 15.0865L42.9647 15.5027L45.9993 14.9651L45.1843 14.549L42.2017 15.0865Z" fill="#0E423F"/>
<path d="M44.6816 21.572L43.6238 20.9824L43.8492 16.4738L44.907 17.0634L44.6816 21.572Z" fill="#136262"/>
<path d="M44.9069 17.0634L48.1324 16.4738L47.0225 15.9189L43.8491 16.4738L44.9069 17.0634Z" fill="#197C79"/>
<path d="M44.9071 17.0634L44.6816 21.572L47.8897 20.9651L48.1325 16.4738L44.9071 17.0634Z" fill="#0E423F"/>
<path d="M44.196 16.5259L44.9764 16.9421L47.9937 16.4046L47.196 15.9884L44.196 16.5259Z" fill="#0E423F"/>
<path d="M32.9419 20.6878L52.2251 34.4392L52.6933 28.2658L33.254 14.7225L32.9419 20.6878Z" fill="#1CA698"/>
<path opacity="0.32" d="M52.6934 30.399L36.1848 18.9192L36.3236 15.3296L53.231 25.5261L52.6934 30.399Z" fill="url(#paint3_linear_643_1059)"/>
<path d="M38.2832 23.8786L33.9827 20.948L34.1214 19.6995L38.4393 22.6301L38.2832 23.8786Z" fill="#136262"/>
<path d="M38.4393 22.63L41.8034 21.4161L41.6994 22.6474L38.2832 23.8786L38.4393 22.63Z" fill="#136262"/>
<path d="M34.1213 19.6993L37.156 18.7629L41.8034 21.4161L38.4393 22.63L34.1213 19.6993Z" fill="#197C79"/>
<path d="M41.786 21.5893L38.5606 22.7685L38.4739 23.6009L41.7167 22.4737L41.786 21.5893Z" fill="#0E423F"/>
<path d="M45.2199 29.1676L44.1621 28.4219L44.4743 23.4797L45.5321 24.0866L45.2199 29.1676Z" fill="#136262"/>
<path d="M45.5319 24.0866L48.7747 23.4797L47.6648 22.9248L44.4741 23.4797L45.5319 24.0866Z" fill="#197C79"/>
<path d="M45.5319 24.0866L45.2197 29.1676L48.4105 28.5433L48.7746 23.4797L45.5319 24.0866Z" fill="#0E423F"/>
<path d="M44.8208 23.5316L45.6011 23.9478L48.6358 23.4103L47.8208 23.0114L44.8208 23.5316Z" fill="#0E423F"/>
<path d="M46.8842 30.2081L45.8264 29.4625L46.1386 24.5203L47.1964 25.1272L46.8842 30.2081Z" fill="#136262"/>
<path d="M47.1962 25.1272L50.439 24.5202L49.3292 23.9653L46.1384 24.5202L47.1962 25.1272Z" fill="#197C79"/>
<path d="M47.1962 25.1272L46.884 30.2081L50.0748 29.5838L50.4389 24.5203L47.1962 25.1272Z" fill="#0E423F"/>
<path d="M46.4854 24.5722L47.2657 24.9884L50.3004 24.4508L49.4853 24.052L46.4854 24.5722Z" fill="#0E423F"/>
<path d="M48.2541 31.387L47.1963 30.6587L47.5258 25.6992L48.5836 26.3061L48.2541 31.387Z" fill="#136262"/>
<path d="M48.5837 26.3061L51.8091 25.6992L50.6993 25.1443L47.5259 25.6992L48.5837 26.3061Z" fill="#197C79"/>
<path d="M48.5836 26.3061L48.2542 31.387L51.4622 30.7801L51.8091 25.6992L48.5836 26.3061Z" fill="#0E423F"/>
<path d="M47.8726 25.7685L48.6529 26.1847L51.6702 25.6471L50.8725 25.2309L47.8726 25.7685Z" fill="#0E423F"/>
<path d="M50.7341 32.7398L49.5549 32.1849L49.0867 27.26L50.2138 27.6762L50.7341 32.7398Z" fill="#136262"/>
<path d="M50.2138 27.6764L53.3179 26.5666L52.1213 26.1851L49.0867 27.2602L50.2138 27.6764Z" fill="#197C79"/>
<path d="M50.2136 27.6765L50.7339 32.74L53.7859 31.6302L53.3177 26.5667L50.2136 27.6765Z" fill="#0E423F"/>
<path d="M49.4336 27.2602L50.2659 27.5376L53.1619 26.5145L52.2949 26.2371L49.4336 27.2602Z" fill="#0E423F"/>
<path opacity="0.32" d="M52.6934 37.6996L36.1848 26.2199L36.3236 22.6303L53.231 32.8095L52.6934 37.6996Z" fill="url(#paint4_linear_643_1059)"/>
<path d="M34.2602 28.2663L33.2024 27.538L33.5319 22.5784L34.5897 23.1854L34.2602 28.2663Z" fill="#136262"/>
<path d="M34.5898 23.1853L37.8152 22.5784L36.7054 22.0235L33.532 22.5784L34.5898 23.1853Z" fill="#197C79"/>
<path d="M34.5897 23.1854L34.2603 28.2663L37.4683 27.6593L37.8152 22.5784L34.5897 23.1854Z" fill="#0E423F"/>
<path d="M33.8787 22.6477L34.6417 23.0639L37.6763 22.509L36.8613 22.1101L33.8787 22.6477Z" fill="#0E423F"/>
<path d="M35.7341 29.341L34.6763 28.6127L35.0057 23.6705L36.0635 24.2601L35.7341 29.341Z" fill="#136262"/>
<path d="M36.0637 24.2601L39.2891 23.6705L38.1793 23.0982L35.0059 23.6705L36.0637 24.2601Z" fill="#197C79"/>
<path d="M36.0636 24.2601L35.7341 29.341L38.9422 28.7341L39.289 23.6705L36.0636 24.2601Z" fill="#0E423F"/>
<path d="M35.3525 23.7226L36.1329 24.1388L39.1502 23.6012L38.3525 23.185L35.3525 23.7226Z" fill="#0E423F"/>
<path d="M37.2599 30.7285L36.2021 29.9828L36.5143 25.0406L37.5721 25.6476L37.2599 30.7285Z" fill="#136262"/>
<path d="M37.572 25.6475L40.8147 25.0406L39.7049 24.4857L36.5142 25.0406L37.572 25.6475Z" fill="#197C79"/>
<path d="M37.5719 25.6476L37.2598 30.7285L40.4505 30.1042L40.8147 25.0406L37.5719 25.6476Z" fill="#0E423F"/>
<path d="M36.8611 25.0925L37.6414 25.5087L40.6761 24.9711L39.8611 24.555L36.8611 25.0925Z" fill="#0E423F"/>
<path d="M39.7226 32.0809L38.5607 31.526L38.0752 26.5838L39.2197 27L39.7226 32.0809Z" fill="#136262"/>
<path d="M39.2197 27.0001L42.3064 25.8903L41.1272 25.5261L38.0752 26.5839L39.2197 27.0001Z" fill="#197C79"/>
<path d="M39.2197 27.0001L39.7226 32.0811L42.7746 30.9539L42.3064 25.8903L39.2197 27.0001Z" fill="#0E423F"/>
<path d="M38.4221 26.584L39.2718 26.8788L42.1678 25.8557L41.3007 25.5782L38.4221 26.584Z" fill="#0E423F"/>
<path d="M47.5606 38.3589L43.26 35.4283L43.3987 34.1624L47.7166 37.093L47.5606 38.3589Z" fill="#136262"/>
<path d="M47.7166 37.093L51.0808 35.8965L50.9767 37.1277L47.5605 38.3589L47.7166 37.093Z" fill="#136262"/>
<path d="M43.3987 34.1623L46.4334 33.2433L51.0808 35.8964L47.7166 37.093L43.3987 34.1623Z" fill="#197C79"/>
<path d="M51.0636 36.0699L47.8382 37.2317L47.7515 38.0641L50.9942 36.9543L51.0636 36.0699Z" fill="#0E423F"/>
<path d="M48.7051 37.2835L44.4045 34.3528L44.5606 33.1043L48.8612 36.0349L48.7051 37.2835Z" fill="#136262"/>
<path d="M48.8612 36.0351L52.2253 34.8212L52.1213 36.0524L48.7051 37.2836L48.8612 36.0351Z" fill="#136262"/>
<path d="M44.5605 33.1044L47.5779 32.168L52.2253 34.8211L48.8611 36.035L44.5605 33.1044Z" fill="#197C79"/>
<path d="M52.2255 34.9944L48.9827 36.1736L48.896 37.0059L52.1388 35.8788L52.2255 34.9944Z" fill="#0E423F"/>
<path opacity="0.08" d="M47.7514 58.196H16.4856C14.7168 57.0688 13.0694 55.7509 11.5781 54.2596C11.0232 53.7047 10.4856 53.1324 9.98272 52.5428C9.73994 52.248 9.49717 51.9706 9.25439 51.6584H41.7861L42.2197 52.1267L44.1445 54.2249L44.8555 54.9879L47.4046 57.7798L47.7514 58.196Z" fill="#136262"/>
<path d="M36.4451 37.9764V31.0226C36.4451 30.5197 36.0463 30.1209 35.5434 30.1209H28.2081C27.7052 30.1209 27.3064 30.5197 27.3064 31.0226V37.9764H36.4451Z" fill="#1CA698"/>
<path d="M28.6763 31.4909H27.2891V29.9303C27.2891 29.7048 27.4798 29.5141 27.7053 29.5141H28.2602C28.4856 29.5141 28.6763 29.7048 28.6763 29.9303V31.4909Z" fill="#1CA698"/>
<path d="M28.2254 29.6875H27.7572C27.5665 29.6875 27.4104 29.5314 27.4104 29.3407V28.8725C27.4104 28.6817 27.5665 28.5256 27.7572 28.5256H28.2254C28.4162 28.5256 28.5722 28.6817 28.5722 28.8725V29.3407C28.5549 29.5314 28.4162 29.6875 28.2254 29.6875Z" fill="#1CA698"/>
<path d="M36.4451 31.4909H35.0579V29.9303C35.0579 29.7048 35.2486 29.5141 35.474 29.5141H36.029C36.2544 29.5141 36.4451 29.7048 36.4451 29.9303V31.4909Z" fill="#1CA698"/>
<path d="M35.9769 29.6875H35.5087C35.3179 29.6875 35.1619 29.5314 35.1619 29.3407V28.8725C35.1619 28.6817 35.3179 28.5256 35.5087 28.5256H35.9769C36.1677 28.5256 36.3237 28.6817 36.3237 28.8725V29.3407C36.3237 29.5314 36.1677 29.6875 35.9769 29.6875Z" fill="#1CA698"/>
<path d="M34.4855 37.9418H29.3699C28.9884 37.9418 28.6763 37.6297 28.6763 37.2482V32.2886C28.6763 31.9071 28.9884 31.595 29.3699 31.595H34.4855C34.867 31.595 35.1791 31.9071 35.1791 32.2886V37.2482C35.1791 37.6297 34.867 37.9418 34.4855 37.9418Z" fill="#136262"/>
<path d="M29.3528 31.8723L34.7285 31.8897C34.8499 31.8897 34.9539 31.9937 34.9539 32.1151L35.0406 37.3694C35.0406 37.5255 34.9713 37.6642 34.8325 37.7509L34.7285 37.8203C34.7285 37.8203 34.6938 33.5891 34.6765 32.8608C34.6591 32.2885 34.3643 32.1671 33.9308 32.1498C33.5146 32.1151 29.3528 31.8723 29.3528 31.8723Z" fill="#1CA698"/>
<path d="M13.0696 37.9764V31.0226C13.0696 30.5197 12.6708 30.1209 12.1679 30.1209H4.83264C4.32975 30.1209 3.93091 30.5197 3.93091 31.0226V37.9764H13.0696Z" fill="#1CA698"/>
<path d="M5.31819 31.4909H3.93091V29.9303C3.93091 29.7048 4.12166 29.5141 4.3471 29.5141H4.902C5.12743 29.5141 5.31819 29.7048 5.31819 29.9303V31.4909Z" fill="#1CA698"/>
<path d="M4.84994 29.6875H4.38173C4.19098 29.6875 4.03491 29.5314 4.03491 29.3407V28.8725C4.03491 28.6817 4.19098 28.5256 4.38173 28.5256H4.84994C5.04069 28.5256 5.19676 28.6817 5.19676 28.8725V29.3407C5.19676 29.5314 5.04069 29.6875 4.84994 29.6875Z" fill="#1CA698"/>
<path d="M13.0697 31.4909H11.6824V29.9303C11.6824 29.7048 11.8731 29.5141 12.0986 29.5141H12.6535C12.8789 29.5141 13.0697 29.7048 13.0697 29.9303V31.4909Z" fill="#1CA698"/>
<path d="M12.6014 29.6875H12.1332C11.9424 29.6875 11.7864 29.5314 11.7864 29.3407V28.8725C11.7864 28.6817 11.9424 28.5256 12.1332 28.5256H12.6014C12.7922 28.5256 12.9482 28.6817 12.9482 28.8725V29.3407C12.9482 29.5314 12.7922 29.6875 12.6014 29.6875Z" fill="#1CA698"/>
<path d="M11.11 37.9418H5.99442C5.61292 37.9418 5.30078 37.6297 5.30078 37.2482V32.2886C5.30078 31.9071 5.61292 31.595 5.99442 31.595H11.11C11.4915 31.595 11.8037 31.9071 11.8037 32.2886V37.2482C11.8037 37.6297 11.4915 37.9418 11.11 37.9418Z" fill="#136262"/>
<path d="M5.99438 31.8723L11.3701 31.8897C11.4915 31.8897 11.5955 31.9937 11.5955 32.1151L11.6822 37.3694C11.6822 37.5255 11.6129 37.6642 11.4741 37.7509L11.3701 37.8203C11.3701 37.8203 11.3354 33.5891 11.3181 32.8608C11.3007 32.2885 11.0059 32.1671 10.5724 32.1498C10.1389 32.1151 5.99438 31.8723 5.99438 31.8723Z" fill="#1CA698"/>
<path d="M44.83 58.1848L47.3792 58.1848L47.3792 46.0808L44.83 46.0808L44.83 58.1848Z" fill="#D9F2A5"/>
<path d="M38.1513 49.0146L40.7004 49.0146L40.7004 36.9106L38.1513 36.9106L38.1513 49.0146Z" fill="#D9F2A5"/>
<path d="M44.8211 58.1961L44.1274 57.4851V46.092H44.8211V58.1961Z" fill="#CCE39A"/>
<path d="M38.1621 49.0225L37.6938 48.5543V45.4329H38.1621V49.0225Z" fill="#CCE39A"/>
<path d="M47.3702 44.5832H5.07545C4.2084 42.5023 3.58413 40.2827 3.21997 37.9937H41.2314L42.2892 39.1382L47.3702 44.5832Z" fill="url(#paint5_linear_643_1059)"/>
<path d="M7.84986 41.4098C7.84986 41.6006 8.76893 41.7567 9.87876 41.7567C10.9886 41.7567 11.9077 41.6006 11.9077 41.4098V40.8376H7.83252V41.3752V41.4098H7.84986Z" fill="#382B1E"/>
<path d="M9.87875 41.1844C10.9993 41.1844 11.9077 41.0291 11.9077 40.8375C11.9077 40.646 10.9993 40.4907 9.87875 40.4907C8.75822 40.4907 7.84985 40.646 7.84985 40.8375C7.84985 41.0291 8.75822 41.1844 9.87875 41.1844Z" fill="#4F3C2B"/>
<path d="M9.87879 40.9588C9.68804 40.9588 9.54932 40.8027 9.54932 40.6293V30.6929C9.54932 30.5022 9.70538 30.3635 9.87879 30.3635C10.0695 30.3635 10.2083 30.5195 10.2083 30.6929V40.6293C10.2083 40.8027 10.0695 40.9588 9.87879 40.9588Z" fill="#382B1E"/>
<path opacity="0.37" d="M7.84988 30.8144L4.74585 38.5311L14.4221 38.6352L11.9077 30.8144H7.84988Z" fill="url(#paint6_radial_643_1059)"/>
<path d="M9.87875 31.1614C10.9993 31.1614 11.9077 31.0061 11.9077 30.8146C11.9077 30.6231 10.9993 30.4678 9.87875 30.4678C8.75822 30.4678 7.84985 30.6231 7.84985 30.8146C7.84985 31.0061 8.75822 31.1614 9.87875 31.1614Z" fill="#D9F2A5"/>
<path d="M7.84985 30.8144C7.84985 30.8144 8.78627 28.7162 8.78627 26.7913C10.3123 26.7913 9.8961 26.7913 9.8961 26.7913V30.8144H7.84985Z" fill="#D9F2A5"/>
<path d="M11.9077 30.8144C11.9077 30.8144 10.9712 28.7162 10.9712 26.7913C9.44522 26.7913 9.86142 26.7913 9.86142 26.7913V30.8144H11.9077Z" fill="#D9F2A5"/>
<path d="M10.9887 26.7914C10.9887 26.8087 10.9887 26.8261 10.9713 26.8261C10.8673 26.9128 10.4164 26.9821 9.89621 26.9821C9.34129 26.9821 8.89042 26.9128 8.80371 26.8261L8.78638 26.7914C8.78638 26.6874 9.28927 26.6006 9.89621 26.6006C10.4685 26.6006 10.954 26.67 10.9887 26.7914Z" fill="#1CA698"/>
<path opacity="0.37" d="M12.2198 23.4272L10.9713 26.7914L10.9539 26.8434C10.8499 26.9301 10.399 26.9995 9.87877 26.9995C9.32386 26.9995 8.873 26.9301 8.78629 26.8434L8.76896 26.8087L7.19092 23.4966L12.2198 23.4272Z" fill="url(#paint7_radial_643_1059)"/>
<path d="M28.7112 41.4098C28.7112 41.6006 29.6302 41.7567 30.7401 41.7567C31.8499 41.7567 32.769 41.6006 32.769 41.4098V40.8376H28.6938V41.3752V41.4098H28.7112Z" fill="#382B1E"/>
<path d="M30.7401 41.1844C31.8606 41.1844 32.769 41.0291 32.769 40.8375C32.769 40.646 31.8606 40.4907 30.7401 40.4907C29.6195 40.4907 28.7112 40.646 28.7112 40.8375C28.7112 41.0291 29.6195 41.1844 30.7401 41.1844Z" fill="#4F3C2B"/>
<path d="M30.7401 40.9588C30.5494 40.9588 30.4106 40.8027 30.4106 40.6293V30.6929C30.4106 30.5022 30.5667 30.3635 30.7401 30.3635C30.9135 30.3635 31.0696 30.5195 31.0696 30.6929V40.6293C31.087 40.8027 30.9309 40.9588 30.7401 40.9588Z" fill="#382B1E"/>
<path opacity="0.37" d="M28.7112 30.8144L25.6072 38.5311L35.2835 38.6352L32.7864 30.8144H28.7112Z" fill="url(#paint8_radial_643_1059)"/>
<path d="M30.7401 31.1614C31.8606 31.1614 32.769 31.0061 32.769 30.8146C32.769 30.6231 31.8606 30.4678 30.7401 30.4678C29.6195 30.4678 28.7112 30.6231 28.7112 30.8146C28.7112 31.0061 29.6195 31.1614 30.7401 31.1614Z" fill="#D9F2A5"/>
<path d="M28.7112 30.8144C28.7112 30.8144 29.6476 28.7162 29.6476 26.7913C31.1736 26.7913 30.7574 26.7913 30.7574 26.7913V30.8144H28.7112Z" fill="#D9F2A5"/>
<path d="M32.7863 30.8144C32.7863 30.8144 31.8499 28.7162 31.8499 26.7913C30.3239 26.7913 30.7401 26.7913 30.7401 26.7913V30.8144H32.7863Z" fill="#D9F2A5"/>
<path d="M31.85 26.7914C31.85 26.8087 31.85 26.8261 31.8327 26.8261C31.7286 26.9128 31.2777 26.9821 30.7575 26.9821C30.2026 26.9821 29.7517 26.9128 29.665 26.8261L29.6477 26.7914C29.6477 26.6874 30.1506 26.6006 30.7575 26.6006C31.3298 26.6006 31.8153 26.67 31.85 26.7914Z" fill="#1CA698"/>
<path opacity="0.37" d="M33.0985 23.4272L31.8499 26.7914L31.8326 26.8434C31.7285 26.9301 31.2777 26.9995 30.7574 26.9995C30.2025 26.9995 29.7517 26.9301 29.665 26.8434L29.6476 26.8087L28.0696 23.4966L33.0985 23.4272Z" fill="url(#paint9_radial_643_1059)"/>
<path d="M47.3702 44.5833V46.092H5.75174C5.50897 45.5891 5.28353 45.0862 5.07544 44.5833H47.3702Z" fill="#CCE39A"/>
<path d="M28.4338 46.543H28.7979C28.8153 46.5777 28.8326 46.6297 28.8673 46.6644C28.9367 46.7684 29.0233 46.8551 29.0927 46.9592C29.1968 47.1152 29.3182 47.254 29.4916 47.3407C29.5783 47.3753 29.6823 47.41 29.769 47.462C29.821 47.4794 29.8731 47.4794 29.9251 47.4967L29.6996 57.225C29.6996 57.4331 29.5262 57.6239 29.3008 57.6239H28.6592C28.4511 57.6239 28.2604 57.4505 28.2604 57.225L28.0349 46.9418C28.0523 46.7164 28.2257 46.543 28.4338 46.543Z" fill="url(#paint10_linear_643_1059)"/>
<path d="M38.977 57.2772L39.2024 46.994C39.2024 46.7859 39.029 46.5951 38.8036 46.5951H37.6938C37.4857 46.5951 37.2949 46.7685 37.2949 46.994L37.5203 57.2772C37.5203 57.4853 37.6938 57.676 37.9192 57.676H38.5608C38.8036 57.676 38.977 57.5026 38.977 57.2772Z" fill="url(#paint11_linear_643_1059)"/>
<path d="M28.2256 45.3291L32.4741 45.3811L32.11 48.4158L31.6591 49.3695L28.6938 46.8551L28.2256 45.3291Z" fill="#136262"/>
<path d="M42.3065 35.358C42.3065 35.0979 42.1504 34.8725 41.9423 34.7511C42.0811 34.647 42.1678 34.491 42.1678 34.3176V34.0748C42.1678 33.7626 41.9077 33.5025 41.5955 33.5025H41.3528C41.0406 33.5025 40.7805 33.7626 40.7805 34.0748V34.3176C40.7805 34.491 40.8672 34.6644 41.0059 34.7511C40.7979 34.8725 40.6418 35.0979 40.6418 35.358V35.4274C40.6071 35.4274 40.5724 35.4274 40.5377 35.4274H33.0291C32.9944 35.4274 32.9597 35.4274 32.925 35.4274V35.358C32.925 35.0979 32.769 34.8725 32.5609 34.7511C32.6996 34.647 32.7863 34.491 32.7863 34.3176V34.0748C32.7863 33.7626 32.5262 33.5025 32.214 33.5025H31.9713C31.6591 33.5025 31.399 33.7626 31.399 34.0748V34.3176C31.399 34.491 31.4857 34.6644 31.6244 34.7511C31.4164 34.8725 31.2603 35.0979 31.2603 35.358V37.0574C31.2603 37.1095 31.2603 37.1441 31.2603 37.1962V48.225C31.2603 48.3291 31.295 48.4158 31.347 48.4852C31.2429 48.5545 31.1736 48.6759 31.1736 48.7973V49.9245C31.1736 50.0459 31.2256 50.1499 31.3123 50.2193C31.2256 50.2886 31.1736 50.3927 31.1736 50.5141L31.399 60.7973C31.399 61.0054 31.5724 61.1961 31.7979 61.1961H32.4395C32.6476 61.1961 32.8383 61.0227 32.8383 60.7973L33.0638 50.5141C33.0638 50.4274 33.0464 50.358 32.9944 50.306H40.4163C40.3817 50.3753 40.347 50.4447 40.347 50.5141L40.5724 60.7973C40.5724 61.0054 40.7458 61.1961 40.9713 61.1961H41.6129C41.821 61.1961 42.0117 61.0227 42.0117 60.7973L42.2372 50.5141C42.2372 50.3927 42.1851 50.2886 42.0984 50.2193C42.1851 50.1499 42.2372 50.0459 42.2372 49.9245V48.7973C42.2372 48.7106 42.2025 48.6239 42.1504 48.5545C42.2545 48.4852 42.3065 48.3638 42.3065 48.225V37.1962C42.3065 37.1441 42.3065 37.1095 42.3065 37.0574V35.358Z" fill="url(#paint12_linear_643_1059)"/>
<path d="M28.1391 47.0286L31.3298 50.254C31.4512 50.3754 31.6767 50.2887 31.6767 50.1153V48.8494C31.6767 48.7627 31.642 48.6933 31.59 48.6239L28.3992 45.3812C28.2778 45.2598 28.0697 45.3465 28.0697 45.5199V46.8031C28.0524 46.8898 28.0697 46.9592 28.1391 47.0286Z" fill="url(#paint13_linear_643_1059)"/>
<path d="M40.4857 45.8494H40.6417V37.0576L40.3123 37.5084L40.4857 45.8494Z" fill="#136262"/>
<path d="M40.6418 37.0576H32.769V37.4391L40.3124 37.5084L40.6418 37.0576Z" fill="#136262"/>
<path d="M40.6418 45.8494H35.8904L40.4857 45.5719L40.6418 45.8494Z" fill="#136262"/>
<path d="M11.7344 46.9418L11.6304 51.6585L11.5783 54.2597C11.0234 53.7048 10.4859 53.1325 9.98296 52.5429L9.96561 51.6585L9.89626 48.7973L9.87891 47.8782L9.86157 47.4794C9.9136 47.4794 9.96561 47.462 10.0176 47.4447C10.1043 47.41 10.2084 47.358 10.2951 47.3233C10.4512 47.2192 10.5899 47.0979 10.6939 46.9418C10.7806 46.8377 10.85 46.751 10.9194 46.647C10.9367 46.6123 10.9714 46.5603 10.9887 46.5256H11.3529C11.5436 46.5256 11.6997 46.6643 11.7344 46.8551C11.7344 46.8898 11.7344 46.9071 11.7344 46.9418Z" fill="url(#paint14_linear_643_1059)"/>
<path d="M11.5437 45.3291L7.3125 45.3811L7.65932 48.4158L8.11018 49.3696L11.0928 46.8551L11.5437 45.3291Z" fill="#136262"/>
<path d="M8.61312 48.7974V49.9246C8.61312 50.0459 8.5611 50.15 8.4744 50.2194C8.5611 50.2887 8.61312 50.3928 8.61312 50.5142V50.8089C8.4744 50.6355 8.35301 50.4448 8.23162 50.2714C8.1796 50.2367 8.14492 50.202 8.12758 50.1326C7.24319 48.8494 6.44549 47.4968 5.7692 46.0749C5.52642 45.572 5.30099 45.0691 5.0929 44.5662C4.22585 42.4853 3.60157 40.2656 3.23741 37.9766C3.20273 37.8032 3.18539 37.6298 3.16804 37.4737C3.1507 37.335 3.13336 37.1963 3.11602 37.0575C3.04666 36.52 2.99464 35.965 2.95996 35.4101H6.77498C6.80966 35.4101 6.84434 35.4101 6.87902 35.4101V35.3408C6.87902 35.0807 7.03509 34.8552 7.24318 34.7338C7.10445 34.6298 7.0351 34.4737 7.0351 34.3003V34.0575C7.0351 33.7454 7.2952 33.5026 7.59 33.5026H7.83278C8.14492 33.5026 8.38769 33.7454 8.38769 34.0575V34.3003C8.38769 34.4737 8.30099 34.6298 8.1796 34.7338C8.38769 34.8552 8.54376 35.0807 8.54376 35.3408V37.0575C8.54376 37.1096 8.54376 37.1442 8.54376 37.1963V48.2251C8.54376 48.2425 8.54376 48.2598 8.54376 48.2945C8.52642 48.3639 8.50907 48.4332 8.45705 48.4853C8.54376 48.5546 8.61312 48.676 8.61312 48.7974Z" fill="url(#paint15_linear_643_1059)"/>
<path d="M11.7344 45.5199V46.8031C11.7344 46.8204 11.7344 46.8551 11.7344 46.8725C11.717 46.9245 11.6997 46.9765 11.6477 47.0285L9.89623 48.8146L8.4916 50.2366L8.47426 50.254C8.4049 50.3233 8.30085 50.3233 8.23148 50.2886C8.17946 50.2539 8.14478 50.2193 8.12744 50.1499C8.12744 50.1326 8.12744 50.1326 8.12744 50.1152V48.8493C8.12744 48.7626 8.16212 48.6933 8.21415 48.6239L8.54362 48.2944L10.7112 46.0921L11.4049 45.3811C11.4396 45.3464 11.4916 45.3291 11.5436 45.3291H11.561C11.6477 45.3291 11.7344 45.3985 11.7344 45.5199Z" fill="url(#paint16_linear_643_1059)"/>
<path d="M7.01768 37.0575V37.4217L5.35295 37.439H5.19687L3.94832 37.4564H3.18532C3.16798 37.3176 3.15064 37.1789 3.1333 37.0402H7.01768V37.0575Z" fill="#136262"/>
<path d="M31.2431 44.5833H25.9368V46.092H31.2431V44.5833Z" fill="#CCE39A"/>
<path d="M12.4454 44.5833H8.5437V46.092H12.4454V44.5833Z" fill="#CCE39A"/>
<circle cx="32.5" cy="33.5" r="32" stroke="#D9F2A5"/>
<defs>
<linearGradient id="paint0_linear_643_1059" x1="32.2702" y1="14.7784" x2="32.2702" y2="59.8151" gradientUnits="userSpaceOnUse">
<stop stop-color="#EFBA7F"/>
<stop offset="0.2825" stop-color="#E7B176"/>
<stop offset="0.7512" stop-color="#D0995C"/>
<stop offset="1" stop-color="#C2894C"/>
</linearGradient>
<linearGradient id="paint1_linear_643_1059" x1="45.4761" y1="10.373" x2="45.6089" y2="3.5547" gradientUnits="userSpaceOnUse">
<stop/>
<stop offset="1" stop-color="#136262"/>
</linearGradient>
<linearGradient id="paint2_linear_643_1059" x1="45.072" y1="18.3379" x2="45.5148" y2="14.0875" gradientUnits="userSpaceOnUse">
<stop/>
<stop offset="1" stop-color="#136262"/>
</linearGradient>
<linearGradient id="paint3_linear_643_1059" x1="44.1205" y1="24.8881" x2="44.7847" y2="21.4346" gradientUnits="userSpaceOnUse">
<stop/>
<stop offset="1" stop-color="#136262"/>
</linearGradient>
<linearGradient id="paint4_linear_643_1059" x1="44.276" y1="31.5065" x2="44.8959" y2="27.9203" gradientUnits="userSpaceOnUse">
<stop/>
<stop offset="1" stop-color="#136262"/>
</linearGradient>
<linearGradient id="paint5_linear_643_1059" x1="25.4925" y1="37.7091" x2="24.8583" y2="49.7598" gradientUnits="userSpaceOnUse">
<stop stop-color="#D9F2A5"/>
<stop offset="1" stop-color="#9CC079"/>
</linearGradient>
<radialGradient id="paint6_radial_643_1059" cx="0" cy="0" r="1" gradientUnits="userSpaceOnUse" gradientTransform="translate(9.7273 31.3205) rotate(-2.77255) scale(5.36596 6.91859)">
<stop stop-color="#F5FFDC"/>
<stop offset="1" stop-color="#F5FFDC" stop-opacity="0"/>
</radialGradient>
<radialGradient id="paint7_radial_643_1059" cx="0" cy="0" r="1" gradientUnits="userSpaceOnUse" gradientTransform="translate(9.9281 26.8307) rotate(-2.77255) scale(2.54564 2.62771)">
<stop stop-color="#F5FFDC"/>
<stop offset="1" stop-color="#F5FFDC" stop-opacity="0"/>
</radialGradient>
<radialGradient id="paint8_radial_643_1059" cx="0" cy="0" r="1" gradientUnits="userSpaceOnUse" gradientTransform="translate(30.5944 31.3205) rotate(-2.77255) scale(5.36597 6.91859)">
<stop stop-color="#F5FFDC"/>
<stop offset="1" stop-color="#F5FFDC" stop-opacity="0"/>
</radialGradient>
<radialGradient id="paint9_radial_643_1059" cx="0" cy="0" r="1" gradientUnits="userSpaceOnUse" gradientTransform="translate(30.7952 26.8307) rotate(-2.77255) scale(2.54564 2.62771)">
<stop stop-color="#F5FFDC"/>
<stop offset="1" stop-color="#F5FFDC" stop-opacity="0"/>
</radialGradient>
<linearGradient id="paint10_linear_643_1059" x1="28.9467" y1="52.2888" x2="28.9845" y2="46.9859" gradientUnits="userSpaceOnUse">
<stop stop-color="#1CA698"/>
<stop offset="0.9972" stop-color="#118276"/>
</linearGradient>
<linearGradient id="paint11_linear_643_1059" x1="37.9737" y1="55.4732" x2="38.2767" y2="49.6401" gradientUnits="userSpaceOnUse">
<stop stop-color="#1CA698"/>
<stop offset="0.9972" stop-color="#118276"/>
</linearGradient>
<linearGradient id="paint12_linear_643_1059" x1="36.7444" y1="44.7674" x2="36.7823" y2="61.0926" gradientUnits="userSpaceOnUse">
<stop stop-color="#1CA698"/>
<stop offset="0.9972" stop-color="#118276"/>
</linearGradient>
<linearGradient id="paint13_linear_643_1059" x1="32.3397" y1="49.8124" x2="28.7982" y2="46.9716" gradientUnits="userSpaceOnUse">
<stop stop-color="#1CA698"/>
<stop offset="0.9972" stop-color="#118276"/>
</linearGradient>
<linearGradient id="paint14_linear_643_1059" x1="10.7734" y1="50.5396" x2="10.7998" y2="46.8475" gradientUnits="userSpaceOnUse">
<stop stop-color="#1CA698"/>
<stop offset="0.9972" stop-color="#118276"/>
</linearGradient>
<linearGradient id="paint15_linear_643_1059" x1="5.7769" y1="40.5507" x2="5.80057" y2="50.7521" gradientUnits="userSpaceOnUse">
<stop stop-color="#1CA698"/>
<stop offset="0.9972" stop-color="#118276"/>
</linearGradient>
<linearGradient id="paint16_linear_643_1059" x1="10.6535" y1="48.3981" x2="9.6219" y2="47.5706" gradientUnits="userSpaceOnUse">
<stop stop-color="#1CA698"/>
<stop offset="0.9972" stop-color="#118276"/>
</linearGradient>
</defs>
</svg>
