<svg width="65" height="65" viewBox="0 0 65 65" fill="none" xmlns="http://www.w3.org/2000/svg">
<path d="M62.15 32.497V32.6357C62.15 33.5721 62.098 34.4912 62.0113 35.4103C62.0113 35.4623 61.994 35.497 61.994 35.549C61.9766 35.7744 61.9419 35.9825 61.9246 36.208C61.7859 37.3351 61.5778 38.445 61.3003 39.5374C61.231 39.8496 61.1442 40.1617 61.0575 40.4739C60.1732 43.6299 58.7685 46.5779 56.9477 49.1964C51.6414 56.8611 42.7801 61.89 32.757 61.89C31.127 61.89 29.5316 61.7513 27.9882 61.5085C22.2484 60.5721 17.0634 57.9709 12.9536 54.2253C12.5374 53.8438 12.1212 53.4449 11.7224 53.0461C9.62412 50.8958 7.85534 48.4334 6.4854 45.7282C6.32933 45.4334 6.1906 45.1212 6.03454 44.8091C5.15014 42.9016 4.47384 40.9074 4.02298 38.8091C3.65882 37.1617 3.43339 35.4623 3.36402 33.7282C3.34668 33.3294 3.34668 32.9305 3.34668 32.5143C3.34668 20.5664 10.4738 10.2832 20.705 5.68779C20.757 5.67045 20.7917 5.65311 20.8438 5.63577C20.9651 5.58375 21.0865 5.53172 21.2079 5.4797C21.8495 5.20224 22.5258 4.94213 23.1848 4.7167C23.2195 4.69936 23.2715 4.68201 23.3062 4.68201C23.3235 4.68201 23.3409 4.66467 23.3582 4.66467C23.9998 4.43924 24.6588 4.24849 25.3351 4.07508C25.5085 4.0404 25.6646 3.98837 25.838 3.95369C27.2079 3.62421 28.6299 3.38144 30.0692 3.26005C30.2426 3.24271 30.3986 3.22537 30.5721 3.22537C30.7802 3.20803 31.0056 3.19069 31.231 3.19069C31.3871 3.19069 31.5605 3.17335 31.7166 3.17335C31.994 3.15601 32.2715 3.15601 32.5489 3.15601H32.7223C32.8611 3.15601 32.9825 3.15601 33.1212 3.15601C33.6588 3.17335 34.179 3.19069 34.6992 3.22537C34.8726 3.24271 35.0287 3.24271 35.2021 3.26005C36.6414 3.38144 38.0634 3.60687 39.4333 3.91901C39.572 3.95369 39.6934 3.98837 39.8322 4.02306C39.8668 4.0404 39.9015 4.0404 39.9362 4.05774C40.4911 4.19647 41.046 4.35253 41.5836 4.52594C41.6009 4.52594 41.6356 4.54329 41.653 4.54329C41.7397 4.57797 41.8264 4.59531 41.9131 4.62999C41.9651 4.64733 42.0345 4.66467 42.0865 4.68201C42.1038 4.68201 42.1038 4.69936 42.1212 4.69936C42.7801 4.92479 43.4217 5.16756 44.0634 5.42768C44.2368 5.49704 44.3928 5.56641 44.5663 5.63577C46.5431 6.50282 48.3986 7.57796 50.1154 8.84386C52.2136 10.3872 54.1211 12.208 55.7339 14.2542C59.7743 19.2311 62.15 25.5779 62.15 32.497Z" fill="url(#paint0_linear_643_998)"/>
<path d="M62.15 32.497V32.6357C62.15 33.5721 62.098 34.4912 62.0113 35.4103C62.0113 35.4623 61.994 35.497 61.994 35.549C61.9766 35.7744 61.9419 35.9825 61.9246 36.208C61.7859 37.3351 61.5778 38.445 61.3003 39.5374C61.231 39.8496 61.1442 40.1617 61.0575 40.4739C60.1732 43.6299 58.7685 46.5779 56.9477 49.1964C51.6414 56.8611 42.7801 61.89 32.757 61.89C31.127 61.89 29.5316 61.7513 27.9882 61.5085C22.2484 60.5721 17.0634 57.9709 12.9536 54.2253C12.5374 53.8438 12.1212 53.4449 11.7224 53.0461C9.62412 50.8958 7.85534 48.4334 6.4854 45.7282C6.32933 45.4334 6.1906 45.1212 6.03454 44.8091C5.15014 42.9016 4.47384 40.9074 4.02298 38.8091C3.65882 37.1617 3.43339 35.4623 3.36402 33.7282C3.34668 33.3294 3.34668 32.9305 3.34668 32.5143C3.34668 20.5664 10.4738 10.2832 20.705 5.68779C20.757 5.67045 20.7917 5.65311 20.8438 5.63577C20.9651 5.58375 21.0865 5.53172 21.2079 5.4797C21.8495 5.20224 22.5258 4.94213 23.1848 4.7167C23.2195 4.69936 23.2715 4.68201 23.3062 4.68201C23.3235 4.68201 23.3409 4.66467 23.3582 4.66467C23.9998 4.43924 24.6588 4.24849 25.3351 4.07508C25.5085 4.0404 25.6646 3.98837 25.838 3.95369C27.2079 3.62421 28.6299 3.38144 30.0692 3.26005C30.2426 3.24271 30.3986 3.22537 30.5721 3.22537C30.7802 3.20803 31.0056 3.19069 31.231 3.19069C31.3871 3.19069 31.5605 3.17335 31.7166 3.17335C31.994 3.15601 32.2715 3.15601 32.5489 3.15601H32.7223C32.8611 3.15601 32.9825 3.15601 33.1212 3.15601C33.6588 3.17335 34.179 3.19069 34.6992 3.22537C34.8726 3.24271 35.0287 3.24271 35.2021 3.26005C36.6414 3.38144 38.0634 3.60687 39.4333 3.91901C39.572 3.95369 39.6934 3.98837 39.8322 4.02306C39.8668 4.0404 39.9015 4.0404 39.9362 4.05774C40.4911 4.19647 41.046 4.35253 41.5836 4.52594C41.6009 4.52594 41.6356 4.54329 41.653 4.54329C41.7397 4.57797 41.8264 4.59531 41.9131 4.62999C41.9651 4.64733 42.0345 4.66467 42.0865 4.68201C42.1038 4.68201 42.1038 4.69936 42.1212 4.69936C42.7801 4.92479 43.4217 5.16756 44.0634 5.42768C44.2368 5.49704 44.3928 5.56641 44.5663 5.63577C46.5431 6.50282 48.3986 7.57796 50.1154 8.84386C52.2136 10.3872 54.1211 12.208 55.7339 14.2542C59.7743 19.2311 62.15 25.5779 62.15 32.497Z" fill="url(#paint1_linear_643_998)"/>
<path d="M27.9883 61.4914L56.9478 49.1793C51.6414 56.844 42.7802 61.8729 32.7571 61.8729C31.127 61.8902 29.5316 61.7515 27.9883 61.4914Z" fill="url(#paint2_linear_643_998)"/>
<path d="M62.0114 35.393C62.0114 35.445 61.9941 35.4797 61.9941 35.5317C61.9768 35.7571 61.9421 35.9652 61.9247 36.1907C61.786 37.3178 61.5779 38.4276 61.3005 39.5201C61.2311 39.8323 61.1444 40.1444 61.0577 40.4565C60.1733 43.6126 58.7687 46.5606 56.9479 49.1791L27.9884 61.4912C22.2485 60.5548 17.0636 57.9536 12.9537 54.208C12.5375 53.8265 12.1214 53.4276 11.7225 53.0288C9.62425 50.8785 7.85547 48.4161 6.48554 45.7109C6.32947 45.4161 6.19074 45.1039 6.03467 44.7918L62.0114 35.393Z" fill="url(#paint3_linear_643_998)"/>
<path d="M62.1502 32.6183C62.1502 33.5547 62.0982 34.4738 62.0115 35.3929C62.0115 35.4449 61.9942 35.4796 61.9942 35.5316L6.05209 44.7917C5.16769 42.8842 4.49139 40.89 4.04053 38.7917L25.9249 36.468H25.9942L35.0289 35.5143L35.185 35.4969L50.1503 33.9016L55.7687 33.312L62.1502 32.6183Z" fill="#EFBA7F"/>
<path d="M62.0114 35.393C62.0114 35.445 61.9941 35.4797 61.9941 35.5317C61.9768 35.7571 61.9421 35.9652 61.9247 36.1907L6.50287 45.7109C6.3468 45.4161 6.20807 45.1039 6.052 44.7918L62.0114 35.393Z" fill="#5E5E5E"/>
<path d="M61.3005 39.5203C61.2312 39.8324 61.1445 40.1445 61.0578 40.4567L52.4566 42.9711L49.8208 42.711L61.3005 39.5203Z" fill="#D9F2A5"/>
<path d="M28.4395 48.4856L31.7863 48.8151L44.1157 45.2949L41.5492 44.9134L28.4395 48.4856Z" fill="#D9F2A5"/>
<path d="M22.8556 51.3813L12.9539 54.2079C12.5377 53.8264 12.1215 53.4275 11.7227 53.0287L19.5955 50.8784L22.8556 51.3813Z" fill="#D9F2A5"/>
<path d="M55.7686 14.2197V33.3122L50.1501 33.9018V8.80933C52.2657 10.3527 54.1559 12.1735 55.7686 14.2197Z" fill="url(#paint4_linear_643_998)"/>
<path d="M55.7686 33.2946L50.1501 32.4969V33.9015L55.7686 33.2946Z" fill="#EFBA7F"/>
<path d="M25.9248 15.7807L34.5086 15.3992L34.4739 35.5494L25.9248 36.4685V15.7807Z" fill="#1CA698"/>
<path d="M33.5202 26.8964L27.104 27.3473V18.1045L33.5202 17.8791V26.8964Z" fill="#136262"/>
<path d="M33.5202 35.6362L27.104 36.2778V28.4917L33.5202 28.0409V35.6362Z" fill="#136262"/>
<path d="M25.9248 15.7807L27.8843 16.457L36.3294 16.1275L34.5086 15.3992L25.9248 15.7807Z" fill="#D9F2A5"/>
<path d="M27.8843 16.457C28.3525 16.6478 28.6126 17.2894 28.4045 18.2605C29.3583 18.4339 36.3294 17.8616 36.3294 17.8616C36.3294 17.8616 36.9363 16.353 36.3294 16.1102C34.9247 15.8674 27.8843 16.457 27.8843 16.457Z" fill="#D9F2A5"/>
<path d="M35.1849 18.0176V35.5494L34.4739 35.3413V18.0176H35.1849Z" fill="#A0A0A0"/>
<path d="M35.4797 35.5841L25.9248 36.4685V36.087L34.4566 35.2547L35.4797 35.5841Z" fill="#EFBA7F"/>
<path d="M44.6185 5.58389V11.185L39.4856 11.4278V3.86713C39.6243 3.90181 39.7457 3.93649 39.8844 3.97117C39.9191 3.98851 39.9538 3.98851 39.9885 4.00585C40.5434 4.14458 41.0983 4.30065 41.6359 4.47406C41.6532 4.47406 41.6879 4.4914 41.7052 4.4914C41.7919 4.52609 41.8787 4.54343 41.9654 4.57811C42.0174 4.59545 42.0867 4.61279 42.1388 4.63013C42.1561 4.63013 42.1561 4.64747 42.1735 4.64747C42.8324 4.8729 43.474 5.11568 44.1156 5.37579C44.2717 5.44516 44.4451 5.51452 44.6185 5.58389Z" fill="#136262"/>
<path d="M44.1154 5.37584V10.5781L42.1212 10.6648H41.9478L39.9709 10.7515V3.98856C40.5259 4.12728 41.0808 4.28335 41.6183 4.45676C41.6357 4.45676 41.6704 4.4741 41.6877 4.4741C41.7744 4.50879 41.8611 4.52613 41.9478 4.56081C41.9998 4.57815 42.0692 4.59549 42.1212 4.61283C42.1386 4.61283 42.1386 4.63017 42.1559 4.63017C42.8322 4.85561 43.4738 5.11572 44.1154 5.37584Z" fill="#D9F2A5"/>
<path d="M42.1214 4.63V11.1849H41.948V4.57797C42.0174 4.59531 42.0694 4.61265 42.1214 4.63Z" fill="#136262"/>
<path d="M42.1733 4.64765H42.1386H41.9652L41.5317 4.66499L39.9884 4.73435H39.8149V4.56094H39.9884L41.6184 4.49158H41.7051C41.7918 4.52626 41.8785 4.5436 41.9652 4.57828C42.0173 4.59562 42.0866 4.61296 42.1386 4.63031C42.1386 4.63031 42.156 4.6303 42.1733 4.64765Z" fill="#136262"/>
<path opacity="0.15" d="M44.6185 5.58398V11.1851L39.4856 11.4279V9.05218L39.9885 7.97704L41.5318 4.66491L41.6185 4.4915L41.6359 4.45682C41.6532 4.45682 41.6879 4.47416 41.7052 4.47416C41.7919 4.50884 41.8787 4.52618 41.9654 4.56086C42.0174 4.5782 42.0867 4.59555 42.1388 4.61289C42.1561 4.61289 42.1561 4.63023 42.1735 4.63023C42.8324 4.85566 43.474 5.09843 44.1156 5.35855C44.2717 5.44525 44.4451 5.51462 44.6185 5.58398Z" fill="#136262"/>
<path opacity="0.15" d="M39.8671 3.97123L39.4683 4.71689V3.88452C39.607 3.90186 39.7457 3.93654 39.8671 3.97123Z" fill="#136262"/>
<path d="M35.2367 3.20807V11.7572L30.1038 12V3.22541C30.2772 3.20807 30.4332 3.19073 30.6067 3.19073C30.8147 3.17339 31.0402 3.15605 31.2656 3.15605C31.4217 3.15605 31.5951 3.13871 31.7512 3.13871C32.0286 3.12137 32.3061 3.12137 32.5835 3.12137H32.7569C32.8957 3.12137 33.0171 3.12137 33.1558 3.12137C33.6934 3.13871 34.2136 3.15605 34.7338 3.19073C34.9072 3.17339 35.0806 3.19073 35.2367 3.20807Z" fill="#136262"/>
<path d="M34.7338 3.17334V11.1502L32.757 11.2369H32.5836L30.6067 11.3236V3.17334C30.8148 3.156 31.0402 3.13865 31.2656 3.13865C31.4217 3.13865 31.5951 3.12131 31.7512 3.12131C32.0286 3.10397 32.3061 3.10397 32.5836 3.10397H32.757C32.8957 3.10397 33.0171 3.10397 33.1558 3.10397C33.6934 3.12131 34.2136 3.13866 34.7338 3.17334Z" fill="#D9F2A5"/>
<path d="M32.7569 3.10397H32.5835V11.7571H32.7569V3.10397Z" fill="#136262"/>
<path d="M35.0973 4.95086L30.4363 5.14203L30.4434 5.3153L35.1044 5.12413L35.0973 4.95086Z" fill="#136262"/>
<path opacity="0.15" d="M35.2367 3.20805V11.7572L30.1038 11.9999V9.62422L30.6067 8.54908L32.15 5.23695L32.2367 5.06354L32.5835 4.31787L32.7569 3.95371L33.1558 3.104C33.6934 3.12134 34.2136 3.13869 34.7338 3.17337C34.9072 3.17337 35.0806 3.19071 35.2367 3.20805Z" fill="#136262"/>
<path opacity="0.15" d="M31.2656 3.13873L30.6413 4.31792L30.624 4.3526L30.1211 5.28902V3.22544C30.2945 3.2081 30.4506 3.19076 30.624 3.19076C30.8147 3.17342 31.0402 3.15607 31.2656 3.13873Z" fill="#136262"/>
<path d="M25.8727 3.91901V12.3294L22.9941 12.4681L20.7397 12.5722V5.67045C20.7918 5.65311 20.8264 5.63577 20.8785 5.61843C20.9999 5.5664 21.1213 5.51438 21.2426 5.46236C21.8843 5.1849 22.5605 4.92478 23.2195 4.69935C23.2542 4.68201 23.3062 4.66467 23.3409 4.66467C23.3582 4.66467 23.3756 4.64733 23.3929 4.64733C24.0345 4.4219 24.6935 4.23114 25.3698 4.05773C25.5259 4.00571 25.6993 3.95369 25.8727 3.91901Z" fill="#136262"/>
<path d="M25.3698 4.04031V11.7224L23.6011 11.8091L23.3756 11.8264L23.2022 11.8438L21.2253 11.9305V5.44494C21.867 5.16748 22.5433 4.90736 23.2022 4.68193C23.2369 4.66459 23.2889 4.64725 23.3236 4.64725C23.341 4.64725 23.3583 4.62991 23.3756 4.62991C24.0346 4.40448 24.6935 4.21372 25.3698 4.04031Z" fill="#D9F2A5"/>
<path d="M23.3929 4.62976V12.3292H23.2195V4.68178C23.2542 4.66444 23.3062 4.6471 23.3409 4.6471C23.3582 4.6471 23.3756 4.62976 23.3929 4.62976Z" fill="#136262"/>
<path d="M25.7152 5.52304L21.0542 5.7142L21.0613 5.88747L25.7223 5.69631L25.7152 5.52304Z" fill="#136262"/>
<path opacity="0.15" d="M25.8727 3.91901V12.3294L22.9941 12.4681L20.7397 12.5722V10.1965L21.2426 9.12131L22.786 5.80918L22.8727 5.63577L23.2195 4.8901L23.3409 4.62999C23.3582 4.62999 23.3756 4.61265 23.3929 4.61265C24.0345 4.38721 24.6935 4.19646 25.3698 4.02305C25.5259 4.00571 25.6993 3.95369 25.8727 3.91901Z" fill="#136262"/>
<path opacity="0.15" d="M20.8785 5.6008L20.7397 5.86091V5.67016C20.7744 5.65282 20.8264 5.61814 20.8785 5.6008Z" fill="#136262"/>
<path d="M18.6762 22.9768C18.6762 29.6011 14.9132 32.2196 10.2832 32.2196C10.1618 32.2196 10.0231 32.2196 9.90168 32.2022C5.44504 32.0115 1.89014 28.4392 1.89014 22.9768C1.89014 16.2485 4.52597 7.49131 7.19649 2.96531C8.28897 1.12717 9.36411 0 10.2832 0C13.3005 0 18.6762 13.5086 18.6762 22.9768Z" fill="url(#paint5_linear_643_998)"/>
<path d="M15.1907 40.5259V41.9479C15.1907 42.156 14.6185 42.3467 13.6994 42.4855C13.6474 42.5028 13.578 42.5028 13.526 42.5028C13.0925 42.5548 12.5896 42.6069 12.0347 42.6415C11.9826 42.6415 11.9133 42.6415 11.8613 42.6415C11.3931 42.6762 10.8902 42.6762 10.3699 42.6762H10.1965C9.6763 42.6762 9.17341 42.6589 8.7052 42.6415C8.65318 42.6415 8.58382 42.6415 8.53179 42.6415C7.97688 42.6069 7.47399 42.5548 7.04046 42.5028C6.98844 42.5028 6.91908 42.4855 6.86705 42.4855C5.94798 42.3467 5.37573 42.156 5.37573 41.9479V40.5259C5.37573 40.734 5.94798 40.9248 6.86705 41.0635C6.91908 41.0809 6.98844 41.0809 7.04046 41.0809C7.47399 41.1502 7.97688 41.1849 8.53179 41.2196C8.58382 41.2196 8.65318 41.2196 8.7052 41.2369C9.17341 41.2543 9.6763 41.2716 10.1965 41.2716H10.3699C10.8902 41.2716 11.3931 41.2543 11.8613 41.2369C11.9133 41.2369 11.9826 41.2369 12.0347 41.2196C12.5896 41.1849 13.0925 41.1329 13.526 41.0809C13.578 41.0809 13.6474 41.0635 13.6994 41.0635C14.6185 40.9421 15.1907 40.734 15.1907 40.5259Z" fill="#7C7C7C"/>
<path d="M6.86705 41.0635V42.4855C5.94798 42.3467 5.37573 42.156 5.37573 41.9479V40.5259C5.37573 40.734 5.94798 40.9421 6.86705 41.0635Z" fill="#A0A0A0"/>
<path d="M8.53186 41.2369V42.6588C7.97694 42.6242 7.47405 42.5721 7.04053 42.5201V41.0981C7.47405 41.1502 7.97694 41.2022 8.53186 41.2369Z" fill="#A0A0A0"/>
<path d="M10.1967 41.2891V42.7111C9.67642 42.7111 9.17353 42.6938 8.70532 42.6764V41.2545C9.17353 41.2718 9.67642 41.2891 10.1967 41.2891Z" fill="#A0A0A0"/>
<path d="M11.8614 41.2371V42.659C11.3932 42.6937 10.8903 42.6937 10.3701 42.6937V41.2717C10.8903 41.2891 11.3932 41.2717 11.8614 41.2371Z" fill="#A0A0A0"/>
<path d="M13.526 41.0981V42.5201C13.0925 42.5721 12.5896 42.6242 12.0347 42.6588V41.2369C12.5896 41.2022 13.0925 41.1502 13.526 41.0981Z" fill="#A0A0A0"/>
<path d="M15.1908 40.5259V41.9479C15.1908 42.156 14.6185 42.3467 13.6995 42.4855V41.0635C14.6185 40.9421 15.1908 40.734 15.1908 40.5259Z" fill="#A0A0A0"/>
<path d="M10.2832 41.2891C12.9936 41.2891 15.1907 40.9631 15.1907 40.5608C15.1907 40.1586 12.9936 39.8325 10.2832 39.8325C7.57289 39.8325 5.37573 40.1586 5.37573 40.5608C5.37573 40.9631 7.57289 41.2891 10.2832 41.2891Z" fill="#A0A0A0"/>
<path d="M10.2832 40.9772C12.5817 40.9772 14.445 40.7753 14.445 40.5263C14.445 40.2773 12.5817 40.0754 10.2832 40.0754C7.98466 40.0754 6.12134 40.2773 6.12134 40.5263C6.12134 40.7753 7.98466 40.9772 10.2832 40.9772Z" fill="#7C7C7C"/>
<path d="M10.2833 9.15628C10.422 10.5262 10.5087 11.9135 10.5954 13.2834C10.6821 14.6534 10.7341 16.0407 10.8035 17.4106C10.8382 18.7805 10.9075 20.1678 10.9249 21.5378L10.9596 23.6013L10.9769 25.6649L10.9942 27.7285V29.7921V31.8557L10.9769 33.9192C10.9422 36.6765 10.8902 39.4337 10.7515 42.1736C10.7341 42.4337 10.5087 42.6418 10.2486 42.6418C10.0058 42.6244 9.79771 42.4337 9.78037 42.1736C9.64164 39.4163 9.58962 36.6591 9.55493 33.9192L9.5376 31.8557V29.7921V27.7285L9.55493 25.6649L9.57228 23.6013L9.60696 21.5378C9.6243 20.1678 9.69366 18.7805 9.72834 17.4106C9.79771 16.0407 9.84973 14.6534 9.93644 13.2834C10.0578 11.8962 10.1445 10.5262 10.2833 9.15628Z" fill="#136262"/>
<circle cx="32.5" cy="32.5" r="32" stroke="#D9F2A5"/>
<defs>
<linearGradient id="paint0_linear_643_998" x1="32.7598" y1="4.08236" x2="32.7598" y2="32.628" gradientUnits="userSpaceOnUse">
<stop stop-color="#EDEDED"/>
<stop offset="0.5181" stop-color="#EAEAEA"/>
<stop offset="0.9647" stop-color="#DFDFDF"/>
<stop offset="0.9955" stop-color="#DEDEDE"/>
</linearGradient>
<linearGradient id="paint1_linear_643_998" x1="34.6091" y1="14.0005" x2="30.8953" y2="51.1394" gradientUnits="userSpaceOnUse">
<stop stop-color="#EDEDED"/>
<stop offset="0.5181" stop-color="#EAEAEA"/>
<stop offset="0.9647" stop-color="#DFDFDF"/>
<stop offset="0.9955" stop-color="#DEDEDE"/>
</linearGradient>
<linearGradient id="paint2_linear_643_998" x1="42.5539" y1="49.413" x2="42.3925" y2="60.8176" gradientUnits="userSpaceOnUse">
<stop stop-color="#EFBA7F"/>
<stop offset="1" stop-color="#DEA464"/>
</linearGradient>
<linearGradient id="paint3_linear_643_998" x1="34.0328" y1="38.2659" x2="34.0328" y2="55.6016" gradientUnits="userSpaceOnUse">
<stop stop-color="#787877"/>
<stop offset="1" stop-color="#545453"/>
</linearGradient>
<linearGradient id="paint4_linear_643_998" x1="50.1564" y1="21.3504" x2="55.7766" y2="21.3504" gradientUnits="userSpaceOnUse">
<stop stop-color="#6B6B6B"/>
<stop offset="1" stop-color="#A0A0A0"/>
</linearGradient>
<linearGradient id="paint5_linear_643_998" x1="9.04457" y1="6.36427" x2="10.9927" y2="32.0437" gradientUnits="userSpaceOnUse">
<stop stop-color="#34C2AF"/>
<stop offset="1" stop-color="#1CA698"/>
</linearGradient>
</defs>
</svg>
