<svg width="32" height="22" viewBox="0 0 32 22" fill="none" xmlns="http://www.w3.org/2000/svg">
<path d="M3.90401 0.919922C2.24588 0.919922 0.880005 2.28579 0.880005 3.94392V18.0559C0.880005 19.7141 2.24588 21.0799 3.90401 21.0799H28.096C29.7541 21.0799 31.12 19.7141 31.12 18.0559V3.94392C31.12 2.28579 29.7541 0.919922 28.096 0.919922H3.90401ZM4.32138 2.93592H27.6767L18.6992 11.8996C17.1944 13.402 14.7872 13.4018 13.2831 11.8977L4.32138 2.93592ZM29.104 4.35933V17.6405L22.4536 10.9999L29.104 4.35933ZM2.896 4.3613L9.53463 10.9999L2.896 17.6385V4.3613ZM21.0282 12.4233L27.6786 19.0639H4.32138L10.96 12.4253L11.8578 13.323C14.1317 15.5969 17.8473 15.5986 20.1226 13.327L21.0282 12.4233Z" fill="#808080"/>
</svg>
