<svg width="30" height="30" viewBox="0 0 30 30" fill="none" xmlns="http://www.w3.org/2000/svg">
<path d="M15 0C6.72905 0 0 6.72906 0 15C0 23.2709 6.72905 30 15 30C23.271 30 30 23.2709 30 15C30 6.72906 23.271 0 15 0ZM15 2.25C22.055 2.25 27.75 7.94504 27.75 15C27.75 21.2856 23.2254 26.4798 17.25 27.5405V18.75H19.9688C20.3468 18.75 20.6664 18.4673 20.7129 18.0923L20.9941 15.8423C21.0211 15.6293 20.9535 15.4154 20.811 15.2534C20.6693 15.0922 20.4653 15 20.25 15H17.25V12.375C17.25 11.5477 17.9228 10.875 18.75 10.875H20.25C20.664 10.875 21 10.5398 21 10.125V7.59375C21 7.20525 20.7036 6.88118 20.3174 6.84668C20.2731 6.84293 19.215 6.75 17.8755 6.75C14.5702 6.75 12.75 8.71214 12.75 12.2754V15H9.75C9.336 15 9 15.3352 9 15.75V18C9 18.4147 9.336 18.75 9.75 18.75H12.75V27.5405C6.77462 26.4798 2.25 21.2856 2.25 15C2.25 7.94504 7.94504 2.25 15 2.25Z" fill="#808080"/>
</svg>
