<svg width="82" height="60" viewBox="0 0 82 60" fill="none" xmlns="http://www.w3.org/2000/svg">
<path d="M22.0387 59.31C21.2928 59.3058 20.5588 59.1219 19.899 58.7737C19.2393 58.4256 18.6732 57.9235 18.2487 57.31C10.3859 46.0832 4.66017 33.5029 1.35874 20.2C1.21231 19.609 1.18372 18.995 1.27458 18.393C1.36545 17.791 1.574 17.2128 1.88833 16.6914C2.20266 16.17 2.6166 15.7157 3.10654 15.3542C3.59647 14.9928 4.15279 14.7314 4.74373 14.585C5.33468 14.4386 5.94869 14.41 6.55068 14.5008C7.15268 14.5917 7.73089 14.8003 8.25229 15.1146C8.77369 15.4289 9.22808 15.8429 9.5895 16.3328C9.95092 16.8227 10.2123 17.379 10.3587 17.97C13.3826 30.1876 18.6374 41.7415 25.8587 52.05C26.3448 52.7418 26.6312 53.554 26.6866 54.3976C26.7421 55.2413 26.5645 56.0839 26.1732 56.8334C25.7819 57.5829 25.1921 58.2104 24.4682 58.6472C23.7443 59.084 22.9142 59.3133 22.0687 59.31H22.0387Z" fill="white"/>
<path d="M60.6687 59.31C59.8232 59.3132 58.9932 59.0839 58.2693 58.6471C57.5454 58.2103 56.9555 57.5829 56.5642 56.8334C56.173 56.0839 55.9954 55.2412 56.0508 54.3976C56.1063 53.5539 56.3927 52.7418 56.8787 52.05C64.0967 41.7505 69.3514 30.2071 72.3787 18C72.6744 16.8065 73.4321 15.7794 74.4852 15.1446C75.0066 14.8302 75.5848 14.6217 76.1868 14.5308C76.7888 14.4399 77.4028 14.4685 77.9937 14.615C78.5847 14.7614 79.141 15.0228 79.6309 15.3842C80.1208 15.7456 80.5348 16.2 80.8491 16.7214C81.1634 17.2428 81.372 17.821 81.4629 18.423C81.5537 19.025 81.5251 19.639 81.3787 20.23C78.0681 33.535 72.3322 46.1154 64.4587 57.34C64.031 57.9479 63.4634 58.4442 62.8039 58.787C62.1443 59.1298 61.412 59.3092 60.6687 59.31Z" fill="white"/>
<path d="M57.4587 43.38C56.4387 44.0567 55.1918 44.3009 53.9918 44.059C52.7919 43.8172 51.7369 43.109 51.0587 42.09L41.2987 27.43L37.4587 21.65C36.9647 20.9141 36.6919 20.0521 36.6724 19.1661C36.6529 18.28 36.8876 17.4069 37.3487 16.65L37.4587 16.49L37.6287 16.24C37.7505 16.0863 37.8807 15.9394 38.0187 15.8C38.0787 15.74 38.1487 15.68 38.2087 15.61L38.5487 15.34L38.7487 15.2L39.0387 15.02L39.2487 14.91L39.3787 14.85C39.5896 14.7553 39.8068 14.6751 40.0287 14.61L40.2787 14.55H40.4787H40.6587C41.0437 14.4999 41.4336 14.4999 41.8187 14.55H41.9987H42.1987L42.4887 14.62L42.8087 14.73L43.0787 14.84L43.2087 14.9L43.4187 15.01L43.7087 15.19L43.9487 15.36L44.1787 15.55L44.3487 15.7L44.4787 15.84L44.6287 16.01C44.6973 16.0786 44.7608 16.1521 44.8187 16.23C44.881 16.3093 44.9378 16.3929 44.9887 16.48L45.0987 16.64L51.2387 25.86V25.91L58.5687 36.91C58.9235 37.4067 59.1763 37.9688 59.3126 38.5637C59.4488 39.1587 59.4659 39.7748 59.3626 40.3764C59.2594 40.978 59.038 41.5532 58.7112 42.0687C58.3844 42.5843 57.9587 43.0299 57.4587 43.38Z" fill="url(#paint0_linear_616_215)"/>
<path d="M5.83872 9.8C8.54492 9.8 10.7387 7.6062 10.7387 4.9C10.7387 2.1938 8.54492 0 5.83872 0C3.13253 0 0.938721 2.1938 0.938721 4.9C0.938721 7.6062 3.13253 9.8 5.83872 9.8Z" fill="white"/>
<path d="M41.2987 9.8C44.0049 9.8 46.1987 7.6062 46.1987 4.9C46.1987 2.1938 44.0049 0 41.2987 0C38.5925 0 36.3987 2.1938 36.3987 4.9C36.3987 7.6062 38.5925 9.8 41.2987 9.8Z" fill="white"/>
<path d="M76.8686 9.8C79.5748 9.8 81.7686 7.6062 81.7686 4.9C81.7686 2.1938 79.5748 0 76.8686 0C74.1624 0 71.9686 2.1938 71.9686 4.9C71.9686 7.6062 74.1624 9.8 76.8686 9.8Z" fill="white"/>
<path d="M51.3886 25.91C49.7786 23.57 45.2986 21.77 41.2986 27.43C41.2986 27.43 41.2986 27.48 41.2386 27.51L41.0586 27.79L31.5286 42.09C31.2139 42.6369 30.7905 43.1136 30.2845 43.4906C29.7784 43.8676 29.2005 44.1369 28.5864 44.282C27.9723 44.4271 27.335 44.4448 26.7137 44.3341C26.0925 44.2234 25.5005 43.9866 24.9743 43.6383C24.4481 43.29 23.9988 42.8376 23.6542 42.309C23.3096 41.7804 23.0769 41.1868 22.9705 40.5648C22.864 39.9428 22.8862 39.3056 23.0355 38.6925C23.1848 38.0794 23.4582 37.5034 23.8386 37L37.3386 16.72L37.4486 16.56L37.6186 16.31C37.7405 16.1563 37.8707 16.0094 38.0086 15.87C38.0686 15.81 38.1386 15.75 38.1986 15.68L38.5386 15.41L38.7386 15.27L39.0286 15.09L39.2386 14.98L39.3687 14.92C39.5796 14.8253 39.7968 14.7451 40.0186 14.68L40.2686 14.62H40.4686H40.6486C41.0337 14.5699 41.4236 14.5699 41.8086 14.62H41.9886H42.1887L42.4786 14.69L42.7986 14.8L43.0686 14.91L43.1986 14.97L43.4086 15.08L43.6986 15.26L43.9387 15.43L44.1686 15.62L44.3386 15.77L44.4686 15.91L44.6187 16.08C44.6872 16.1486 44.7507 16.2221 44.8086 16.3C44.871 16.3793 44.9278 16.4629 44.9786 16.55L45.0886 16.71L51.3886 25.91Z" fill="white"/>
<defs>
<linearGradient id="paint0_linear_616_215" x1="57.0787" y1="41.6" x2="44.1487" y2="23.89" gradientUnits="userSpaceOnUse">
<stop offset="0.01" stop-color="white"/>
<stop offset="1" stop-color="#BFBFBF"/>
</linearGradient>
</defs>
</svg>
