<svg width="164" height="35" viewBox="0 0 164 35" fill="none" xmlns="http://www.w3.org/2000/svg">
<path d="M12.4521 34.7687C12.0148 34.7663 11.5845 34.6584 11.1977 34.4543C10.811 34.2502 10.4791 33.9559 10.2303 33.5963C5.62093 27.0149 2.26441 19.6401 0.329041 11.8416C0.243204 11.4952 0.22644 11.1352 0.279709 10.7823C0.332978 10.4294 0.455235 10.0905 0.6395 9.78483C0.823764 9.47917 1.06643 9.2128 1.35364 9.00093C1.64084 8.78905 1.96697 8.63582 2.3134 8.54999C2.65982 8.46415 3.01976 8.44739 3.37267 8.50066C3.72557 8.55393 4.06453 8.67618 4.37018 8.86045C4.67584 9.04471 4.94221 9.28737 5.15408 9.57458C5.36596 9.86179 5.51919 10.1879 5.60503 10.5343C7.37767 17.6965 10.4582 24.4697 14.6914 30.5127C14.9764 30.9183 15.1443 31.3944 15.1768 31.889C15.2093 32.3835 15.1052 32.8775 14.8758 33.3169C14.6464 33.7562 14.3006 34.1241 13.8763 34.3801C13.4519 34.6362 12.9653 34.7706 12.4697 34.7687H12.4521Z" fill="#4D4D4D"/>
<path d="M35.0978 34.7689C34.6022 34.7709 34.1156 34.6364 33.6912 34.3804C33.2668 34.1243 32.9211 33.7565 32.6917 33.3171C32.4623 32.8777 32.3582 32.3838 32.3907 31.8892C32.4232 31.3946 32.5911 30.9185 32.876 30.513C37.1074 24.4752 40.1878 17.7082 41.9624 10.5522C42.1358 9.85253 42.58 9.25041 43.1973 8.87827C43.5029 8.694 43.8419 8.57175 44.1948 8.51848C44.5477 8.46521 44.9077 8.48197 45.2541 8.56781C45.6005 8.65365 45.9266 8.80688 46.2138 9.01875C46.501 9.23062 46.7437 9.49699 46.928 9.80265C47.1122 10.1083 47.2345 10.4473 47.2878 10.8002C47.341 11.1531 47.3243 11.513 47.2384 11.8594C45.2977 19.6591 41.9352 27.034 37.3196 33.6141C37.0688 33.9705 36.7361 34.2614 36.3495 34.4624C35.9628 34.6633 35.5336 34.7685 35.0978 34.7689Z" fill="#4D4D4D"/>
<path d="M33.216 25.4303C32.618 25.827 31.8871 25.9702 31.1836 25.8284C30.4802 25.6866 29.8618 25.2714 29.4642 24.6741L23.7427 16.0801L21.4916 12.6917C21.202 12.2603 21.0421 11.7551 21.0306 11.2356C21.0192 10.7162 21.1568 10.2043 21.4271 9.76063L21.4916 9.66684L21.5912 9.52028C21.6626 9.43017 21.739 9.34406 21.8199 9.26235C21.855 9.22717 21.8961 9.192 21.9312 9.15097L22.1306 8.99269L22.2478 8.91061L22.4178 8.8051L22.5409 8.74061L22.6171 8.70544C22.7408 8.64991 22.8681 8.6029 22.9982 8.56474L23.1447 8.52957H23.262H23.3675C23.5932 8.50023 23.8218 8.50023 24.0475 8.52957H24.153H24.2703L24.4403 8.57061L24.6279 8.63509L24.7861 8.69958L24.8623 8.73475L24.9854 8.79923L25.1555 8.90475L25.2961 9.00441L25.431 9.11579L25.5306 9.20373L25.6068 9.2858L25.6948 9.38545C25.735 9.42568 25.7722 9.46879 25.8062 9.51442C25.8427 9.56093 25.876 9.6099 25.9058 9.66098L25.9703 9.75477L29.5697 15.1597V15.189L33.8667 21.6375C34.0747 21.9286 34.2229 22.2581 34.3028 22.6069C34.3827 22.9557 34.3926 23.3169 34.3321 23.6696C34.2716 24.0222 34.1418 24.3594 33.9503 24.6616C33.7587 24.9638 33.5091 25.2251 33.216 25.4303Z" fill="url(#paint0_linear_616_1177)"/>
<path d="M2.95531 5.74496C4.54173 5.74496 5.82779 4.45891 5.82779 2.87248C5.82779 1.28605 4.54173 0 2.95531 0C1.36888 0 0.0828247 1.28605 0.0828247 2.87248C0.0828247 4.45891 1.36888 5.74496 2.95531 5.74496Z" fill="#4D4D4D"/>
<path d="M23.7427 5.74496C25.3291 5.74496 26.6151 4.45891 26.6151 2.87248C26.6151 1.28605 25.3291 0 23.7427 0C22.1562 0 20.8702 1.28605 20.8702 2.87248C20.8702 4.45891 22.1562 5.74496 23.7427 5.74496Z" fill="#4D4D4D"/>
<path d="M44.5945 5.74496C46.181 5.74496 47.467 4.45891 47.467 2.87248C47.467 1.28605 46.181 0 44.5945 0C43.0081 0 41.722 1.28605 41.722 2.87248C41.722 4.45891 43.0081 5.74496 44.5945 5.74496Z" fill="#4D4D4D"/>
<path d="M29.6576 15.1888C28.7138 13.817 26.0876 12.7618 23.7427 16.0798C23.7427 16.0798 23.7427 16.1091 23.7075 16.1267L23.602 16.2909L18.0153 24.6738C17.8308 24.9944 17.5826 25.2739 17.2859 25.4949C16.9893 25.7159 16.6505 25.8738 16.2905 25.9588C15.9305 26.0439 15.5569 26.0543 15.1927 25.9893C14.8285 25.9244 14.4815 25.7856 14.173 25.5815C13.8646 25.3773 13.6012 25.1121 13.3991 24.8022C13.1971 24.4923 13.0607 24.1443 12.9983 23.7797C12.9359 23.4151 12.9489 23.0416 13.0365 22.6822C13.124 22.3227 13.2842 21.9851 13.5073 21.69L21.4212 9.80141L21.4857 9.70761L21.5854 9.56106C21.6568 9.47094 21.7331 9.38483 21.814 9.30312C21.8492 9.26795 21.8902 9.23277 21.9254 9.19174L22.1247 9.03346L22.242 8.95139L22.412 8.84587L22.5351 8.78138L22.6113 8.74621C22.7349 8.69068 22.8622 8.64367 22.9923 8.60552L23.1389 8.57034H23.2561H23.3616C23.5874 8.54101 23.8159 8.54101 24.0417 8.57034H24.1472H24.2644L24.4344 8.61138L24.622 8.67586L24.7803 8.74035L24.8565 8.77552L24.9796 8.84L25.1496 8.94552L25.2903 9.04518L25.4251 9.15656L25.5248 9.2445L25.601 9.32657L25.6889 9.42623C25.7291 9.46646 25.7664 9.50956 25.8003 9.55519C25.8369 9.6017 25.8701 9.65067 25.9 9.70175L25.9645 9.79554L29.6576 15.1888Z" fill="#4D4D4D"/>
<path d="M58.677 33.9997C53.3055 33.9997 49.2952 29.8691 49.2952 24.3855C49.2952 21.7861 50.1782 19.4003 51.797 17.6199C53.4895 15.7683 55.8809 14.7713 58.4931 14.7713C63.7543 14.7713 67.5438 18.795 67.5438 24.3855C67.5438 24.9908 67.0287 25.5249 66.3665 25.5249H51.6867C52.2018 29.1214 55.0347 31.7208 58.677 31.7208C61.1421 31.7208 63.3128 30.5813 64.5637 28.516C64.9316 27.9819 65.6306 27.8395 66.1825 28.1599C66.7344 28.4804 66.9183 29.1926 66.5872 29.7267C64.858 32.4329 61.9883 33.9997 58.677 33.9997ZM51.6867 23.246H65.1155C64.674 19.5428 62.0986 17.0146 58.4931 17.0146C54.8875 17.0146 52.165 19.5784 51.6867 23.246Z" fill="#4D4D4D"/>
<path d="M77.9707 14.7713C75.6896 14.7713 73.7029 15.6259 72.268 17.0502V15.8751C72.268 15.2698 71.7529 14.7713 71.0907 14.7713C70.4652 14.7713 69.9502 15.2698 69.9502 15.8751V32.8602C69.9502 33.5012 70.4652 33.9997 71.0907 33.9997C71.7529 33.9997 72.268 33.5012 72.268 32.8602V23.246C72.268 23.2104 72.268 23.1748 72.268 23.1392V22.9611C72.268 19.5784 74.7331 17.0146 77.9707 17.0146C78.6329 17.0146 79.148 16.5161 79.148 15.8751C79.148 15.2698 78.6329 14.7713 77.9707 14.7713Z" fill="#4D4D4D"/>
<path d="M102.016 14.7713C99.7722 14.7713 97.7119 15.6259 96.277 17.2282C95.9459 17.5843 95.6516 17.976 95.394 18.4033C94.1431 16.16 91.8988 14.7713 89.2131 14.7713C87.0424 14.7713 85.1292 15.5546 83.6944 16.979V15.8751C83.6944 15.2698 83.1425 14.7713 82.517 14.7713C81.8548 14.7713 81.3397 15.2698 81.3397 15.8751V32.8602C81.3397 33.5012 81.8548 33.9997 82.517 33.9997C83.1425 33.9997 83.6944 33.5012 83.6944 32.8602V23.246C83.6944 23.2104 83.6944 23.1748 83.6944 23.1392V22.9611C83.6944 19.5428 86.0122 17.0146 89.2131 17.0146C92.1196 17.0146 94.1799 19.4715 94.1799 22.9611V32.8602C94.1799 33.5012 94.695 33.9997 95.3205 33.9997C95.9827 33.9997 96.4978 33.5012 96.4978 32.8602V23.246C96.4978 23.2104 96.4978 23.1748 96.4978 23.1392V22.9611C96.4978 19.5428 98.8156 17.0146 102.016 17.0146C104.96 17.0146 106.983 19.4715 106.983 22.9611V32.8602C106.983 33.5012 107.498 33.9997 108.161 33.9997C108.823 33.9997 109.338 33.5012 109.338 32.8602V22.9611C109.338 18.2253 106.248 14.7713 102.016 14.7713Z" fill="#4D4D4D"/>
<path d="M121.49 33.9997C116.008 33.9997 111.556 29.6911 111.556 24.3855C111.556 19.0799 116.008 14.7713 121.49 14.7713C126.972 14.7713 131.423 19.0799 131.423 24.3855C131.423 29.6911 126.972 33.9997 121.49 33.9997ZM121.49 17.0146C117.296 17.0146 113.911 20.3261 113.911 24.3855C113.911 28.4448 117.296 31.7208 121.49 31.7208C125.684 31.7208 129.069 28.4448 129.069 24.3855C129.069 20.3261 125.684 17.0146 121.49 17.0146Z" fill="#4D4D4D"/>
<path d="M144.065 30.795C144.58 31.1866 144.617 31.8988 144.213 32.3973C143.293 33.43 141.968 33.9997 140.607 33.9997C137.958 33.9997 135.824 31.9344 135.824 29.4062V17.0146H134.757C134.132 17.0146 133.617 16.5161 133.617 15.8751C133.617 15.2698 134.132 14.7713 134.757 14.7713H135.824V11.1392C135.824 10.4983 136.376 9.99976 137.001 9.99976C137.664 9.99976 138.179 10.4983 138.179 11.1392V14.7713H142.336C142.998 14.7713 143.513 15.2698 143.513 15.8751C143.513 16.5161 142.998 17.0146 142.336 17.0146H138.179V29.4062C138.179 30.6881 139.282 31.7208 140.607 31.7208C141.306 31.7208 141.968 31.4359 142.41 30.9018C142.851 30.4389 143.587 30.3677 144.065 30.795Z" fill="#4D4D4D"/>
<path d="M154.428 33.9997C149.057 33.9997 145.046 29.8691 145.046 24.3855C145.046 21.7861 145.929 19.4003 147.548 17.6199C149.241 15.7683 151.632 14.7713 154.244 14.7713C159.505 14.7713 163.295 18.795 163.295 24.3855C163.295 24.9908 162.78 25.5249 162.118 25.5249H147.438C147.953 29.1214 150.786 31.7208 154.428 31.7208C156.893 31.7208 159.064 30.5813 160.315 28.516C160.683 27.9819 161.382 27.8395 161.934 28.1599C162.486 28.4804 162.669 29.1926 162.338 29.7267C160.609 32.4329 157.739 33.9997 154.428 33.9997ZM147.438 23.246H160.867C160.425 19.5428 157.85 17.0146 154.244 17.0146C150.639 17.0146 147.916 19.5784 147.438 23.246Z" fill="#4D4D4D"/>
<defs>
<linearGradient id="paint0_linear_616_1177" x1="22.5828" y1="9.00004" x2="33.0827" y2="24.5" gradientUnits="userSpaceOnUse">
<stop stop-color="#0D0D0D"/>
<stop offset="1" stop-color="#333333"/>
</linearGradient>
</defs>
</svg>
