<svg width="23" height="23" viewBox="0 0 23 23" fill="none" xmlns="http://www.w3.org/2000/svg">
<mask id="mask0_359_79" style="mask-type:alpha" maskUnits="userSpaceOnUse" x="2" y="3" width="20" height="20">
<path d="M13.7759 16.7363V16.6552V15.069V14.7587L14.0539 14.621C14.0524 14.6217 14.0524 14.6217 14.054 14.6207C14.059 14.6174 14.0798 14.6041 14.1173 14.5727C14.1623 14.5352 14.2184 14.4827 14.2828 14.4157C14.4115 14.2816 14.56 14.1033 14.7032 13.9001C15.0006 13.4779 15.2244 13.0205 15.2637 12.6717L15.3101 12.2606L15.7225 12.2292L15.7226 12.2292C15.7265 12.2289 15.7825 12.2246 15.8585 12.1332C15.9407 12.0344 16.0591 11.8159 16.1164 11.3677L13.7759 16.7363ZM13.7759 16.7363L13.8015 16.8133M13.7759 16.7363L13.8015 16.8133M13.8015 16.8133C14.0754 17.6349 14.8145 18.0539 15.5457 18.3361C15.921 18.4809 16.3337 18.604 16.7417 18.7241C16.7685 18.732 16.7952 18.7399 16.8219 18.7477C17.2095 18.8617 17.5959 18.9753 17.9759 19.1094C18.7906 19.397 19.5155 19.7593 20.0398 20.3371C20.4812 20.8236 20.812 21.4983 20.8941 22.5M13.8015 16.8133L20.8941 22.5M2.89906 22.5C2.98114 21.4983 3.31193 20.8236 3.75339 20.3371C4.27765 19.7593 5.0025 19.397 5.8173 19.1094C6.19728 18.9753 6.58362 18.8617 6.97124 18.7477C6.99796 18.7399 7.02469 18.732 7.05143 18.7241C7.45941 18.604 7.87214 18.4809 8.24741 18.3361C8.97862 18.0539 9.71772 17.6349 9.99161 16.8133L10.0173 16.7363V16.6552V15.069V14.7587L9.73928 14.621C9.74076 14.6217 9.74073 14.6217 9.73916 14.6207C9.73414 14.6174 9.71339 14.6041 9.67588 14.5727C9.63088 14.5352 9.57476 14.4827 9.51037 14.4157C9.38162 14.2816 9.23314 14.1033 9.08998 13.9001C8.79256 13.4779 8.56876 13.0205 8.52943 12.6717L8.48307 12.2606L8.0706 12.2292L8.07055 12.2292C8.06663 12.2289 8.01063 12.2246 7.9346 12.1332C7.85243 12.0344 7.73405 11.8159 7.67675 11.3676L7.67674 11.3676C7.6546 11.1945 7.68908 11.0838 7.72321 11.0181C7.76059 10.9462 7.80386 10.9158 7.80602 10.9143C7.80608 10.9142 7.80611 10.9142 7.8061 10.9142L8.20684 10.6836L8.00858 10.2668L8.00848 10.2666L8.00838 10.2664L8.00834 10.2663L8.00831 10.2662L8.00823 10.2661L8.00618 10.2617L7.99568 10.2384C7.98612 10.2169 7.97178 10.1837 7.95423 10.1407C7.91903 10.0545 7.87147 9.92972 7.82386 9.77985C7.72682 9.47438 7.63795 9.09051 7.63795 8.72493C7.63795 7.50804 7.96424 6.45024 8.62921 5.70272C9.28517 4.96534 10.3271 4.46631 11.8966 4.46631C12.6847 4.46631 13.1697 4.72119 13.4527 4.94997C13.5976 5.06713 13.6956 5.18248 13.7552 5.26445C13.785 5.30534 13.805 5.33747 13.8162 5.35667C13.8215 5.36589 13.8248 5.37205 13.8262 5.37468C13.8263 5.37478 13.8263 5.37488 13.8264 5.37497L13.9596 5.65596H14.2759C14.8847 5.65596 15.3293 5.94968 15.6459 6.47604C15.9753 7.02376 16.1552 7.81682 16.1552 8.72493C16.1552 9.13575 16.065 9.52009 15.9708 9.80712C15.9241 9.94917 15.8778 10.0636 15.8439 10.1409C15.827 10.1794 15.8134 10.2084 15.8045 10.2267L15.795 10.2459L15.7939 10.2482L15.7938 10.2483L15.7936 10.2487L15.7935 10.249L15.7934 10.2491L15.7934 10.2491L15.5697 10.674L15.987 10.9142C15.987 10.9142 16.0317 10.9442 16.07 11.0179C16.104 11.0834 16.1386 11.1939 16.1164 11.3676L2.89906 22.5ZM2.89906 22.5H20.8941M2.89906 22.5H20.8941" fill="black" stroke="#136262"/>
</mask>
<g mask="url(#mask0_359_79)">
<circle cx="11.5" cy="11.5" r="11" fill="#136262" stroke="#136262"/>
</g>
<circle cx="11.5" cy="11.5" r="11" stroke="#136262"/>
</svg>
