<svg width="26" height="26" viewBox="0 0 26 26" fill="none" xmlns="http://www.w3.org/2000/svg">
<circle cx="13" cy="13" r="13" fill="#D9F2A5"/>
<path d="M13 5C10.3012 5 8.1 7.144 8.1 9.77273C8.1 11.4054 8.95312 12.8542 10.2438 13.7145C7.73906 14.7532 6 17.1768 6 20H7.4C7.4 16.9558 9.87461 14.5455 13 14.5455C16.1254 14.5455 18.6 16.9558 18.6 20H20C20 17.1768 18.2609 14.7532 15.7562 13.7145C17.0469 12.8542 17.9 11.4054 17.9 9.77273C17.9 7.144 15.6988 5 13 5ZM13 6.36364C14.9414 6.36364 16.5 7.88175 16.5 9.77273C16.5 11.6637 14.9414 13.1818 13 13.1818C11.0586 13.1818 9.5 11.6637 9.5 9.77273C9.5 7.88175 11.0586 6.36364 13 6.36364Z" fill="#136262"/>
</svg>
